SplineFontDB: 3.2
FontName: Entity-SemiBold
FullName: Entity SemiBold
FamilyName: Entity
Weight: Bold
Copyright: Based on Geist Copyright 2024 The Geist Project Authors https:github.comvercelgeist-font.git
Version: 0.1
ItalicAngle: 0
UnderlinePosition: -125
UnderlineWidth: 50
Ascent: 800
Descent: 200
InvalidEm: 0
sfntRevision: 0x0000199a
LayerCount: 2
Layer: 0 0 "Back" 1
Layer: 1 0 "Fore" 0
XUID: [1021 1008 -1557834819 8801902]
StyleMap: 0x0040
FSType: 0
OS2Version: 4
OS2_WeightWidthSlopeOnly: 0
OS2_UseTypoMetrics: 1
CreationTime: 1728311655
ModificationTime: 1746831749
PfmFamily: 81
TTFWeight: 600
TTFWidth: 5
LineGap: 0
VLineGap: 0
Panose: 0 0 0 0 0 0 0 0 0 0
OS2TypoAscent: 1005
OS2TypoAOffset: 0
OS2TypoDescent: -295
OS2TypoDOffset: 0
OS2TypoLinegap: 0
OS2WinAscent: 1012
OS2WinAOffset: 0
OS2WinDescent: 262
OS2WinDOffset: 0
HheadAscent: 1005
HheadAOffset: 0
HheadDescent: -295
HheadDOffset: 0
OS2SubXSize: 650
OS2SubYSize: 600
OS2SubXOff: 0
OS2SubYOff: 75
OS2SupXSize: 650
OS2SupYSize: 600
OS2SupXOff: 0
OS2SupYOff: 350
OS2StrikeYSize: 50
OS2StrikeYPos: 320
OS2CapHeight: 710
OS2XHeight: 534
OS2Vendor: 'VRCL'
OS2CodePages: 20000097.00000000
OS2UnicodeRanges: a10002ff.5001e5fb.00000000.00000000
Lookup: 1 0 0 "'aalt' Access All Alternates in Latin lookup 0" { "'aalt' Access All Alternates in Latin lookup 0 subtable"  } ['aalt' ('DFLT' <'dflt' > 'latn' <'AZE ' 'CAT ' 'CRT ' 'KAZ ' 'MAH ' 'MOL ' 'NLD ' 'ROM ' 'TAT ' 'TRK ' 'dflt' > ) ]
Lookup: 3 0 0 "'aalt' Access All Alternates in Latin lookup 1" { "'aalt' Access All Alternates in Latin lookup 1 subtable"  } ['aalt' ('DFLT' <'dflt' > 'latn' <'AZE ' 'CAT ' 'CRT ' 'KAZ ' 'MAH ' 'MOL ' 'NLD ' 'ROM ' 'TAT ' 'TRK ' 'dflt' > ) ]

StartChar: .notdef
Encoding: 65536 -1 0
Width: 600
GlyphClass: 1
Flags: MW
HStem: 0 36<95 510 95 565> 674 36<95 95 95 510>
VStem: 40 33<64 646 64 710> 532 33<64 646 646 646>
LayerCount: 2
Fore
SplineSet
40 0 m 1
 40 710 l 1
 565 710 l 1
 565 0 l 1
 40 0 l 1
95 674 m 1
 303 384 l 1
 510 674 l 1
 95 674 l 1
73 646 m 1
 73 64 l 1
 282 355 l 1
 73 646 l 1
323 355 m 1
 532 64 l 1
 532 646 l 1
 323 355 l 1
95 36 m 1
 510 36 l 1
 303 326 l 1
 95 36 l 1
EndSplineSet
EndChar

StartChar: A
Encoding: 65 65 1
Width: 709
GlyphClass: 2
Flags: MW
HStem: 0 21G<19 19 19 155 554 554 554 690> 168 111<252 457 252 495 214 457> 579 131<355 355> 690 20G<275 434 434 434>
VStem: 19 671<0 0>
AnchorPoint: "Anchor-3" 355 710 basechar 0
AnchorPoint: "Anchor-2" 690 0 basechar 0
AnchorPoint: "Anchor-0" 355 0 basechar 0
LayerCount: 2
Fore
SplineSet
19 0 m 1xd8
 275 710 l 1
 434 710 l 1
 690 0 l 1
 554 0 l 1
 495 168 l 1
 214 168 l 1
 155 0 l 1
 19 0 l 1xd8
252 279 m 1
 457 279 l 1
 355 579 l 1xe8
 252 279 l 1
EndSplineSet
Substitution2: "Single Substitution lookup 27 subtable" ordfeminine
Substitution2: "'aalt' Access All Alternates in Latin lookup 0 subtable" ordfeminine
EndChar

StartChar: Aacute
Encoding: 193 193 2
Width: 709
GlyphClass: 2
Flags: MW
HStem: 0 21G<19 19 19 155 554 554 554 690> 168 111<252 457 252 495 214 457> 579 131<355 355> 690 20G<275 434 434 434> 770 140<297 487 358 397>
VStem: 19 671<0 0>
AnchorPoint: "Anchor-3" 355 710 basechar 0
AnchorPoint: "Anchor-2" 690 0 basechar 0
AnchorPoint: "Anchor-0" 355 0 basechar 0
LayerCount: 2
Fore
SplineSet
297 770 m 1xdc
 358 910 l 1
 487 910 l 1
 397 770 l 1
 297 770 l 1xdc
19 0 m 1
 275 710 l 1
 434 710 l 1
 690 0 l 1
 554 0 l 1
 495 168 l 1
 214 168 l 1
 155 0 l 1
 19 0 l 1
252 279 m 1
 457 279 l 1
 355 579 l 1xec
 252 279 l 1
EndSplineSet
EndChar

StartChar: Abreve
Encoding: 258 258 3
Width: 709
GlyphClass: 2
Flags: MW
HStem: 0 21G<19 19 19 155 554 554 554 690> 168 111<252 457 252 495 214 457> 579 131<355 355> 690 20G<275 434 434 434> 771 76<334 376 334 399.5>
VStem: 19 671<0 0>
AnchorPoint: "Anchor-3" 355 710 basechar 0
AnchorPoint: "Anchor-2" 690 0 basechar 0
AnchorPoint: "Anchor-0" 355 0 basechar 0
LayerCount: 2
Fore
SplineSet
355 771 m 0xdc
 266 771 208 824 204 912 c 1
 281 912 l 1
 286 866 313 847 355 847 c 0
 397 847 423 866 428 912 c 1
 505 912 l 1
 501 824 444 771 355 771 c 0xdc
19 0 m 1
 275 710 l 1
 434 710 l 1
 690 0 l 1
 554 0 l 1
 495 168 l 1
 214 168 l 1
 155 0 l 1
 19 0 l 1
252 279 m 1
 457 279 l 1
 355 579 l 1xec
 252 279 l 1
EndSplineSet
EndChar

StartChar: uni01CD
Encoding: 461 461 4
Width: 709
GlyphClass: 2
Flags: MW
HStem: 0 21G<19 19 19 155 554 554 554 690> 168 111<252 457 252 495 214 457> 579 131<355 355> 690 20G<275 434 434 434> 770 146<197 419 197 291>
VStem: 19 671<0 0>
AnchorPoint: "Anchor-3" 355 710 basechar 0
AnchorPoint: "Anchor-2" 690 0 basechar 0
AnchorPoint: "Anchor-0" 355 0 basechar 0
LayerCount: 2
Fore
SplineSet
197 916 m 1xdc
 290 916 l 1
 355 827 l 1
 419 916 l 1
 513 916 l 1
 419 770 l 1
 291 770 l 1
 197 916 l 1xdc
19 0 m 1
 275 710 l 1
 434 710 l 1
 690 0 l 1
 554 0 l 1
 495 168 l 1
 214 168 l 1
 155 0 l 1
 19 0 l 1
252 279 m 1
 457 279 l 1
 355 579 l 1xec
 252 279 l 1
EndSplineSet
EndChar

StartChar: Acircumflex
Encoding: 194 194 5
Width: 709
GlyphClass: 2
Flags: MW
HStem: 0 21G<19 19 19 155 554 554 554 690> 168 111<252 457 252 495 214 457> 579 131<355 355> 690 20G<275 434 434 434> 770 146<197 419 197 419 291 419 291 513>
VStem: 19 671<0 0>
AnchorPoint: "Anchor-3" 355 710 basechar 0
AnchorPoint: "Anchor-2" 690 0 basechar 0
AnchorPoint: "Anchor-0" 355 0 basechar 0
LayerCount: 2
Fore
SplineSet
197 770 m 1xdc
 291 916 l 1
 419 916 l 1
 513 770 l 1
 419 770 l 1
 355 859 l 1
 290 770 l 1
 197 770 l 1xdc
19 0 m 1
 275 710 l 1
 434 710 l 1
 690 0 l 1
 554 0 l 1
 495 168 l 1
 214 168 l 1
 155 0 l 1
 19 0 l 1
252 279 m 1
 457 279 l 1
 355 579 l 1xec
 252 279 l 1
EndSplineSet
EndChar

StartChar: Adieresis
Encoding: 196 196 6
Width: 709
GlyphClass: 2
Flags: MW
HStem: 0 21G<19 19 19 155 554 554 554 690> 168 111<252 457 252 495 214 457> 579 131<355 355> 690 20G<275 434 434 434> 780 113<192 317 192 317 393 518 192 393>
VStem: 192 125<780 893 780 893> 393 125<780 893 780 893>
AnchorPoint: "Anchor-3" 355 710 basechar 0
AnchorPoint: "Anchor-2" 690 0 basechar 0
AnchorPoint: "Anchor-0" 355 0 basechar 0
LayerCount: 2
Fore
SplineSet
192 780 m 1xde
 192 893 l 1
 317 893 l 1
 317 780 l 1
 192 780 l 1xde
393 780 m 1
 393 893 l 1
 518 893 l 1
 518 780 l 1
 393 780 l 1
19 0 m 1
 275 710 l 1
 434 710 l 1
 690 0 l 1
 554 0 l 1
 495 168 l 1
 214 168 l 1
 155 0 l 1
 19 0 l 1
252 279 m 1
 457 279 l 1
 355 579 l 1xee
 252 279 l 1
EndSplineSet
Substitution2: "'ss08' Style Set 8 in Latin lookup 41 subtable" Adieresis.ss08
Substitution2: "'aalt' Access All Alternates in Latin lookup 0 subtable" Adieresis.ss08
EndChar

StartChar: Agrave
Encoding: 192 192 7
Width: 709
GlyphClass: 2
Flags: MW
HStem: 0 21G<19 19 19 155 554 554 554 690> 168 111<252 457 252 495 214 457> 579 131<355 355> 690 20G<275 434 434 434> 775 141<313 313 313 351 223 412>
VStem: 19 671<0 0>
AnchorPoint: "Anchor-3" 355 710 basechar 0
AnchorPoint: "Anchor-2" 690 0 basechar 0
AnchorPoint: "Anchor-0" 355 0 basechar 0
LayerCount: 2
Fore
SplineSet
313 775 m 1xdc
 223 916 l 1
 351 916 l 1
 412 775 l 1
 313 775 l 1xdc
19 0 m 1
 275 710 l 1
 434 710 l 1
 690 0 l 1
 554 0 l 1
 495 168 l 1
 214 168 l 1
 155 0 l 1
 19 0 l 1
252 279 m 1
 457 279 l 1
 355 579 l 1xec
 252 279 l 1
EndSplineSet
EndChar

StartChar: Amacron
Encoding: 256 256 8
Width: 709
GlyphClass: 2
Flags: MW
HStem: 0 21G<19 19 19 155 554 554 554 690> 168 111<252 457 252 495 214 457> 579 131<355 355> 690 20G<275 434 434 434> 789 97<210 499 210 499>
VStem: 19 671<0 0> 210 289<789 886 789 886>
AnchorPoint: "Anchor-3" 355 710 basechar 0
AnchorPoint: "Anchor-2" 690 0 basechar 0
AnchorPoint: "Anchor-0" 355 0 basechar 0
LayerCount: 2
Fore
SplineSet
210 789 m 1xda
 210 886 l 1
 499 886 l 1
 499 789 l 1
 210 789 l 1xda
19 0 m 1
 275 710 l 1
 434 710 l 1
 690 0 l 1
 554 0 l 1
 495 168 l 1
 214 168 l 1
 155 0 l 1xdc
 19 0 l 1
252 279 m 1
 457 279 l 1
 355 579 l 1xec
 252 279 l 1
EndSplineSet
EndChar

StartChar: Aogonek
Encoding: 260 260 9
Width: 709
GlyphClass: 2
Flags: MW
HStem: -215 83<646.5 647> 0 21G<19 19 19 155 554 554 554 588 690 690> 168 111<252 457 252 495 214 457> 579 131<355 355> 690 20G<275 434 434 434>
VStem: 19 707<-189 0> 520 107<-115.5 -114.5>
AnchorPoint: "Anchor-3" 355 710 basechar 0
AnchorPoint: "Anchor-2" 690 0 basechar 0
AnchorPoint: "Anchor-0" 355 0 basechar 0
LayerCount: 2
Fore
SplineSet
19 0 m 1xec
 275 710 l 1
 434 710 l 1
 690 0 l 1
 658 -42 l 2
 637 -72 627 -91 627 -107 c 0xea
 627 -124 639 -132 654 -132 c 0
 672 -132 689 -127 700 -119 c 1
 726 -189 l 1xec
 709 -203 667 -215 627 -215 c 0
 560 -215 520 -187 520 -134 c 0xea
 520 -95 547 -55 572 -20 c 2
 588 0 l 1
 554 0 l 1
 495 168 l 1
 214 168 l 1
 155 0 l 1
 19 0 l 1xec
252 279 m 1
 457 279 l 1
 355 579 l 1xf4
 252 279 l 1
EndSplineSet
EndChar

StartChar: Aring
Encoding: 197 197 10
Width: 713
GlyphClass: 2
Flags: MW
HStem: 0 21G<15 15 15 151 549 549 549 686> 168 111<248 453 248 491 210 453> 579 131<351 351> 690 20G<271 430 430 430> 755 60<341 363 341 380> 892 60<341 363>
VStem: 253 60<842.5 865 842.5 882> 391 60<842.5 865>
AnchorPoint: "Anchor-3" 351 710 basechar 0
AnchorPoint: "Anchor-2" 686 0 basechar 0
AnchorPoint: "Anchor-0" 351 0 basechar 0
LayerCount: 2
Fore
SplineSet
352 755 m 0xdf
 296 755 253 798 253 854 c 0
 253 910 296 952 352 952 c 0
 408 952 451 910 451 854 c 0
 451 798 408 755 352 755 c 0xdf
352 815 m 0
 374 815 391 831 391 854 c 0
 391 876 374 892 352 892 c 0
 330 892 313 876 313 854 c 0
 313 831 330 815 352 815 c 0
15 0 m 1
 271 710 l 1
 430 710 l 1
 686 0 l 1
 549 0 l 1
 491 168 l 1
 210 168 l 1
 151 0 l 1
 15 0 l 1
248 279 m 1
 453 279 l 1
 351 579 l 1xef
 248 279 l 1
EndSplineSet
EndChar

StartChar: Atilde
Encoding: 195 195 11
Width: 713
GlyphClass: 2
Flags: MW
HStem: 0 21G<15 15 15 151 549 549 549 686> 168 111<248 453 248 491 210 453> 579 131<351 351> 690 20G<271 430 430 430> 777 134<179 300 179 300> 784 78<399.5 417 399.5 437> 784 136<388.5 512> 833 78<275.5 294>
VStem: 179 67<777 777> 445 67<920 920>
AnchorPoint: "Anchor-3" 351 710 basechar 0
AnchorPoint: "Anchor-2" 686 0 basechar 0
AnchorPoint: "Anchor-0" 351 0 basechar 0
LayerCount: 2
Fore
SplineSet
403 784 m 0xd2c0
 374 784 354 792 329 812 c 0
 311 827 302 833 286 833 c 0xd1c0
 265 833 249 821 246 777 c 1xd8c0
 179 777 l 1
 180 861 220 911 284 911 c 0xd1c0
 316 911 339 902 364 882 c 0
 382 867 393 862 406 862 c 0xd4c0
 428 862 442 874 445 920 c 1
 512 920 l 1
 510 835 471 784 403 784 c 0xd2c0
15 0 m 1
 271 710 l 1
 430 710 l 1
 686 0 l 1
 549 0 l 1
 491 168 l 1
 210 168 l 1
 151 0 l 1
 15 0 l 1
248 279 m 1
 453 279 l 1
 351 579 l 1xe1c0
 248 279 l 1
EndSplineSet
EndChar

StartChar: AE
Encoding: 198 198 12
Width: 1019
GlyphClass: 2
Flags: MW
HStem: 0 113<644 969 644 969> 168 111<302 514 302 514 245 514> 300 112<644 949 644 949> 597 113<644 961 644 644> 599 111<468 514 468 468>
VStem: 514 130<113 168 168 168 279 300 412 597>
AnchorPoint: "Anchor-3" 542 710 basechar 0
AnchorPoint: "Anchor-0" 542 0 basechar 0
LayerCount: 2
Fore
SplineSet
19 0 m 1xd4
 399 710 l 1
 961 710 l 1
 961 597 l 1
 644 597 l 1
 644 412 l 1
 949 412 l 1
 949 300 l 1
 644 300 l 1xb4
 644 113 l 1
 969 113 l 1
 969 0 l 1
 514 0 l 1
 514 168 l 1
 245 168 l 1
 158 0 l 1
 19 0 l 1xd4
514 599 m 1xcc
 468 599 l 1
 302 279 l 1
 514 279 l 1
 514 599 l 1xcc
EndSplineSet
EndChar

StartChar: B
Encoding: 66 66 13
Width: 695
GlyphClass: 2
Flags: MW
HStem: 0 110<210 376 376 382> 310 57 310 102<210 342 342 376 210 342> 600 110<210 342 210 210>
VStem: 80 130<110 110 110 310 412 600> 478 133<476 538> 508 133<176.5 242>
AnchorPoint: "Anchor-3" 348 710 basechar 0
AnchorPoint: "Anchor-0" 348 0 basechar 0
LayerCount: 2
Fore
SplineSet
80 0 m 1xda
 80 710 l 1
 346 710 l 2
 519 710 611 651 611 518 c 0xbc
 611 434 560 378 471 367 c 1
 580 356 641 292 641 195 c 0
 641 65 548 0 382 0 c 2
 80 0 l 1xda
210 412 m 1
 342 412 l 2
 427 412 478 445 478 506 c 0
 478 570 430 600 342 600 c 2
 210 600 l 1
 210 412 l 1
210 110 m 1
 376 110 l 2
 457 110 508 144 508 209 c 0xba
 508 275 458 310 376 310 c 2
 210 310 l 1
 210 110 l 1
EndSplineSet
EndChar

StartChar: C
Encoding: 67 67 14
Width: 724
GlyphClass: 2
Flags: MW
HStem: -16 113<313 425 313 461.5> 613 113<312.5 422>
VStem: 43 134<274 433 274 468>
AnchorPoint: "Anchor-3" 372 710 basechar 0
AnchorPoint: "Anchor-0" 374 0 basechar 0
LayerCount: 2
Fore
SplineSet
372 -16 m 0
 178 -16 43 122 43 354 c 0
 43 582 174 726 373 726 c 0
 554 726 651 631 682 470 c 1
 546 463 l 1
 528 556 471 613 373 613 c 0
 252 613 177 512 177 354 c 0
 177 194 254 97 372 97 c 0
 478 97 534 158 550 260 c 1
 686 253 l 1
 658 86 551 -16 372 -16 c 0
EndSplineSet
EndChar

StartChar: Cacute
Encoding: 262 262 15
Width: 724
GlyphClass: 2
Flags: MW
HStem: -16 113<313 425 313 461.5> 613 113<312.5 422> 770 140<314 504 375 414>
VStem: 43 134<274 433 274 468>
AnchorPoint: "Anchor-3" 372 710 basechar 0
AnchorPoint: "Anchor-0" 374 0 basechar 0
LayerCount: 2
Fore
SplineSet
314 770 m 1
 375 910 l 1
 504 910 l 1
 414 770 l 1
 314 770 l 1
372 -16 m 0
 178 -16 43 122 43 354 c 0
 43 582 174 726 373 726 c 0
 554 726 651 631 682 470 c 1
 546 463 l 1
 528 556 471 613 373 613 c 0
 252 613 177 512 177 354 c 0
 177 194 254 97 372 97 c 0
 478 97 534 158 550 260 c 1
 686 253 l 1
 658 86 551 -16 372 -16 c 0
EndSplineSet
EndChar

StartChar: Ccaron
Encoding: 268 268 16
Width: 724
GlyphClass: 2
Flags: MW
HStem: -16 113<313 425 313 461.5> 613 113<312.5 422> 770 146<214 436 214 308>
VStem: 43 134<274 433 274 468>
AnchorPoint: "Anchor-3" 372 710 basechar 0
AnchorPoint: "Anchor-0" 374 0 basechar 0
LayerCount: 2
Fore
SplineSet
214 916 m 1
 307 916 l 1
 372 827 l 1
 437 916 l 1
 530 916 l 1
 436 770 l 1
 308 770 l 1
 214 916 l 1
372 -16 m 0
 178 -16 43 122 43 354 c 0
 43 582 174 726 373 726 c 0
 554 726 651 631 682 470 c 1
 546 463 l 1
 528 556 471 613 373 613 c 0
 252 613 177 512 177 354 c 0
 177 194 254 97 372 97 c 0
 478 97 534 158 550 260 c 1
 686 253 l 1
 658 86 551 -16 372 -16 c 0
EndSplineSet
EndChar

StartChar: Ccedilla
Encoding: 199 199 17
Width: 724
GlyphClass: 2
Flags: MW
HStem: -228 67<348.5 379.5 348.5 401> -82 49<346 393> -82 179<346 374> -14 21G<329 329> -14 111<329 329> 613 113<312.5 422>
VStem: 43 134<274 433 274 468> 414 75<-135 -111>
AnchorPoint: "Anchor-3" 372 710 basechar 0
AnchorPoint: "Anchor-0" 374 0 basechar 0
LayerCount: 2
Fore
SplineSet
367 -228 m 0xc7
 301 -228 259 -194 243 -147 c 1
 304 -121 l 1
 315 -148 333 -161 364 -161 c 0
 395 -161 414 -147 414 -123 c 0
 414 -99 402 -82 346 -82 c 1xa7
 309 -47 l 1
 329 -14 l 1x97
 159 5 43 140 43 354 c 0
 43 582 174 726 373 726 c 0
 554 726 651 631 682 470 c 1
 546 463 l 1
 528 556 471 613 373 613 c 0
 252 613 177 512 177 354 c 0
 177 194 254 97 372 97 c 0x8f
 478 97 534 158 550 260 c 1
 686 253 l 1
 660 97 565 -3 405 -15 c 1
 393 -33 l 1
 459 -38 489 -76 489 -126 c 0
 489 -192 435 -228 367 -228 c 0xc7
EndSplineSet
EndChar

StartChar: Ccircumflex
Encoding: 264 264 18
Width: 724
GlyphClass: 2
Flags: MW
HStem: -16 113<313 425 313 461.5> 613 113<312.5 422> 770 146<214 436 214 436 308 437 308 530>
VStem: 43 134<274 433 274 468>
AnchorPoint: "Anchor-3" 372 710 basechar 0
AnchorPoint: "Anchor-0" 374 0 basechar 0
LayerCount: 2
Fore
SplineSet
214 770 m 1
 308 916 l 1
 436 916 l 1
 530 770 l 1
 437 770 l 1
 372 859 l 1
 307 770 l 1
 214 770 l 1
372 -16 m 0
 178 -16 43 122 43 354 c 0
 43 582 174 726 373 726 c 0
 554 726 651 631 682 470 c 1
 546 463 l 1
 528 556 471 613 373 613 c 0
 252 613 177 512 177 354 c 0
 177 194 254 97 372 97 c 0
 478 97 534 158 550 260 c 1
 686 253 l 1
 658 86 551 -16 372 -16 c 0
EndSplineSet
EndChar

StartChar: Cdotaccent
Encoding: 266 266 19
Width: 724
GlyphClass: 2
Flags: MW
HStem: -16 113<313 425 313 461.5> 613 113<312.5 422> 781 114<306 438 306 438>
VStem: 43 134<274 433 274 468> 306 132<781 895 781 895>
AnchorPoint: "Anchor-3" 372 710 basechar 0
AnchorPoint: "Anchor-0" 374 0 basechar 0
LayerCount: 2
Fore
SplineSet
306 781 m 1
 306 895 l 1
 438 895 l 1
 438 781 l 1
 306 781 l 1
372 -16 m 0
 178 -16 43 122 43 354 c 0
 43 582 174 726 373 726 c 0
 554 726 651 631 682 470 c 1
 546 463 l 1
 528 556 471 613 373 613 c 0
 252 613 177 512 177 354 c 0
 177 194 254 97 372 97 c 0
 478 97 534 158 550 260 c 1
 686 253 l 1
 658 86 551 -16 372 -16 c 0
EndSplineSet
Substitution2: "'ss08' Style Set 8 in Latin lookup 41 subtable" Cdotaccent.ss08
Substitution2: "'aalt' Access All Alternates in Latin lookup 0 subtable" Cdotaccent.ss08
EndChar

StartChar: D
Encoding: 68 68 20
Width: 712
GlyphClass: 2
Flags: MW
HStem: 0 113<210 316 316 322> 597 113<210 316 210 210>
VStem: 80 130<113 113 113 597> 535 134<273 436>
AnchorPoint: "Anchor-3" 325 710 basechar 0
AnchorPoint: "Anchor-1" 206 355 basechar 0
AnchorPoint: "Anchor-0" 325 0 basechar 0
LayerCount: 2
Fore
SplineSet
80 0 m 1
 80 710 l 1
 316 710 l 2
 542 710 669 582 669 354 c 0
 669 127 545 0 322 0 c 2
 80 0 l 1
210 113 m 1
 316 113 l 2
 464 113 535 192 535 354 c 0
 535 518 464 597 316 597 c 2
 210 597 l 1
 210 113 l 1
EndSplineSet
EndChar

StartChar: Dcaron
Encoding: 270 270 21
Width: 712
GlyphClass: 2
Flags: MW
HStem: 0 113<210 316 316 322> 597 113<210 316 210 210> 770 146<167 388 167 261>
VStem: 80 130<113 113 113 597> 535 134<273 436>
AnchorPoint: "Anchor-3" 325 710 basechar 0
AnchorPoint: "Anchor-1" 206 355 basechar 0
AnchorPoint: "Anchor-0" 325 0 basechar 0
LayerCount: 2
Fore
SplineSet
167 916 m 1
 260 916 l 1
 325 827 l 1
 389 916 l 1
 482 916 l 1
 388 770 l 1
 261 770 l 1
 167 916 l 1
80 0 m 1
 80 710 l 1
 316 710 l 2
 542 710 669 582 669 354 c 0
 669 127 545 0 322 0 c 2
 80 0 l 1
210 113 m 1
 316 113 l 2
 464 113 535 192 535 354 c 0
 535 518 464 597 316 597 c 2
 210 597 l 1
 210 113 l 1
EndSplineSet
EndChar

StartChar: Dcroat
Encoding: 272 272 22
Width: 712
GlyphClass: 2
Flags: MW
HStem: 0 113<210 316 316 322> 304 102<12 80 12 80 210 400> 597 113<210 316 210 210>
VStem: 80 130<113 113 113 304 406 597> 535 134<273 436>
AnchorPoint: "Anchor-3" 325 710 basechar 0
AnchorPoint: "Anchor-1" 206 355 basechar 0
AnchorPoint: "Anchor-0" 325 0 basechar 0
LayerCount: 2
Fore
SplineSet
80 0 m 1
 80 304 l 1
 12 304 l 1
 12 406 l 1
 80 406 l 1
 80 710 l 1
 316 710 l 2
 542 710 669 582 669 354 c 0
 669 127 545 0 322 0 c 2
 80 0 l 1
210 113 m 1
 316 113 l 2
 464 113 535 192 535 354 c 0
 535 518 464 597 316 597 c 2
 210 597 l 1
 210 406 l 1
 400 406 l 1
 400 304 l 1
 210 304 l 1
 210 113 l 1
EndSplineSet
EndChar

StartChar: Eth
Encoding: 208 208 23
Width: 712
GlyphClass: 2
Flags: MW
HStem: 0 113<210 316 316 322> 304 102<12 80 12 80 210 400> 597 113<210 316 210 210>
VStem: 80 130<113 113 113 304 406 597> 535 134<273 436>
AnchorPoint: "Anchor-3" 325 710 basechar 0
AnchorPoint: "Anchor-1" 206 355 basechar 0
AnchorPoint: "Anchor-0" 325 0 basechar 0
LayerCount: 2
Fore
SplineSet
80 0 m 1
 80 304 l 1
 12 304 l 1
 12 406 l 1
 80 406 l 1
 80 710 l 1
 316 710 l 2
 542 710 669 582 669 354 c 0
 669 127 545 0 322 0 c 2
 80 0 l 1
210 113 m 1
 316 113 l 2
 464 113 535 192 535 354 c 0
 535 518 464 597 316 597 c 2
 210 597 l 1
 210 406 l 1
 400 406 l 1
 400 304 l 1
 210 304 l 1
 210 113 l 1
EndSplineSet
EndChar

StartChar: E
Encoding: 69 69 24
Width: 615
GlyphClass: 2
Flags: MW
HStem: 0 113<210 566 210 566> 300 112<210 546 210 546> 597 113<210 558 210 210>
VStem: 80 130<113 300 412 597>
AnchorPoint: "Anchor-3" 320 710 basechar 0
AnchorPoint: "Anchor-2" 566 0 basechar 0
AnchorPoint: "Anchor-0" 321 0 basechar 0
LayerCount: 2
Fore
SplineSet
80 0 m 1
 80 710 l 1
 558 710 l 1
 558 597 l 1
 210 597 l 1
 210 412 l 1
 546 412 l 1
 546 300 l 1
 210 300 l 1
 210 113 l 1
 566 113 l 1
 566 0 l 1
 80 0 l 1
EndSplineSet
EndChar

StartChar: Eacute
Encoding: 201 201 25
Width: 615
GlyphClass: 2
Flags: MW
HStem: 0 113<210 566 210 566> 300 112<210 546 210 546> 597 113<210 558 210 210> 770 140<262 452 324 362>
VStem: 80 130<113 300 412 597>
AnchorPoint: "Anchor-3" 320 710 basechar 0
AnchorPoint: "Anchor-2" 566 0 basechar 0
AnchorPoint: "Anchor-0" 321 0 basechar 0
LayerCount: 2
Fore
SplineSet
262 770 m 1
 324 910 l 1
 452 910 l 1
 362 770 l 1
 262 770 l 1
80 0 m 1
 80 710 l 1
 558 710 l 1
 558 597 l 1
 210 597 l 1
 210 412 l 1
 546 412 l 1
 546 300 l 1
 210 300 l 1
 210 113 l 1
 566 113 l 1
 566 0 l 1
 80 0 l 1
EndSplineSet
EndChar

StartChar: Ecaron
Encoding: 282 282 26
Width: 615
GlyphClass: 2
Flags: MW
HStem: 0 113<210 566 210 566> 300 112<210 546 210 546> 597 113<210 558 210 210> 770 146<162 384 162 256>
VStem: 80 130<113 300 412 597>
AnchorPoint: "Anchor-3" 320 710 basechar 0
AnchorPoint: "Anchor-2" 566 0 basechar 0
AnchorPoint: "Anchor-0" 321 0 basechar 0
LayerCount: 2
Fore
SplineSet
162 916 m 1
 256 916 l 1
 320 827 l 1
 385 916 l 1
 478 916 l 1
 384 770 l 1
 256 770 l 1
 162 916 l 1
80 0 m 1
 80 710 l 1
 558 710 l 1
 558 597 l 1
 210 597 l 1
 210 412 l 1
 546 412 l 1
 546 300 l 1
 210 300 l 1
 210 113 l 1
 566 113 l 1
 566 0 l 1
 80 0 l 1
EndSplineSet
EndChar

StartChar: Ecircumflex
Encoding: 202 202 27
Width: 615
GlyphClass: 2
Flags: MW
HStem: 0 113<210 566 210 566> 300 112<210 546 210 546> 597 113<210 558 210 210> 770 146<162 384 162 384 256 385 256 478>
VStem: 80 130<113 300 412 597>
AnchorPoint: "Anchor-3" 320 710 basechar 0
AnchorPoint: "Anchor-2" 566 0 basechar 0
AnchorPoint: "Anchor-0" 321 0 basechar 0
LayerCount: 2
Fore
SplineSet
162 770 m 1
 256 916 l 1
 384 916 l 1
 478 770 l 1
 385 770 l 1
 320 859 l 1
 256 770 l 1
 162 770 l 1
80 0 m 1
 80 710 l 1
 558 710 l 1
 558 597 l 1
 210 597 l 1
 210 412 l 1
 546 412 l 1
 546 300 l 1
 210 300 l 1
 210 113 l 1
 566 113 l 1
 566 0 l 1
 80 0 l 1
EndSplineSet
EndChar

StartChar: Edieresis
Encoding: 203 203 28
Width: 615
GlyphClass: 2
Flags: MW
HStem: 0 113<210 566 210 566> 300 112<210 546 210 546> 597 113<210 558 210 210> 780 113<157 282 157 282 358 483 157 358>
VStem: 80 130<113 300 412 597> 157 125<780 893 780 893> 358 125<780 893 780 893>
AnchorPoint: "Anchor-3" 320 710 basechar 0
AnchorPoint: "Anchor-2" 566 0 basechar 0
AnchorPoint: "Anchor-0" 321 0 basechar 0
LayerCount: 2
Fore
SplineSet
157 780 m 1xf6
 157 893 l 1
 282 893 l 1
 282 780 l 1
 157 780 l 1xf6
358 780 m 1
 358 893 l 1
 483 893 l 1
 483 780 l 1
 358 780 l 1
80 0 m 1xfa
 80 710 l 1
 558 710 l 1
 558 597 l 1
 210 597 l 1
 210 412 l 1
 546 412 l 1
 546 300 l 1
 210 300 l 1
 210 113 l 1
 566 113 l 1
 566 0 l 1
 80 0 l 1xfa
EndSplineSet
Substitution2: "'ss08' Style Set 8 in Latin lookup 41 subtable" Edieresis.ss08
Substitution2: "'aalt' Access All Alternates in Latin lookup 0 subtable" Edieresis.ss08
EndChar

StartChar: Edotaccent
Encoding: 278 278 29
Width: 615
GlyphClass: 2
Flags: MW
HStem: 0 113<210 566 210 566> 300 112<210 546 210 546> 597 113<210 558 210 210> 781 114<254 387 254 387>
VStem: 80 130<113 300 412 597> 254 133<781 895 781 895>
AnchorPoint: "Anchor-3" 320 710 basechar 0
AnchorPoint: "Anchor-2" 566 0 basechar 0
AnchorPoint: "Anchor-0" 321 0 basechar 0
LayerCount: 2
Fore
SplineSet
254 781 m 1
 254 895 l 1
 387 895 l 1
 387 781 l 1
 254 781 l 1
80 0 m 1
 80 710 l 1
 558 710 l 1
 558 597 l 1
 210 597 l 1
 210 412 l 1
 546 412 l 1
 546 300 l 1
 210 300 l 1
 210 113 l 1
 566 113 l 1
 566 0 l 1
 80 0 l 1
EndSplineSet
Substitution2: "'ss08' Style Set 8 in Latin lookup 41 subtable" Edotaccent.ss08
Substitution2: "'aalt' Access All Alternates in Latin lookup 0 subtable" Edotaccent.ss08
EndChar

StartChar: Egrave
Encoding: 200 200 30
Width: 615
GlyphClass: 2
Flags: MW
HStem: 0 113<210 566 210 566> 300 112<210 546 210 546> 597 113<210 558 210 210> 775 141<278 278 278 316 188 378>
VStem: 80 130<113 300 412 597>
AnchorPoint: "Anchor-3" 320 710 basechar 0
AnchorPoint: "Anchor-2" 566 0 basechar 0
AnchorPoint: "Anchor-0" 321 0 basechar 0
LayerCount: 2
Fore
SplineSet
278 775 m 1
 188 916 l 1
 316 916 l 1
 378 775 l 1
 278 775 l 1
80 0 m 1
 80 710 l 1
 558 710 l 1
 558 597 l 1
 210 597 l 1
 210 412 l 1
 546 412 l 1
 546 300 l 1
 210 300 l 1
 210 113 l 1
 566 113 l 1
 566 0 l 1
 80 0 l 1
EndSplineSet
EndChar

StartChar: Emacron
Encoding: 274 274 31
Width: 615
GlyphClass: 2
Flags: MW
HStem: 0 113<210 566 210 566> 300 112<210 546 210 546> 597 113<210 558 210 210> 789 97<176 465 176 465>
VStem: 80 130<113 300 412 597> 176 289<789 886 789 886>
AnchorPoint: "Anchor-3" 320 710 basechar 0
AnchorPoint: "Anchor-2" 566 0 basechar 0
AnchorPoint: "Anchor-0" 321 0 basechar 0
LayerCount: 2
Fore
SplineSet
176 789 m 1xf4
 176 886 l 1
 465 886 l 1
 465 789 l 1
 176 789 l 1xf4
80 0 m 1xf8
 80 710 l 1
 558 710 l 1
 558 597 l 1
 210 597 l 1
 210 412 l 1
 546 412 l 1
 546 300 l 1
 210 300 l 1
 210 113 l 1
 566 113 l 1
 566 0 l 1
 80 0 l 1xf8
EndSplineSet
EndChar

StartChar: Eogonek
Encoding: 280 280 32
Width: 615
GlyphClass: 2
Flags: MW
HStem: -215 83<522.5 523> 0 113<210 464 210 566> 300 112<210 546 210 546> 597 113<210 558 210 210>
VStem: 80 130<113 300 412 597> 396 107<-115.5 -114.5>
AnchorPoint: "Anchor-3" 320 710 basechar 0
AnchorPoint: "Anchor-2" 566 0 basechar 0
AnchorPoint: "Anchor-0" 321 0 basechar 0
LayerCount: 2
Fore
SplineSet
80 0 m 1
 80 710 l 1
 558 710 l 1
 558 597 l 1
 210 597 l 1
 210 412 l 1
 546 412 l 1
 546 300 l 1
 210 300 l 1
 210 113 l 1
 566 113 l 1
 566 0 l 1
 534 -42 l 2
 513 -72 503 -91 503 -107 c 0
 503 -124 515 -132 530 -132 c 0
 548 -132 565 -127 576 -119 c 1
 602 -189 l 1
 585 -203 543 -215 503 -215 c 0
 436 -215 396 -187 396 -134 c 0
 396 -95 423 -55 448 -20 c 2
 464 0 l 1
 80 0 l 1
EndSplineSet
EndChar

StartChar: uni1EBC
Encoding: 7868 7868 33
Width: 615
GlyphClass: 2
Flags: MW
HStem: 0 113<210 566 210 566> 300 112<210 546 210 546> 597 113<210 558 210 210> 773 134<153 274 153 274> 780 78<373.5 391 373.5 411> 780 136<362.5 486> 829 78<249.5 268>
VStem: 80 130<113 300 412 597> 153 67<773 773> 419 67<916 916>
AnchorPoint: "Anchor-3" 320 710 basechar 0
AnchorPoint: "Anchor-2" 566 0 basechar 0
AnchorPoint: "Anchor-0" 321 0 basechar 0
LayerCount: 2
Fore
SplineSet
377 780 m 0xe540
 348 780 328 788 303 808 c 0
 285 823 276 829 260 829 c 0xe280
 239 829 223 817 220 773 c 1xf080
 153 773 l 1
 154 857 194 907 258 907 c 0xe280
 290 907 313 898 338 878 c 0
 356 863 367 858 380 858 c 0xe940
 402 858 416 870 419 916 c 1
 486 916 l 1
 484 831 445 780 377 780 c 0xe540
80 0 m 1xe1
 80 710 l 1
 558 710 l 1
 558 597 l 1
 210 597 l 1
 210 412 l 1
 546 412 l 1
 546 300 l 1
 210 300 l 1
 210 113 l 1
 566 113 l 1
 566 0 l 1
 80 0 l 1xe1
EndSplineSet
EndChar

StartChar: uni018F
Encoding: 399 399 34
Width: 743
GlyphClass: 1
Flags: MW
HStem: -16 113<315.5 418.5 315.5 458> 292 107<182 563 182 182> 613 113<328.5 417>
VStem: 564 136<399 399>
LayerCount: 2
Fore
SplineSet
700 355 m 0
 700 115 552 -16 364 -16 c 0
 195 -16 43 106 43 346 c 2
 43 399 l 1
 564 399 l 1
 552 535 470 613 364 613 c 0
 293 613 233 573 201 495 c 1
 64 504 l 1
 107 641 217 726 364 726 c 0
 564 726 700 588 700 355 c 0
365 97 m 0
 472 97 549 164 563 292 c 1
 182 292 l 1
 201 161 266 97 365 97 c 0
EndSplineSet
EndChar

StartChar: F
Encoding: 70 70 35
Width: 600
GlyphClass: 1
Flags: MW
HStem: 0 21G<80 80 80 210> 291 112<210 537 210 537> 597 113<210 555 210 210>
VStem: 80 130<0 291 403 597>
LayerCount: 2
Fore
SplineSet
80 0 m 1
 80 710 l 1
 555 710 l 1
 555 597 l 1
 210 597 l 1
 210 403 l 1
 537 403 l 1
 537 291 l 1
 210 291 l 1
 210 0 l 1
 80 0 l 1
EndSplineSet
EndChar

StartChar: G
Encoding: 71 71 36
Width: 726
GlyphClass: 2
Flags: MW
HStem: -16 113<307.5 417> 0 21G<594 678 594 594> 265 101<376 551 376 678> 613 113<307 426>
VStem: 43 134<280 426 280 460.5> 551 127<265 265> 591 87
AnchorPoint: "Anchor-3" 375 710 basechar 0
AnchorPoint: "Anchor-0" 378 0 basechar 0
LayerCount: 2
Fore
SplineSet
367 -16 m 0xba
 164 -16 43 137 43 354 c 0
 43 567 166 726 374 726 c 0
 554 726 646 627 676 482 c 1
 540 475 l 1
 525 558 477 613 375 613 c 0
 239 613 177 498 177 354 c 0
 177 206 239 97 376 97 c 0
 481 97 546 170 551 265 c 1xbc
 376 265 l 1
 376 366 l 1
 678 366 l 1
 678 0 l 1
 594 0 l 1x7a
 588 107 l 1
 552 33 467 -16 367 -16 c 0xba
EndSplineSet
Substitution2: "'ss06' Style Set 6 in Latin lookup 39 subtable" G.ss06
Substitution2: "'aalt' Access All Alternates in Latin lookup 0 subtable" G.ss06
EndChar

StartChar: Gbreve
Encoding: 286 286 37
Width: 726
GlyphClass: 2
Flags: MW
HStem: -16 113<307.5 417> 0 21G<594 678 594 594> 265 101<376 551 376 678> 613 113<307 426> 771 76<354 396 354 419.5>
VStem: 43 134<280 426 280 460.5> 551 127<265 265> 591 87
AnchorPoint: "Anchor-3" 375 710 basechar 0
AnchorPoint: "Anchor-0" 378 0 basechar 0
LayerCount: 2
Fore
SplineSet
375 771 m 0xbd
 286 771 228 824 224 912 c 1
 301 912 l 1
 306 866 333 847 375 847 c 0
 417 847 443 866 448 912 c 1
 525 912 l 1
 521 824 464 771 375 771 c 0xbd
367 -16 m 0
 164 -16 43 137 43 354 c 0
 43 567 166 726 374 726 c 0
 554 726 646 627 676 482 c 1
 540 475 l 1
 525 558 477 613 375 613 c 0
 239 613 177 498 177 354 c 0
 177 206 239 97 376 97 c 0
 481 97 546 170 551 265 c 1xbe
 376 265 l 1
 376 366 l 1
 678 366 l 1
 678 0 l 1
 594 0 l 1x7d
 588 107 l 1
 552 33 467 -16 367 -16 c 0
EndSplineSet
Substitution2: "'ss06' Style Set 6 in Latin lookup 39 subtable" Gbreve.ss06
Substitution2: "'aalt' Access All Alternates in Latin lookup 0 subtable" Gbreve.ss06
EndChar

StartChar: Gcaron
Encoding: 486 486 38
Width: 726
GlyphClass: 2
Flags: MW
HStem: -16 113<307.5 417> 0 21G<594 678 594 594> 265 101<376 551 376 678> 613 113<307 426> 770 146<217 439 217 311>
VStem: 43 134<280 426 280 460.5> 551 127<265 265> 591 87
AnchorPoint: "Anchor-3" 375 710 basechar 0
AnchorPoint: "Anchor-0" 378 0 basechar 0
LayerCount: 2
Fore
SplineSet
217 916 m 1xbd
 310 916 l 1
 375 827 l 1
 439 916 l 1
 533 916 l 1
 439 770 l 1
 311 770 l 1
 217 916 l 1xbd
367 -16 m 0
 164 -16 43 137 43 354 c 0
 43 567 166 726 374 726 c 0
 554 726 646 627 676 482 c 1
 540 475 l 1
 525 558 477 613 375 613 c 0
 239 613 177 498 177 354 c 0
 177 206 239 97 376 97 c 0
 481 97 546 170 551 265 c 1xbe
 376 265 l 1
 376 366 l 1
 678 366 l 1
 678 0 l 1
 594 0 l 1x7d
 588 107 l 1
 552 33 467 -16 367 -16 c 0
EndSplineSet
EndChar

StartChar: Gcircumflex
Encoding: 284 284 39
Width: 726
GlyphClass: 2
Flags: MW
HStem: -16 113<307.5 417> 0 21G<594 678 594 594> 265 101<376 551 376 678> 613 113<307 426> 770 146<217 439 217 439 311 439 311 533>
VStem: 43 134<280 426 280 460.5> 551 127<265 265> 591 87
AnchorPoint: "Anchor-3" 375 710 basechar 0
AnchorPoint: "Anchor-0" 378 0 basechar 0
LayerCount: 2
Fore
SplineSet
217 770 m 1xbd
 311 916 l 1
 439 916 l 1
 533 770 l 1
 439 770 l 1
 375 859 l 1
 310 770 l 1
 217 770 l 1xbd
367 -16 m 0
 164 -16 43 137 43 354 c 0
 43 567 166 726 374 726 c 0
 554 726 646 627 676 482 c 1
 540 475 l 1
 525 558 477 613 375 613 c 0
 239 613 177 498 177 354 c 0
 177 206 239 97 376 97 c 0
 481 97 546 170 551 265 c 1xbe
 376 265 l 1
 376 366 l 1
 678 366 l 1
 678 0 l 1
 594 0 l 1x7d
 588 107 l 1
 552 33 467 -16 367 -16 c 0
EndSplineSet
Substitution2: "'ss06' Style Set 6 in Latin lookup 39 subtable" Gcircumflex.ss06
Substitution2: "'aalt' Access All Alternates in Latin lookup 0 subtable" Gcircumflex.ss06
EndChar

StartChar: uni0122
Encoding: 290 290 40
Width: 726
GlyphClass: 2
Flags: MW
HStem: -158 108<318 353 318 438> -16 113<307.5 417> 0 21G<594 678 594 594> 265 101<376 551 376 678> 613 113<307 426>
VStem: 43 134<280 426 280 460.5> 318 120<-147 -50 -147 -50 -147 -50> 551 127<265 265> 591 87
AnchorPoint: "Anchor-3" 375 710 basechar 0
AnchorPoint: "Anchor-0" 378 -249 basechar 0
LayerCount: 2
Fore
SplineSet
367 -16 m 0xde80
 164 -16 43 137 43 354 c 0
 43 567 166 726 374 726 c 0
 554 726 646 627 676 482 c 1
 540 475 l 1
 525 558 477 613 375 613 c 0
 239 613 177 498 177 354 c 0
 177 206 239 97 376 97 c 0
 481 97 546 170 551 265 c 1xdf
 376 265 l 1
 376 366 l 1
 678 366 l 1
 678 0 l 1
 594 0 l 1xbe80
 588 107 l 1
 552 33 467 -16 367 -16 c 0xde80
300 -249 m 1
 353 -158 l 1
 318 -158 l 1
 318 -50 l 1
 438 -50 l 1
 438 -147 l 1
 378 -249 l 1
 300 -249 l 1
EndSplineSet
Substitution2: "'ss06' Style Set 6 in Latin lookup 39 subtable" uni0122.ss06
Substitution2: "'aalt' Access All Alternates in Latin lookup 0 subtable" uni0122.ss06
EndChar

StartChar: Gdotaccent
Encoding: 288 288 41
Width: 726
GlyphClass: 2
Flags: MW
HStem: -16 113<307.5 417> 0 21G<594 678 594 594> 265 101<376 551 376 678> 613 113<307 426> 781 114<308 441 308 441>
VStem: 43 134<280 426 280 460.5> 308 133<781 895 781 895> 551 127<265 265> 591 87
AnchorPoint: "Anchor-3" 375 710 basechar 0
AnchorPoint: "Anchor-0" 378 0 basechar 0
LayerCount: 2
Fore
SplineSet
308 781 m 1xbe80
 308 895 l 1
 441 895 l 1
 441 781 l 1
 308 781 l 1xbe80
367 -16 m 0
 164 -16 43 137 43 354 c 0
 43 567 166 726 374 726 c 0
 554 726 646 627 676 482 c 1
 540 475 l 1
 525 558 477 613 375 613 c 0
 239 613 177 498 177 354 c 0
 177 206 239 97 376 97 c 0
 481 97 546 170 551 265 c 1xbf
 376 265 l 1
 376 366 l 1
 678 366 l 1
 678 0 l 1
 594 0 l 1x7e80
 588 107 l 1
 552 33 467 -16 367 -16 c 0
EndSplineSet
Substitution2: "'ss08' Style Set 8 in Latin lookup 41 subtable" Gdotaccent.ss08
Substitution2: "'ss06' Style Set 6 in Latin lookup 39 subtable" Gdotaccent.ss06
AlternateSubs2: "'aalt' Access All Alternates in Latin lookup 1 subtable" Gdotaccent.ss06 Gdotaccent.ss08
EndChar

StartChar: uni1E20
Encoding: 7712 7712 42
Width: 726
GlyphClass: 2
Flags: MW
HStem: -16 113<307.5 417> 0 21G<594 678 594 594> 265 101<376 551 376 678> 613 113<307 426> 789 97<230 519 230 519>
VStem: 43 134<280 426 280 460.5> 230 289<789 886 789 886> 551 127<265 265> 591 87
AnchorPoint: "Anchor-3" 375 710 basechar 0
AnchorPoint: "Anchor-0" 378 0 basechar 0
LayerCount: 2
Fore
SplineSet
230 789 m 1xbe80
 230 886 l 1
 519 886 l 1
 519 789 l 1
 230 789 l 1xbe80
367 -16 m 0
 164 -16 43 137 43 354 c 0
 43 567 166 726 374 726 c 0
 554 726 646 627 676 482 c 1
 540 475 l 1
 525 558 477 613 375 613 c 0
 239 613 177 498 177 354 c 0
 177 206 239 97 376 97 c 0
 481 97 546 170 551 265 c 1xbd
 376 265 l 1
 376 366 l 1
 678 366 l 1
 678 0 l 1
 594 0 l 1x7c80
 588 107 l 1
 552 33 467 -16 367 -16 c 0
EndSplineSet
Substitution2: "'ss06' Style Set 6 in Latin lookup 39 subtable" uni1E20.ss06
Substitution2: "'aalt' Access All Alternates in Latin lookup 0 subtable" uni1E20.ss06
EndChar

StartChar: uni01E4
Encoding: 484 484 43
Width: 768
GlyphClass: 2
Flags: MW
HStem: -16 113<306 406 306 442.5> 162 72<376 517 376 546 671 730> 282 84<376 551 376 678> 613 113<306.5 427.5>
VStem: 43 134<279.5 426 279.5 459> 551 127<273.5 323>
AnchorPoint: "Anchor-3" 378 710 basechar 0
AnchorPoint: "Anchor-0" 378 0 basechar 0
LayerCount: 2
Fore
SplineSet
374 -16 m 0
 156 -16 43 145 43 354 c 0
 43 564 163 726 378 726 c 0
 547 726 647 632 676 482 c 1
 540 475 l 1
 525 556 479 613 376 613 c 0
 237 613 177 498 177 354 c 0
 177 205 240 97 372 97 c 0
 440 97 488 120 517 162 c 1
 376 162 l 1
 376 234 l 1
 546 234 l 1
 549 249 551 265 551 282 c 1
 376 282 l 1
 376 366 l 1
 678 366 l 1
 678 323 l 2
 678 291 675 261 671 234 c 1
 730 234 l 1
 730 162 l 1
 652 162 l 1
 608 45 511 -16 374 -16 c 0
EndSplineSet
EndChar

StartChar: H
Encoding: 72 72 44
Width: 718
GlyphClass: 2
Flags: MW
HStem: 0 21G<80 80 80 210 509 509 509 639> 301 113<210 509 210 509> 690 20G<80 210 210 210 509 639 639 639>
VStem: 80 130<0 301 414 710> 509 130<0 301 301 301 414 710 0 710>
AnchorPoint: "Anchor-3" 359 710 basechar 0
AnchorPoint: "Anchor-1" 359 573 basechar 0
AnchorPoint: "Anchor-0" 359 0 basechar 0
LayerCount: 2
Fore
SplineSet
80 0 m 1
 80 710 l 1
 210 710 l 1
 210 414 l 1
 509 414 l 1
 509 710 l 1
 639 710 l 1
 639 0 l 1
 509 0 l 1
 509 301 l 1
 210 301 l 1
 210 0 l 1
 80 0 l 1
EndSplineSet
EndChar

StartChar: Hbar
Encoding: 294 294 45
Width: 719
GlyphClass: 2
Flags: MW
HStem: 0 21G<80 80 80 210 509 509 509 639> 301 113<210 509 210 509> 522 101<7 80 7 80 210 509 639 711> 522 188<7 210 7 210 80 210 80 509>
VStem: 80 130<0 301 414 522 623 710> 509 130<0 301 301 301 414 522 0 522 623 710>
AnchorPoint: "Anchor-3" 359 710 basechar 0
AnchorPoint: "Anchor-1" 359 573 basechar 0
AnchorPoint: "Anchor-0" 359 0 basechar 0
LayerCount: 2
Fore
SplineSet
80 0 m 1xdc
 80 522 l 1
 7 522 l 1xdc
 7 623 l 1
 80 623 l 1xec
 80 710 l 1
 210 710 l 1xdc
 210 623 l 1
 509 623 l 1xec
 509 710 l 1
 639 710 l 1xdc
 639 623 l 1
 711 623 l 1xec
 711 522 l 1
 639 522 l 1
 639 0 l 1
 509 0 l 1
 509 301 l 1
 210 301 l 1
 210 0 l 1
 80 0 l 1xdc
210 414 m 1
 509 414 l 1
 509 522 l 1
 210 522 l 1
 210 414 l 1
EndSplineSet
EndChar

StartChar: Hcircumflex
Encoding: 292 292 46
Width: 719
GlyphClass: 2
Flags: MW
HStem: 0 21G<80 80 80 210 509 509 509 639> 301 113<210 509 210 509> 690 20G<80 210 210 210 509 639 639 639> 770 146<202 423 202 423 296 424 296 517>
VStem: 80 130<0 301 414 710> 509 130<0 301 301 301 414 710 0 710>
AnchorPoint: "Anchor-3" 359 710 basechar 0
AnchorPoint: "Anchor-1" 359 573 basechar 0
AnchorPoint: "Anchor-0" 359 0 basechar 0
LayerCount: 2
Fore
SplineSet
202 770 m 1
 296 916 l 1
 423 916 l 1
 517 770 l 1
 424 770 l 1
 359 859 l 1
 295 770 l 1
 202 770 l 1
80 0 m 1
 80 710 l 1
 210 710 l 1
 210 414 l 1
 509 414 l 1
 509 710 l 1
 639 710 l 1
 639 0 l 1
 509 0 l 1
 509 301 l 1
 210 301 l 1
 210 0 l 1
 80 0 l 1
EndSplineSet
EndChar

StartChar: I
Encoding: 73 73 47
Width: 290
GlyphClass: 2
Flags: MW
HStem: 0 21G<80 80 80 210> 690 20G<80 210 210 210>
VStem: 80 130<0 710 0 710>
AnchorPoint: "Anchor-3" 145 710 basechar 0
AnchorPoint: "Anchor-2" 210 0 basechar 0
AnchorPoint: "Anchor-0" 145 0 basechar 0
LayerCount: 2
Fore
SplineSet
80 0 m 1
 80 710 l 1
 210 710 l 1
 210 0 l 1
 80 0 l 1
EndSplineSet
Substitution2: "'ss05' Style Set 5 in Latin lookup 38 subtable" I.ss05
Substitution2: "'aalt' Access All Alternates in Latin lookup 0 subtable" I.ss05
EndChar

StartChar: IJ
Encoding: 306 306 48
Width: 891
GlyphClass: 2
Flags: MW
HStem: -16 113<541 615.5 541 653> 0 21G<80 80 80 210> 690 20G<80 210 210 210 696 826 826 826>
VStem: 80 130<0 710 0 710> 329 131<246 253> 696 130<253 710>
AnchorPoint: "Anchor-3" 762 710 basechar 0
AnchorPoint: "Anchor-2" 210 0 basechar 0
AnchorPoint: "Anchor-0" 145 0 basechar 0
LayerCount: 2
Fore
SplineSet
80 0 m 1x74
 80 710 l 1
 210 710 l 1
 210 0 l 1
 80 0 l 1x74
578 -16 m 0
 423 -16 330 94 329 246 c 1
 460 253 l 1
 462 149 504 97 578 97 c 0
 653 97 696 150 696 253 c 2
 696 710 l 1
 826 710 l 1
 826 253 l 2xbc
 826 88 728 -16 578 -16 c 0
EndSplineSet
EndChar

StartChar: Iacute
Encoding: 205 205 49
Width: 290
GlyphClass: 2
Flags: MW
HStem: 0 21G<80 80 80 210> 690 20G<80 210 210 210> 770 140<87 277 148 187>
VStem: 80 130<0 710 0 710>
AnchorPoint: "Anchor-3" 145 710 basechar 0
AnchorPoint: "Anchor-2" 210 0 basechar 0
AnchorPoint: "Anchor-0" 145 0 basechar 0
LayerCount: 2
Fore
SplineSet
87 770 m 1
 148 910 l 1
 277 910 l 1
 187 770 l 1
 87 770 l 1
80 0 m 1
 80 710 l 1
 210 710 l 1
 210 0 l 1
 80 0 l 1
EndSplineSet
Substitution2: "'ss05' Style Set 5 in Latin lookup 38 subtable" Iacute.ss05
Substitution2: "'aalt' Access All Alternates in Latin lookup 0 subtable" Iacute.ss05
EndChar

StartChar: Icircumflex
Encoding: 206 206 50
Width: 290
GlyphClass: 2
Flags: MW
HStem: 0 21G<80 80 80 210> 690 20G<80 210 210 210> 770 146<-13 209 -13 209 81 210 81 303>
VStem: 80 130<0 710 0 710 0 770>
AnchorPoint: "Anchor-3" 145 710 basechar 0
AnchorPoint: "Anchor-2" 210 0 basechar 0
AnchorPoint: "Anchor-0" 145 0 basechar 0
LayerCount: 2
Fore
SplineSet
-13 770 m 1
 81 916 l 1
 209 916 l 1
 303 770 l 1
 210 770 l 1
 145 859 l 1
 80 770 l 1
 -13 770 l 1
80 0 m 1
 80 710 l 1
 210 710 l 1
 210 0 l 1
 80 0 l 1
EndSplineSet
Substitution2: "'ss05' Style Set 5 in Latin lookup 38 subtable" Icircumflex.ss05
Substitution2: "'aalt' Access All Alternates in Latin lookup 0 subtable" Icircumflex.ss05
EndChar

StartChar: Idieresis
Encoding: 207 207 51
Width: 290
GlyphClass: 2
Flags: MW
HStem: 0 21G<80 80 80 210> 690 20G<80 210 210 210> 780 113<-18 107 -18 107 183 308 -18 183>
VStem: -18 125<780 893 780 893> 80 130<0 710 0 710> 183 125<780 893 780 893>
AnchorPoint: "Anchor-3" 145 710 basechar 0
AnchorPoint: "Anchor-2" 210 0 basechar 0
AnchorPoint: "Anchor-0" 145 0 basechar 0
LayerCount: 2
Fore
SplineSet
-18 780 m 1xf4
 -18 893 l 1
 107 893 l 1
 107 780 l 1
 -18 780 l 1xf4
183 780 m 1
 183 893 l 1
 308 893 l 1
 308 780 l 1
 183 780 l 1
80 0 m 1xe8
 80 710 l 1
 210 710 l 1
 210 0 l 1
 80 0 l 1xe8
EndSplineSet
Substitution2: "'ss08' Style Set 8 in Latin lookup 41 subtable" Idieresis.ss08
Substitution2: "'ss05' Style Set 5 in Latin lookup 38 subtable" Idieresis.ss05
AlternateSubs2: "'aalt' Access All Alternates in Latin lookup 1 subtable" Idieresis.ss05 Idieresis.ss08
EndChar

StartChar: Idotaccent
Encoding: 304 304 52
Width: 290
GlyphClass: 2
Flags: MW
HStem: 0 21G<80 80 80 210> 690 20G<80 210 210 210> 781 114<79 211 79 211>
VStem: 79 131<0 895> 80 130<0 710 0 710> 80 131<0 895 710 895>
AnchorPoint: "Anchor-3" 145 710 basechar 0
AnchorPoint: "Anchor-2" 210 0 basechar 0
AnchorPoint: "Anchor-0" 145 0 basechar 0
LayerCount: 2
Fore
SplineSet
79 781 m 1xf0
 79 895 l 1xf0
 211 895 l 1
 211 781 l 1xe4
 79 781 l 1xf0
80 0 m 1xe8
 80 710 l 1
 210 710 l 1
 210 0 l 1
 80 0 l 1xe8
EndSplineSet
Substitution2: "'ss08' Style Set 8 in Latin lookup 41 subtable" Idotaccent.ss08
Substitution2: "'ss05' Style Set 5 in Latin lookup 38 subtable" Idotaccent.ss05
AlternateSubs2: "'aalt' Access All Alternates in Latin lookup 1 subtable" Idotaccent.ss05 Idotaccent.ss08
EndChar

StartChar: Igrave
Encoding: 204 204 53
Width: 290
GlyphClass: 2
Flags: MW
HStem: 0 21G<80 80 80 210> 690 20G<80 210 210 210> 775 141<103 103 103 141 13 202>
VStem: 80 130<0 710 0 710>
AnchorPoint: "Anchor-3" 145 710 basechar 0
AnchorPoint: "Anchor-2" 210 0 basechar 0
AnchorPoint: "Anchor-0" 145 0 basechar 0
LayerCount: 2
Fore
SplineSet
103 775 m 1
 13 916 l 1
 141 916 l 1
 202 775 l 1
 103 775 l 1
80 0 m 1
 80 710 l 1
 210 710 l 1
 210 0 l 1
 80 0 l 1
EndSplineSet
Substitution2: "'ss05' Style Set 5 in Latin lookup 38 subtable" Igrave.ss05
Substitution2: "'aalt' Access All Alternates in Latin lookup 0 subtable" Igrave.ss05
EndChar

StartChar: Imacron
Encoding: 298 298 54
Width: 290
GlyphClass: 2
Flags: MW
HStem: 0 21G<80 80 80 210> 690 20G<80 210 210 210> 789 97<1 289 1 289>
VStem: 80 130<0 710 0 710>
AnchorPoint: "Anchor-3" 145 710 basechar 0
AnchorPoint: "Anchor-2" 210 0 basechar 0
AnchorPoint: "Anchor-0" 145 0 basechar 0
LayerCount: 2
Fore
SplineSet
1 789 m 1
 1 886 l 1
 289 886 l 1
 289 789 l 1
 1 789 l 1
80 0 m 1
 80 710 l 1
 210 710 l 1
 210 0 l 1
 80 0 l 1
EndSplineSet
Substitution2: "'ss05' Style Set 5 in Latin lookup 38 subtable" Imacron.ss05
Substitution2: "'aalt' Access All Alternates in Latin lookup 0 subtable" Imacron.ss05
EndChar

StartChar: Iogonek
Encoding: 302 302 55
Width: 290
GlyphClass: 2
Flags: MW
HStem: -215 83<166.5 167> 0 21G<80 80 80 108 210 210> 690 20G<80 210 210 210>
VStem: 40 107<-115.5 -114.5> 80 67 80 130<0 710 0 710>
AnchorPoint: "Anchor-3" 145 710 basechar 0
AnchorPoint: "Anchor-2" 210 0 basechar 0
AnchorPoint: "Anchor-0" 145 0 basechar 0
LayerCount: 2
Fore
SplineSet
80 0 m 1xe4
 80 710 l 1
 210 710 l 1
 210 0 l 1xe4
 178 -42 l 2
 157 -72 147 -91 147 -107 c 0xe8
 147 -124 159 -132 174 -132 c 0
 192 -132 209 -127 220 -119 c 1
 246 -189 l 1
 229 -203 187 -215 147 -215 c 0
 80 -215 40 -187 40 -134 c 0xf0
 40 -95 67 -55 92 -20 c 2
 108 0 l 1
 80 0 l 1xe4
EndSplineSet
Substitution2: "'ss05' Style Set 5 in Latin lookup 38 subtable" Iogonek.ss05
Substitution2: "'aalt' Access All Alternates in Latin lookup 0 subtable" Iogonek.ss05
EndChar

StartChar: Itilde
Encoding: 296 296 56
Width: 290
GlyphClass: 2
Flags: MW
HStem: 0 21G<80 80 80 210> 690 20G<80 210 210 210> 773 134<-22 99 -22 99> 780 78<198.5 216 198.5 235.5> 780 136<187.5 311> 829 78<74.5 93>
VStem: -22 67<773 773> 80 130<0 710 0 710> 244 67<916 916>
AnchorPoint: "Anchor-3" 145 710 basechar 0
AnchorPoint: "Anchor-2" 210 0 basechar 0
AnchorPoint: "Anchor-0" 145 0 basechar 0
LayerCount: 2
Fore
SplineSet
202 780 m 0xc980
 173 780 152 788 128 808 c 0
 110 823 101 829 85 829 c 0xc7
 64 829 48 817 45 773 c 1xe3
 -22 773 l 1
 -21 857 19 907 83 907 c 0xc7
 115 907 138 898 163 878 c 0
 181 863 192 858 205 858 c 0xd180
 227 858 241 870 244 916 c 1
 311 916 l 1
 309 831 269 780 202 780 c 0xc980
80 0 m 1
 80 710 l 1
 210 710 l 1
 210 0 l 1
 80 0 l 1
EndSplineSet
Substitution2: "'ss05' Style Set 5 in Latin lookup 38 subtable" Itilde.ss05
Substitution2: "'aalt' Access All Alternates in Latin lookup 0 subtable" Itilde.ss05
EndChar

StartChar: J
Encoding: 74 74 57
Width: 617
GlyphClass: 2
Flags: MW
HStem: -16 113<267 341.5 267 379> 690 20G<422 552 552 552>
VStem: 55 131<246 253> 422 130<253 710>
AnchorPoint: "Anchor-3" 488 710 basechar 0
LayerCount: 2
Fore
SplineSet
304 -16 m 0
 149 -16 56 94 55 246 c 1
 186 253 l 1
 188 149 230 97 304 97 c 0
 379 97 422 150 422 253 c 2
 422 710 l 1
 552 710 l 1
 552 253 l 2
 552 88 454 -16 304 -16 c 0
EndSplineSet
Substitution2: "Single Substitution lookup 16 subtable" uni004A0301
Substitution2: "'aalt' Access All Alternates in Latin lookup 0 subtable" uni004A0301
EndChar

StartChar: uni004A0301
Encoding: 65537 -1 58
Width: 617
GlyphClass: 2
Flags: MW
HStem: -16 113<267 341.5 267 379> 690 20G<422 552 552 552> 770 140<430 619 491 529>
VStem: 55 131<246 253> 422 130<253 710>
AnchorPoint: "Anchor-3" 488 710 basechar 0
LayerCount: 2
Fore
SplineSet
430 770 m 1
 491 910 l 1
 619 910 l 1
 529 770 l 1
 430 770 l 1
304 -16 m 0
 149 -16 56 94 55 246 c 1
 186 253 l 1
 188 149 230 97 304 97 c 0
 379 97 422 150 422 253 c 2
 422 710 l 1
 552 710 l 1
 552 253 l 2
 552 88 454 -16 304 -16 c 0
EndSplineSet
EndChar

StartChar: Jcircumflex
Encoding: 308 308 59
Width: 617
GlyphClass: 2
Flags: MW
HStem: -16 113<267 341.5 267 379> 690 20G<422 552 552 552> 770 146<330 551 330 551 424 552 424 645>
VStem: 55 131<246 253> 422 130<253 710>
AnchorPoint: "Anchor-3" 488 710 basechar 0
LayerCount: 2
Fore
SplineSet
330 770 m 1
 424 916 l 1
 551 916 l 1
 645 770 l 1
 552 770 l 1
 488 859 l 1
 423 770 l 1
 330 770 l 1
304 -16 m 0
 149 -16 56 94 55 246 c 1
 186 253 l 1
 188 149 230 97 304 97 c 0
 379 97 422 150 422 253 c 2
 422 710 l 1
 552 710 l 1
 552 253 l 2
 552 88 454 -16 304 -16 c 0
EndSplineSet
EndChar

StartChar: K
Encoding: 75 75 60
Width: 672
GlyphClass: 2
Flags: MW
HStem: 0 21G<80 80 80 210 510 510 510 659> 690 20G<80 210 210 210 488 642 642 642>
VStem: 80 130<0 218 386 710>
AnchorPoint: "Anchor-3" 340 710 basechar 0
AnchorPoint: "Anchor-0" 354 0 basechar 0
LayerCount: 2
Fore
SplineSet
80 0 m 1
 80 710 l 1
 210 710 l 1
 210 386 l 1
 488 710 l 1
 642 710 l 1
 376 398 l 1
 659 0 l 1
 510 0 l 1
 290 309 l 1
 210 218 l 1
 210 0 l 1
 80 0 l 1
EndSplineSet
EndChar

StartChar: uni01E8
Encoding: 488 488 61
Width: 672
GlyphClass: 2
Flags: MW
HStem: 0 21G<80 80 80 210 510 510 510 659> 690 20G<80 210 210 210 488 642 642 642> 770 146<182 404 182 276>
VStem: 80 130<0 218 386 710>
AnchorPoint: "Anchor-3" 340 710 basechar 0
AnchorPoint: "Anchor-0" 354 0 basechar 0
LayerCount: 2
Fore
SplineSet
182 916 m 1
 275 916 l 1
 340 827 l 1
 405 916 l 1
 498 916 l 1
 404 770 l 1
 276 770 l 1
 182 916 l 1
80 0 m 1
 80 710 l 1
 210 710 l 1
 210 386 l 1
 488 710 l 1
 642 710 l 1
 376 398 l 1
 659 0 l 1
 510 0 l 1
 290 309 l 1
 210 218 l 1
 210 0 l 1
 80 0 l 1
EndSplineSet
EndChar

StartChar: uni0136
Encoding: 310 310 62
Width: 672
GlyphClass: 2
Flags: MW
HStem: -158 108<294 329 294 414> 0 21G<80 80 80 210 510 510 510 659> 690 20G<80 210 210 210 488 642 642 642>
VStem: 80 130<0 218 386 710> 294 120<-147 -50 -147 -50 -147 -50>
AnchorPoint: "Anchor-3" 340 710 basechar 0
AnchorPoint: "Anchor-0" 354 -249 basechar 0
LayerCount: 2
Fore
SplineSet
80 0 m 1
 80 710 l 1
 210 710 l 1
 210 386 l 1
 488 710 l 1
 642 710 l 1
 376 398 l 1
 659 0 l 1
 510 0 l 1
 290 309 l 1
 210 218 l 1
 210 0 l 1
 80 0 l 1
276 -249 m 1
 329 -158 l 1
 294 -158 l 1
 294 -50 l 1
 414 -50 l 1
 414 -147 l 1
 354 -249 l 1
 276 -249 l 1
EndSplineSet
EndChar

StartChar: L
Encoding: 76 76 63
Width: 586
GlyphClass: 2
Flags: MW
HStem: 0 113<210 547 210 547> 690 20G<80 210 210 210>
VStem: 80 130<113 710 113 710 113 710>
AnchorPoint: "Anchor-4" 368 534 basechar 0
AnchorPoint: "Anchor-3" 145 710 basechar 0
AnchorPoint: "Anchor-1" 180 380 basechar 0
AnchorPoint: "Anchor-0" 313 0 basechar 0
LayerCount: 2
Fore
SplineSet
80 0 m 1
 80 710 l 1
 210 710 l 1
 210 113 l 1
 547 113 l 1
 547 0 l 1
 80 0 l 1
EndSplineSet
EndChar

StartChar: Lacute
Encoding: 313 313 64
Width: 586
GlyphClass: 2
Flags: MW
HStem: 0 113<210 547 210 547> 690 20G<80 210 210 210> 770 140<87 277 148 187>
VStem: 80 130<113 710 113 710 113 710>
AnchorPoint: "Anchor-4" 368 534 basechar 0
AnchorPoint: "Anchor-3" 145 710 basechar 0
AnchorPoint: "Anchor-1" 180 380 basechar 0
AnchorPoint: "Anchor-0" 313 0 basechar 0
LayerCount: 2
Fore
SplineSet
87 770 m 1
 148 910 l 1
 277 910 l 1
 187 770 l 1
 87 770 l 1
80 0 m 1
 80 710 l 1
 210 710 l 1
 210 113 l 1
 547 113 l 1
 547 0 l 1
 80 0 l 1
EndSplineSet
EndChar

StartChar: Lcaron
Encoding: 317 317 65
Width: 586
GlyphClass: 2
Flags: MW
HStem: 0 113<210 547 210 547> 434 276<80 388 417 478> 690 20G<80 210 210 210 417 532 532 532>
VStem: 80 130<113 710 113 710 113 710>
AnchorPoint: "Anchor-4" 368 534 basechar 0
AnchorPoint: "Anchor-3" 145 710 basechar 0
AnchorPoint: "Anchor-1" 180 380 basechar 0
AnchorPoint: "Anchor-0" 313 0 basechar 0
LayerCount: 2
Fore
SplineSet
80 0 m 1xb0
 80 710 l 1
 210 710 l 1
 210 113 l 1
 547 113 l 1
 547 0 l 1
 80 0 l 1xb0
388 434 m 1xd0
 417 710 l 1
 532 710 l 1
 478 434 l 1
 388 434 l 1xd0
EndSplineSet
EndChar

StartChar: uni013B
Encoding: 315 315 66
Width: 586
GlyphClass: 2
Flags: MW
HStem: -158 108<253 289 253 373> 0 113<210 547 210 547> 690 20G<80 210 210 210>
VStem: 80 130<113 710 113 710 113 710> 253 120<-147 -50 -147 -50 -147 -50>
AnchorPoint: "Anchor-4" 368 534 basechar 0
AnchorPoint: "Anchor-3" 145 710 basechar 0
AnchorPoint: "Anchor-1" 180 380 basechar 0
AnchorPoint: "Anchor-0" 313 -249 basechar 0
LayerCount: 2
Fore
SplineSet
80 0 m 1
 80 710 l 1
 210 710 l 1
 210 113 l 1
 547 113 l 1
 547 0 l 1
 80 0 l 1
236 -249 m 1
 289 -158 l 1
 253 -158 l 1
 253 -50 l 1
 373 -50 l 1
 373 -147 l 1
 314 -249 l 1
 236 -249 l 1
EndSplineSet
Substitution2: "'locl' Localized Forms in Latin lookup 11 subtable" uni013B.loclMAH
Substitution2: "'aalt' Access All Alternates in Latin lookup 0 subtable" uni013B.loclMAH
EndChar

StartChar: Lslash
Encoding: 321 321 67
Width: 586
GlyphClass: 2
Flags: MW
HStem: 0 113<210 547 210 547> 690 20G<80 210 210 210>
VStem: 80 130<113 283 283 283 441 710>
AnchorPoint: "Anchor-4" 368 534 basechar 0
AnchorPoint: "Anchor-3" 145 710 basechar 0
AnchorPoint: "Anchor-1" 180 380 basechar 0
AnchorPoint: "Anchor-0" 313 0 basechar 0
LayerCount: 2
Fore
SplineSet
80 0 m 1
 80 283 l 1
 10 249 l 1
 10 342 l 1
 80 377 l 1
 80 710 l 1
 210 710 l 1
 210 441 l 1
 351 511 l 1
 351 417 l 1
 210 348 l 1
 210 113 l 1
 547 113 l 1
 547 0 l 1
 80 0 l 1
EndSplineSet
EndChar

StartChar: M
Encoding: 77 77 68
Width: 902
GlyphClass: 2
Flags: MW
HStem: 0 21G<80 80 80 210 692 692 692 822> 690 20G<80 255 255 255 647 822 822 822>
VStem: 80 130<0 490 0 710> 692 130<0 490 490 490>
AnchorPoint: "Anchor-3" 451 710 basechar 0
AnchorPoint: "Anchor-0" 451 0 basechar 0
LayerCount: 2
Fore
SplineSet
80 0 m 1
 80 710 l 1
 255 710 l 1
 451 160 l 1
 647 710 l 1
 822 710 l 1
 822 0 l 1
 692 0 l 1
 692 490 l 1
 513 1 l 1
 389 1 l 1
 210 490 l 1
 210 0 l 1
 80 0 l 1
EndSplineSet
EndChar

StartChar: N
Encoding: 78 78 69
Width: 748
GlyphClass: 2
Flags: MW
HStem: 0 21G<80 80 80 210 512 512 512 668> 690 20G<80 232 232 232 538 668 668 668>
VStem: 80 130<0 519 0 710> 538 130<176 710 0 710>
AnchorPoint: "Anchor-3" 383 710 basechar 0
AnchorPoint: "Anchor-0" 373 0 basechar 0
LayerCount: 2
Fore
SplineSet
80 0 m 1
 80 710 l 1
 232 710 l 1
 538 176 l 1
 538 710 l 1
 668 710 l 1
 668 0 l 1
 512 0 l 1
 210 519 l 1
 210 0 l 1
 80 0 l 1
EndSplineSet
EndChar

StartChar: Nacute
Encoding: 323 323 70
Width: 748
GlyphClass: 2
Flags: MW
HStem: 0 21G<80 80 80 210 512 512 512 668> 690 20G<80 232 232 232 538 668 668 668> 770 140<325 515 386 425>
VStem: 80 130<0 519 0 710> 538 130<176 710 0 710>
AnchorPoint: "Anchor-3" 383 710 basechar 0
AnchorPoint: "Anchor-0" 373 0 basechar 0
LayerCount: 2
Fore
SplineSet
325 770 m 1
 386 910 l 1
 515 910 l 1
 425 770 l 1
 325 770 l 1
80 0 m 1
 80 710 l 1
 232 710 l 1
 538 176 l 1
 538 710 l 1
 668 710 l 1
 668 0 l 1
 512 0 l 1
 210 519 l 1
 210 0 l 1
 80 0 l 1
EndSplineSet
EndChar

StartChar: Ncaron
Encoding: 327 327 71
Width: 748
GlyphClass: 2
Flags: MW
HStem: 0 21G<80 80 80 210 512 512 512 668> 690 20G<80 232 232 232 538 668 668 668> 770 146<225 447 225 319>
VStem: 80 130<0 519 0 710> 538 130<176 710 0 710>
AnchorPoint: "Anchor-3" 383 710 basechar 0
AnchorPoint: "Anchor-0" 373 0 basechar 0
LayerCount: 2
Fore
SplineSet
225 916 m 1
 318 916 l 1
 383 827 l 1
 447 916 l 1
 541 916 l 1
 447 770 l 1
 319 770 l 1
 225 916 l 1
80 0 m 1
 80 710 l 1
 232 710 l 1
 538 176 l 1
 538 710 l 1
 668 710 l 1
 668 0 l 1
 512 0 l 1
 210 519 l 1
 210 0 l 1
 80 0 l 1
EndSplineSet
EndChar

StartChar: uni0145
Encoding: 325 325 72
Width: 748
GlyphClass: 2
Flags: MW
HStem: -158 108<313 348 313 433> 0 21G<80 80 80 210 512 512 512 668> 690 20G<80 232 232 232 538 668 668 668>
VStem: 80 130<0 519 0 710> 313 120<-147 -50 -147 -50 -147 -50> 538 130<176 710 0 710>
AnchorPoint: "Anchor-3" 383 710 basechar 0
AnchorPoint: "Anchor-0" 373 -249 basechar 0
LayerCount: 2
Fore
SplineSet
80 0 m 1
 80 710 l 1
 232 710 l 1
 538 176 l 1
 538 710 l 1
 668 710 l 1
 668 0 l 1
 512 0 l 1
 210 519 l 1
 210 0 l 1
 80 0 l 1
295 -249 m 1
 348 -158 l 1
 313 -158 l 1
 313 -50 l 1
 433 -50 l 1
 433 -147 l 1
 373 -249 l 1
 295 -249 l 1
EndSplineSet
Substitution2: "'locl' Localized Forms in Latin lookup 11 subtable" uni0145.loclMAH
Substitution2: "'aalt' Access All Alternates in Latin lookup 0 subtable" uni0145.loclMAH
EndChar

StartChar: Ntilde
Encoding: 209 209 73
Width: 748
GlyphClass: 2
Flags: MW
HStem: 0 21G<80 80 80 210 512 512 512 668> 690 20G<80 232 232 232 538 668 668 668> 773 134<216 337 216 337> 780 78<436 454 436 473.5> 780 136<425.5 549> 829 78<312.5 331>
VStem: 80 130<0 519 0 710> 216 67<773 773> 482 67<916 916> 538 130<176 710 0 710>
AnchorPoint: "Anchor-3" 383 710 basechar 0
AnchorPoint: "Anchor-0" 373 0 basechar 0
LayerCount: 2
Fore
SplineSet
440 780 m 0xca80
 411 780 390 788 366 808 c 0
 348 823 339 829 323 829 c 0xc540
 302 829 286 817 283 773 c 1xe140
 216 773 l 1
 217 857 257 907 321 907 c 0xc540
 353 907 376 898 401 878 c 0
 418 863 429 858 443 858 c 0xd280
 465 858 479 870 482 916 c 1
 549 916 l 1
 547 831 507 780 440 780 c 0xca80
80 0 m 1xc640
 80 710 l 1
 232 710 l 1
 538 176 l 1
 538 710 l 1
 668 710 l 1
 668 0 l 1
 512 0 l 1
 210 519 l 1
 210 0 l 1
 80 0 l 1xc640
EndSplineSet
EndChar

StartChar: Eng
Encoding: 330 330 74
Width: 748
GlyphClass: 2
Flags: MW
HStem: -158 96<389 487 487 505.5 389 510 389 487> 0 21G<80 80 80 210 512 512 512 543> 690 20G<80 232 232 232 538 668 668 668>
VStem: 80 130<0 519 0 710> 538 130<176 710> 543 125<-8 -6 -6 0 0 0>
AnchorPoint: "Anchor-3" 374 710 basechar 0
AnchorPoint: "Anchor-0" 374 -150 basechar 0
LayerCount: 2
Fore
SplineSet
80 0 m 1xf4
 80 710 l 1
 232 710 l 1
 538 176 l 1
 538 710 l 1
 668 710 l 1
 668 -6 l 2xf8
 668 -100 612 -158 510 -158 c 2
 389 -158 l 1
 389 -62 l 1
 487 -62 l 2
 524 -62 543 -45 543 -8 c 2
 543 0 l 1
 512 0 l 1
 210 519 l 1
 210 0 l 1
 80 0 l 1xf4
EndSplineSet
EndChar

StartChar: O
Encoding: 79 79 75
Width: 763
GlyphClass: 2
Flags: MW
HStem: -16 113<317.5 445.5 317.5 487> 613 113<317.5 445.5>
VStem: 43 134<273 435 273 468.5> 586 134<273 435>
AnchorPoint: "Anchor-3" 381 710 basechar 0
AnchorPoint: "Anchor-1" 382 355 basechar 0
AnchorPoint: "Anchor-0" 381 0 basechar 0
LayerCount: 2
Fore
SplineSet
381 -16 m 0
 170 -16 43 125 43 354 c 0
 43 583 170 726 381 726 c 0
 593 726 720 583 720 354 c 0
 720 125 593 -16 381 -16 c 0
381 97 m 0
 510 97 586 192 586 354 c 0
 586 516 510 613 381 613 c 0
 254 613 177 516 177 354 c 0
 177 192 254 97 381 97 c 0
EndSplineSet
Substitution2: "Single Substitution lookup 27 subtable" ordmasculine
Substitution2: "'aalt' Access All Alternates in Latin lookup 0 subtable" ordmasculine
EndChar

StartChar: Oacute
Encoding: 211 211 76
Width: 763
GlyphClass: 2
Flags: MW
HStem: -16 113<317.5 445.5 317.5 487> 613 113<317.5 445.5> 770 140<324 513 385 423>
VStem: 43 134<273 435 273 468.5> 586 134<273 435>
AnchorPoint: "Anchor-3" 381 710 basechar 0
AnchorPoint: "Anchor-1" 382 355 basechar 0
AnchorPoint: "Anchor-0" 381 0 basechar 0
LayerCount: 2
Fore
SplineSet
324 770 m 1
 385 910 l 1
 513 910 l 1
 423 770 l 1
 324 770 l 1
381 -16 m 0
 170 -16 43 125 43 354 c 0
 43 583 170 726 381 726 c 0
 593 726 720 583 720 354 c 0
 720 125 593 -16 381 -16 c 0
381 97 m 0
 510 97 586 192 586 354 c 0
 586 516 510 613 381 613 c 0
 254 613 177 516 177 354 c 0
 177 192 254 97 381 97 c 0
EndSplineSet
EndChar

StartChar: Ocircumflex
Encoding: 212 212 77
Width: 763
GlyphClass: 2
Flags: MW
HStem: -16 113<317.5 445.5 317.5 487> 613 113<317.5 445.5> 770 146<224 445 224 445 318 446 318 539>
VStem: 43 134<273 435 273 468.5> 586 134<273 435>
AnchorPoint: "Anchor-3" 381 710 basechar 0
AnchorPoint: "Anchor-1" 382 355 basechar 0
AnchorPoint: "Anchor-0" 381 0 basechar 0
LayerCount: 2
Fore
SplineSet
224 770 m 1
 318 916 l 1
 445 916 l 1
 539 770 l 1
 446 770 l 1
 381 859 l 1
 317 770 l 1
 224 770 l 1
381 -16 m 0
 170 -16 43 125 43 354 c 0
 43 583 170 726 381 726 c 0
 593 726 720 583 720 354 c 0
 720 125 593 -16 381 -16 c 0
381 97 m 0
 510 97 586 192 586 354 c 0
 586 516 510 613 381 613 c 0
 254 613 177 516 177 354 c 0
 177 192 254 97 381 97 c 0
EndSplineSet
EndChar

StartChar: Odieresis
Encoding: 214 214 78
Width: 763
GlyphClass: 2
Flags: MW
HStem: -16 113<317.5 445.5 317.5 487> 613 113<317.5 445.5> 780 113<218 343 218 343 420 544 218 420>
VStem: 43 134<273 435 273 468.5> 218 125<780 893 780 893> 420 124<780 893 780 893> 586 134<273 435>
AnchorPoint: "Anchor-3" 381 710 basechar 0
AnchorPoint: "Anchor-1" 382 355 basechar 0
AnchorPoint: "Anchor-0" 381 0 basechar 0
LayerCount: 2
Fore
SplineSet
218 780 m 1
 218 893 l 1
 343 893 l 1
 343 780 l 1
 218 780 l 1
420 780 m 1
 420 893 l 1
 544 893 l 1
 544 780 l 1
 420 780 l 1
381 -16 m 0
 170 -16 43 125 43 354 c 0
 43 583 170 726 381 726 c 0
 593 726 720 583 720 354 c 0
 720 125 593 -16 381 -16 c 0
381 97 m 0
 510 97 586 192 586 354 c 0
 586 516 510 613 381 613 c 0
 254 613 177 516 177 354 c 0
 177 192 254 97 381 97 c 0
EndSplineSet
Substitution2: "'ss08' Style Set 8 in Latin lookup 41 subtable" Odieresis.ss08
Substitution2: "'aalt' Access All Alternates in Latin lookup 0 subtable" Odieresis.ss08
EndChar

StartChar: Ograve
Encoding: 210 210 79
Width: 763
GlyphClass: 2
Flags: MW
HStem: -16 113<317.5 445.5 317.5 487> 613 113<317.5 445.5> 775 141<339 339 339 378 249 439>
VStem: 43 134<273 435 273 468.5> 586 134<273 435>
AnchorPoint: "Anchor-3" 381 710 basechar 0
AnchorPoint: "Anchor-1" 382 355 basechar 0
AnchorPoint: "Anchor-0" 381 0 basechar 0
LayerCount: 2
Fore
SplineSet
339 775 m 1
 249 916 l 1
 378 916 l 1
 439 775 l 1
 339 775 l 1
381 -16 m 0
 170 -16 43 125 43 354 c 0
 43 583 170 726 381 726 c 0
 593 726 720 583 720 354 c 0
 720 125 593 -16 381 -16 c 0
381 97 m 0
 510 97 586 192 586 354 c 0
 586 516 510 613 381 613 c 0
 254 613 177 516 177 354 c 0
 177 192 254 97 381 97 c 0
EndSplineSet
EndChar

StartChar: Ohungarumlaut
Encoding: 336 336 80
Width: 763
GlyphClass: 2
Flags: MW
HStem: -16 113<317.5 445.5 317.5 487> 613 113<317.5 445.5> 770 140<249 439 311 349 411 439 472 511 411 411>
VStem: 43 134<273 435 273 468.5> 586 134<273 435>
AnchorPoint: "Anchor-3" 381 710 basechar 0
AnchorPoint: "Anchor-1" 382 355 basechar 0
AnchorPoint: "Anchor-0" 381 0 basechar 0
LayerCount: 2
Fore
SplineSet
249 770 m 1
 311 910 l 1
 439 910 l 1
 349 770 l 1
 249 770 l 1
411 770 m 1
 472 910 l 1
 601 910 l 1
 511 770 l 1
 411 770 l 1
381 -16 m 0
 170 -16 43 125 43 354 c 0
 43 583 170 726 381 726 c 0
 593 726 720 583 720 354 c 0
 720 125 593 -16 381 -16 c 0
381 97 m 0
 510 97 586 192 586 354 c 0
 586 516 510 613 381 613 c 0
 254 613 177 516 177 354 c 0
 177 192 254 97 381 97 c 0
EndSplineSet
EndChar

StartChar: Omacron
Encoding: 332 332 81
Width: 763
GlyphClass: 2
Flags: MW
HStem: -16 113<317.5 445.5 317.5 487> 613 113<317.5 445.5> 789 97<237 526 237 526>
VStem: 43 134<273 435 273 468.5> 237 289<789 886 789 886> 586 134<273 435>
AnchorPoint: "Anchor-3" 381 710 basechar 0
AnchorPoint: "Anchor-1" 382 355 basechar 0
AnchorPoint: "Anchor-0" 381 0 basechar 0
LayerCount: 2
Fore
SplineSet
237 789 m 1
 237 886 l 1
 526 886 l 1
 526 789 l 1
 237 789 l 1
381 -16 m 0
 170 -16 43 125 43 354 c 0
 43 583 170 726 381 726 c 0
 593 726 720 583 720 354 c 0
 720 125 593 -16 381 -16 c 0
381 97 m 0
 510 97 586 192 586 354 c 0
 586 516 510 613 381 613 c 0
 254 613 177 516 177 354 c 0
 177 192 254 97 381 97 c 0
EndSplineSet
EndChar

StartChar: Oslash
Encoding: 216 216 82
Width: 763
GlyphClass: 2
Flags: MW
HStem: -16 113<360.5 445.5 360.5 487> 613 113<317.5 402>
VStem: 43 134<320.5 435 320.5 468.5> 586 134<273 388>
AnchorPoint: "Anchor-3" 381 710 basechar 0
AnchorPoint: "Anchor-1" 382 355 basechar 0
AnchorPoint: "Anchor-0" 381 0 basechar 0
LayerCount: 2
Fore
SplineSet
73 -16 m 1
 138 78 l 1
 77 142 43 236 43 354 c 0
 43 583 170 726 381 726 c 0
 450 726 509 711 558 683 c 1
 588 726 l 1
 690 726 l 1
 625 632 l 1
 687 567 720 472 720 354 c 0
 720 125 593 -16 381 -16 c 0
 313 -16 254 -1 205 26 c 1
 175 -16 l 1
 73 -16 l 1
177 354 m 0
 177 287 191 231 215 189 c 1
 489 583 l 1
 459 603 423 613 381 613 c 0
 254 613 177 516 177 354 c 0
381 97 m 0
 510 97 586 192 586 354 c 0
 586 422 573 478 548 521 c 1
 274 126 l 1
 304 107 340 97 381 97 c 0
EndSplineSet
EndChar

StartChar: Otilde
Encoding: 213 213 83
Width: 763
GlyphClass: 2
Flags: MW
HStem: -16 113<317.5 445.5 317.5 487> 613 113<317.5 445.5> 773 134<214 336 214 336> 780 78<435 452.5 435 472> 780 136<423.5 548> 829 78<310.5 329>
VStem: 43 134<273 435 273 468.5> 214 67<773 773> 480 68<916 916> 586 134<273 435>
AnchorPoint: "Anchor-3" 381 710 basechar 0
AnchorPoint: "Anchor-1" 382 355 basechar 0
AnchorPoint: "Anchor-0" 381 0 basechar 0
LayerCount: 2
Fore
SplineSet
438 780 m 0xcac0
 409 780 389 788 364 808 c 0
 347 823 337 829 321 829 c 0xc740
 300 829 284 817 281 773 c 1xe340
 214 773 l 1
 215 857 256 907 320 907 c 0xc740
 352 907 374 898 399 878 c 0
 417 863 428 858 442 858 c 0xd2c0
 463 858 477 870 480 916 c 1
 548 916 l 1
 545 831 506 780 438 780 c 0xcac0
381 -16 m 0
 170 -16 43 125 43 354 c 0
 43 583 170 726 381 726 c 0
 593 726 720 583 720 354 c 0
 720 125 593 -16 381 -16 c 0
381 97 m 0
 510 97 586 192 586 354 c 0
 586 516 510 613 381 613 c 0
 254 613 177 516 177 354 c 0
 177 192 254 97 381 97 c 0
EndSplineSet
EndChar

StartChar: OE
Encoding: 338 338 84
Width: 1109
GlyphClass: 2
Flags: MW
HStem: -16 113<312 428> 0 113<732 1060 732 1060> 300 112<732 1040 732 1040> 597 113<732 1052 732 732> 613 113<311.5 428 276 450.5>
VStem: 43 134<279.5 428 279.5 468> 585 147<279.5 300 412 427.5> 602 130<0 300 79 300>
AnchorPoint: "Anchor-3" 554 710 basechar 0
AnchorPoint: "Anchor-0" 554 0 basechar 0
LayerCount: 2
Fore
SplineSet
380 -16 m 0xb5
 172 -16 43 128 43 354 c 0
 43 582 172 726 380 726 c 0xae
 476 726 551 692 602 630 c 1
 602 710 l 1x75
 1052 710 l 1
 1052 597 l 1
 732 597 l 1
 732 412 l 1
 1040 412 l 1
 1040 300 l 1
 732 300 l 1
 732 113 l 1x76
 1060 113 l 1
 1060 0 l 1
 602 0 l 1x75
 602 79 l 1
 551 19 476 -16 380 -16 c 0xb5
380 97 m 0
 520 97 585 205 585 354 c 0
 585 501 521 613 380 613 c 0
 243 613 177 502 177 354 c 0
 177 205 244 97 380 97 c 0
EndSplineSet
EndChar

StartChar: P
Encoding: 80 80 85
Width: 664
GlyphClass: 2
Flags: MW
HStem: 0 21G<80 80 80 210> 256 113<210 349 349 355 210 349> 597 113<210 349 210 210>
VStem: 80 130<0 256 369 597> 486 134<446 521>
AnchorPoint: "Anchor-3" 332 710 basechar 0
AnchorPoint: "Anchor-0" 332 0 basechar 0
LayerCount: 2
Fore
SplineSet
80 0 m 1
 80 710 l 1
 355 710 l 2
 521 710 620 625 620 484 c 0
 620 342 521 256 355 256 c 2
 210 256 l 1
 210 0 l 1
 80 0 l 1
210 369 m 1
 349 369 l 2
 437 369 486 408 486 484 c 0
 486 558 438 597 349 597 c 2
 210 597 l 1
 210 369 l 1
EndSplineSet
EndChar

StartChar: Thorn
Encoding: 222 222 86
Width: 634
GlyphClass: 2
Flags: MW
HStem: 0 21G<80 80 80 210> 149 114<210 328 328 330 210 328> 469 113<210 328 210 330> 690 20G<80 210 210 210>
VStem: 80 130<0 149 0 263 263 469 582 710> 456 134<331.5 400>
AnchorPoint: "Anchor-3" 317 710 basechar 0
AnchorPoint: "Anchor-0" 317 0 basechar 0
LayerCount: 2
Fore
SplineSet
80 0 m 1
 80 710 l 1
 210 710 l 1
 210 582 l 1
 330 582 l 2
 495 582 590 503 590 366 c 0
 590 229 495 149 330 149 c 2
 210 149 l 1
 210 0 l 1
 80 0 l 1
328 469 m 2
 210 469 l 1
 210 263 l 1
 328 263 l 2
 413 263 456 297 456 366 c 0
 456 434 413 469 328 469 c 2
EndSplineSet
EndChar

StartChar: Q
Encoding: 81 81 87
Width: 757
GlyphClass: 2
Flags: MW
HStem: -16 113<310 389 310 403> 613 113<309 447>
VStem: 43 134<285 423.5 285 459> 580 134<306 423.5>
AnchorPoint: "Anchor-3" 378 710 basechar 0
AnchorPoint: "Anchor-0" 378 0 basechar 0
LayerCount: 2
Fore
SplineSet
560 -64 m 1
 504 7 l 1
 473 -7 428 -16 378 -16 c 0
 170 -16 43 141 43 354 c 0
 43 564 162 726 378 726 c 0
 596 726 714 564 714 354 c 0
 714 223 667 117 583 51 c 1
 675 -64 l 1
 560 -64 l 1
378 97 m 0
 400 97 418 99 431 105 c 1
 332 229 l 1
 446 229 l 1
 506 150 l 1
 554 192 580 258 580 354 c 0
 580 493 516 613 378 613 c 0
 240 613 177 493 177 354 c 0
 177 216 242 97 378 97 c 0
EndSplineSet
EndChar

StartChar: R
Encoding: 82 82 88
Width: 689
GlyphClass: 2
Flags: MW
HStem: 0 21G<80 80 80 210 502 502 502 634> 268 114<210 369 369 380 210 369> 597 113<210 363 210 210>
VStem: 80 130<0 268 382 597> 494 134<454.5 524>
AnchorPoint: "Anchor-3" 342 710 basechar 0
AnchorPoint: "Anchor-0" 357 0 basechar 0
LayerCount: 2
Fore
SplineSet
80 0 m 1
 80 710 l 1
 377 710 l 2
 530 710 628 627 628 497 c 0
 628 412 575 349 505 328 c 1
 572 318 610 278 616 205 c 2
 634 0 l 1
 502 0 l 1
 487 186 l 2
 483 243 454 268 380 268 c 2
 210 268 l 1
 210 0 l 1
 80 0 l 1
210 382 m 1
 369 382 l 2
 447 382 494 420 494 489 c 0
 494 559 447 597 363 597 c 2
 210 597 l 1
 210 382 l 1
EndSplineSet
Substitution2: "'ss04' Style Set 4 in Latin lookup 37 subtable" R.ss04
Substitution2: "'aalt' Access All Alternates in Latin lookup 0 subtable" R.ss04
EndChar

StartChar: Racute
Encoding: 340 340 89
Width: 689
GlyphClass: 2
Flags: MW
HStem: 0 21G<80 80 80 210 502 502 502 634> 268 114<210 369 369 380 210 369> 597 113<210 363 210 210> 770 140<284 474 346 384>
VStem: 80 130<0 268 382 597> 494 134<454.5 524>
AnchorPoint: "Anchor-3" 342 710 basechar 0
AnchorPoint: "Anchor-0" 357 0 basechar 0
LayerCount: 2
Fore
SplineSet
284 770 m 1
 346 910 l 1
 474 910 l 1
 384 770 l 1
 284 770 l 1
80 0 m 1
 80 710 l 1
 377 710 l 2
 530 710 628 627 628 497 c 0
 628 412 575 349 505 328 c 1
 572 318 610 278 616 205 c 2
 634 0 l 1
 502 0 l 1
 487 186 l 2
 483 243 454 268 380 268 c 2
 210 268 l 1
 210 0 l 1
 80 0 l 1
210 382 m 1
 369 382 l 2
 447 382 494 420 494 489 c 0
 494 559 447 597 363 597 c 2
 210 597 l 1
 210 382 l 1
EndSplineSet
Substitution2: "'ss04' Style Set 4 in Latin lookup 37 subtable" Racute.ss04
Substitution2: "'aalt' Access All Alternates in Latin lookup 0 subtable" Racute.ss04
EndChar

StartChar: Rcaron
Encoding: 344 344 90
Width: 689
GlyphClass: 2
Flags: MW
HStem: 0 21G<80 80 80 210 502 502 502 634> 268 114<210 369 369 380 210 369> 597 113<210 363 210 210> 770 146<184 406 184 278>
VStem: 80 130<0 268 382 597> 494 134<454.5 524>
AnchorPoint: "Anchor-3" 342 710 basechar 0
AnchorPoint: "Anchor-0" 357 0 basechar 0
LayerCount: 2
Fore
SplineSet
184 916 m 1
 278 916 l 1
 342 827 l 1
 407 916 l 1
 500 916 l 1
 406 770 l 1
 278 770 l 1
 184 916 l 1
80 0 m 1
 80 710 l 1
 377 710 l 2
 530 710 628 627 628 497 c 0
 628 412 575 349 505 328 c 1
 572 318 610 278 616 205 c 2
 634 0 l 1
 502 0 l 1
 487 186 l 2
 483 243 454 268 380 268 c 2
 210 268 l 1
 210 0 l 1
 80 0 l 1
210 382 m 1
 369 382 l 2
 447 382 494 420 494 489 c 0
 494 559 447 597 363 597 c 2
 210 597 l 1
 210 382 l 1
EndSplineSet
Substitution2: "'ss04' Style Set 4 in Latin lookup 37 subtable" Rcaron.ss04
Substitution2: "'aalt' Access All Alternates in Latin lookup 0 subtable" Rcaron.ss04
EndChar

StartChar: uni0156
Encoding: 342 342 91
Width: 689
GlyphClass: 2
Flags: MW
HStem: -158 108<297 332 297 417> 0 21G<80 80 80 210 502 502 502 634> 268 114<210 369 369 380 210 369> 597 113<210 363 210 210>
VStem: 80 130<0 268 382 597> 297 120<-147 -50 -147 -50 -147 -50> 494 134<454.5 524>
AnchorPoint: "Anchor-3" 342 710 basechar 0
AnchorPoint: "Anchor-0" 357 -249 basechar 0
LayerCount: 2
Fore
SplineSet
80 0 m 1
 80 710 l 1
 377 710 l 2
 530 710 628 627 628 497 c 0
 628 412 575 349 505 328 c 1
 572 318 610 278 616 205 c 2
 634 0 l 1
 502 0 l 1
 487 186 l 2
 483 243 454 268 380 268 c 2
 210 268 l 1
 210 0 l 1
 80 0 l 1
210 382 m 1
 369 382 l 2
 447 382 494 420 494 489 c 0
 494 559 447 597 363 597 c 2
 210 597 l 1
 210 382 l 1
279 -249 m 1
 332 -158 l 1
 297 -158 l 1
 297 -50 l 1
 417 -50 l 1
 417 -147 l 1
 357 -249 l 1
 279 -249 l 1
EndSplineSet
Substitution2: "'ss04' Style Set 4 in Latin lookup 37 subtable" uni0156.ss04
Substitution2: "'aalt' Access All Alternates in Latin lookup 0 subtable" uni0156.ss04
EndChar

StartChar: S
Encoding: 83 83 92
Width: 668
GlyphClass: 2
Flags: MW
HStem: -16 112<301 392 301 428.5> 614 112<283.5 366>
VStem: 67 133<492 548.5 492 578> 482 133<157.5 215.5>
AnchorPoint: "Anchor-3" 324 710 basechar 0
AnchorPoint: "Anchor-0" 342 0 basechar 0
LayerCount: 2
Fore
SplineSet
348 -16 m 0
 172 -16 64 83 53 231 c 1
 185 239 l 1
 197 147 252 96 350 96 c 0
 434 96 482 127 482 188 c 0
 482 243 454 276 309 310 c 0
 133 350 67 400 67 516 c 0
 67 640 164 726 323 726 c 0
 493 726 586 627 602 490 c 1
 471 484 l 1
 462 561 411 614 321 614 c 0
 246 614 200 576 200 521 c 0
 200 463 233 441 360 412 c 0
 551 371 615 301 615 195 c 0
 615 65 509 -16 348 -16 c 0
EndSplineSet
EndChar

StartChar: Sacute
Encoding: 346 346 93
Width: 668
GlyphClass: 2
Flags: MW
HStem: -16 112<301 392 301 428.5> 614 112<283.5 366> 770 140<266 456 327 366>
VStem: 67 133<492 548.5 492 578> 482 133<157.5 215.5>
AnchorPoint: "Anchor-3" 324 710 basechar 0
AnchorPoint: "Anchor-0" 342 0 basechar 0
LayerCount: 2
Fore
SplineSet
266 770 m 1
 327 910 l 1
 456 910 l 1
 366 770 l 1
 266 770 l 1
348 -16 m 0
 172 -16 64 83 53 231 c 1
 185 239 l 1
 197 147 252 96 350 96 c 0
 434 96 482 127 482 188 c 0
 482 243 454 276 309 310 c 0
 133 350 67 400 67 516 c 0
 67 640 164 726 323 726 c 0
 493 726 586 627 602 490 c 1
 471 484 l 1
 462 561 411 614 321 614 c 0
 246 614 200 576 200 521 c 0
 200 463 233 441 360 412 c 0
 551 371 615 301 615 195 c 0
 615 65 509 -16 348 -16 c 0
EndSplineSet
EndChar

StartChar: Scaron
Encoding: 352 352 94
Width: 668
GlyphClass: 2
Flags: MW
HStem: -16 112<301 392 301 428.5> 614 112<283.5 366> 770 146<166 388 166 260>
VStem: 67 133<492 548.5 492 578> 482 133<157.5 215.5>
AnchorPoint: "Anchor-3" 324 710 basechar 0
AnchorPoint: "Anchor-0" 342 0 basechar 0
LayerCount: 2
Fore
SplineSet
166 916 m 1
 259 916 l 1
 324 827 l 1
 389 916 l 1
 482 916 l 1
 388 770 l 1
 260 770 l 1
 166 916 l 1
348 -16 m 0
 172 -16 64 83 53 231 c 1
 185 239 l 1
 197 147 252 96 350 96 c 0
 434 96 482 127 482 188 c 0
 482 243 454 276 309 310 c 0
 133 350 67 400 67 516 c 0
 67 640 164 726 323 726 c 0
 493 726 586 627 602 490 c 1
 471 484 l 1
 462 561 411 614 321 614 c 0
 246 614 200 576 200 521 c 0
 200 463 233 441 360 412 c 0
 551 371 615 301 615 195 c 0
 615 65 509 -16 348 -16 c 0
EndSplineSet
EndChar

StartChar: Scedilla
Encoding: 350 350 95
Width: 668
GlyphClass: 2
Flags: MW
HStem: -228 67<316 347.5 316 369> -82 49<313 360> -82 178<313 341.5> -13 21G<297 297> 614 112<283.5 366>
VStem: 67 133<492 548.5 492 578> 382 74<-135 -111> 482 133<157.5 215.5>
AnchorPoint: "Anchor-3" 324 710 basechar 0
AnchorPoint: "Anchor-0" 342 0 basechar 0
LayerCount: 2
Fore
SplineSet
335 -228 m 0xce
 269 -228 226 -194 210 -147 c 1
 271 -121 l 1
 282 -148 300 -161 332 -161 c 0
 363 -161 382 -147 382 -123 c 0
 382 -99 370 -82 313 -82 c 1xae
 277 -47 l 1
 297 -13 l 1x9e
 151 4 63 98 53 231 c 1
 185 239 l 1
 197 147 252 96 350 96 c 0
 434 96 482 127 482 188 c 0
 482 243 454 276 309 310 c 0
 133 350 67 400 67 516 c 0
 67 640 164 726 323 726 c 0
 493 726 586 627 602 490 c 1
 471 484 l 1
 462 561 411 614 321 614 c 0
 246 614 200 576 200 521 c 0
 200 463 233 441 360 412 c 0
 551 371 615 301 615 195 c 0xad
 615 71 519 -8 372 -15 c 1
 360 -33 l 1
 426 -38 456 -76 456 -126 c 0
 456 -192 403 -228 335 -228 c 0xce
EndSplineSet
Substitution2: "'locl' Localized Forms in Latin lookup 10 subtable" uni0218
Substitution2: "'aalt' Access All Alternates in Latin lookup 0 subtable" uni0218
EndChar

StartChar: Scircumflex
Encoding: 348 348 96
Width: 668
GlyphClass: 2
Flags: MW
HStem: -16 112<301 392 301 428.5> 614 112<283.5 366> 770 146<166 388 166 388 260 389 260 482>
VStem: 67 133<492 548.5 492 578> 482 133<157.5 215.5>
AnchorPoint: "Anchor-3" 324 710 basechar 0
AnchorPoint: "Anchor-0" 342 0 basechar 0
LayerCount: 2
Fore
SplineSet
166 770 m 1
 260 916 l 1
 388 916 l 1
 482 770 l 1
 389 770 l 1
 324 859 l 1
 259 770 l 1
 166 770 l 1
348 -16 m 0
 172 -16 64 83 53 231 c 1
 185 239 l 1
 197 147 252 96 350 96 c 0
 434 96 482 127 482 188 c 0
 482 243 454 276 309 310 c 0
 133 350 67 400 67 516 c 0
 67 640 164 726 323 726 c 0
 493 726 586 627 602 490 c 1
 471 484 l 1
 462 561 411 614 321 614 c 0
 246 614 200 576 200 521 c 0
 200 463 233 441 360 412 c 0
 551 371 615 301 615 195 c 0
 615 65 509 -16 348 -16 c 0
EndSplineSet
EndChar

StartChar: uni0218
Encoding: 536 536 97
Width: 668
GlyphClass: 2
Flags: MW
HStem: -158 108<282 317 282 402> -16 112<301 392 301 428.5> 614 112<283.5 366>
VStem: 67 133<492 548.5 492 578> 282 120<-147 -50 -147 -50 -147 -50> 482 133<157.5 215.5>
AnchorPoint: "Anchor-3" 324 710 basechar 0
AnchorPoint: "Anchor-0" 342 -249 basechar 0
LayerCount: 2
Fore
SplineSet
348 -16 m 0
 172 -16 64 83 53 231 c 1
 185 239 l 1
 197 147 252 96 350 96 c 0
 434 96 482 127 482 188 c 0
 482 243 454 276 309 310 c 0
 133 350 67 400 67 516 c 0
 67 640 164 726 323 726 c 0
 493 726 586 627 602 490 c 1
 471 484 l 1
 462 561 411 614 321 614 c 0
 246 614 200 576 200 521 c 0
 200 463 233 441 360 412 c 0
 551 371 615 301 615 195 c 0
 615 65 509 -16 348 -16 c 0
264 -249 m 1
 317 -158 l 1
 282 -158 l 1
 282 -50 l 1
 402 -50 l 1
 402 -147 l 1
 342 -249 l 1
 264 -249 l 1
EndSplineSet
EndChar

StartChar: uni1E9E
Encoding: 7838 7838 98
Width: 725
GlyphClass: 2
Flags: MW
HStem: 0 113<80 402 277 402 277 402> 597 113<283 632 319 477>
VStem: 80 130<0 479 0 552.5> 537 133<187.5 256>
AnchorPoint: "Anchor-3" 362 710 basechar 0
AnchorPoint: "Anchor-0" 362 0 basechar 0
LayerCount: 2
Fore
SplineSet
80 0 m 1
 80 479 l 2
 80 626 166 710 319 710 c 2
 632 710 l 1
 632 592 l 1
 445 424 l 1
 594 408 670 338 670 221 c 0
 670 83 570 0 402 0 c 2
 277 0 l 1
 277 113 l 1
 402 113 l 2
 486 113 537 154 537 221 c 0
 537 291 482 330 393 330 c 2
 293 330 l 1
 293 425 l 1
 477 597 l 1
 319 597 l 2
 247 597 210 557 210 479 c 2
 210 0 l 1
 80 0 l 1
EndSplineSet
EndChar

StartChar: T
Encoding: 84 84 99
Width: 584
GlyphClass: 2
Flags: MW
HStem: 0 21G<227 227 227 357> 597 113<11 227 11 572 357 357 357 572>
VStem: 227 130<0 597 0 597>
AnchorPoint: "Anchor-3" 292 710 basechar 0
AnchorPoint: "Anchor-1" 292 334 basechar 0
AnchorPoint: "Anchor-0" 292 0 basechar 0
LayerCount: 2
Fore
SplineSet
227 0 m 1
 227 597 l 1
 11 597 l 1
 11 710 l 1
 572 710 l 1
 572 597 l 1
 357 597 l 1
 357 0 l 1
 227 0 l 1
EndSplineSet
EndChar

StartChar: Tbar
Encoding: 358 358 100
Width: 584
GlyphClass: 2
Flags: MW
HStem: 0 21G<227 227 227 357> 282 103<98 227 98 227 357 486> 597 113<11 227 11 572 357 357 357 572>
VStem: 227 130<0 282 0 282 385 597>
AnchorPoint: "Anchor-3" 292 710 basechar 0
AnchorPoint: "Anchor-1" 292 334 basechar 0
AnchorPoint: "Anchor-0" 292 0 basechar 0
LayerCount: 2
Fore
SplineSet
227 0 m 1
 227 282 l 1
 98 282 l 1
 98 385 l 1
 227 385 l 1
 227 597 l 1
 11 597 l 1
 11 710 l 1
 572 710 l 1
 572 597 l 1
 357 597 l 1
 357 385 l 1
 486 385 l 1
 486 282 l 1
 357 282 l 1
 357 0 l 1
 227 0 l 1
EndSplineSet
EndChar

StartChar: Tcaron
Encoding: 356 356 101
Width: 584
GlyphClass: 2
Flags: MW
HStem: 0 21G<227 227 227 357> 597 113<11 227 11 572 357 357 357 572> 770 146<134 355 134 228>
VStem: 227 130<0 597 0 597>
AnchorPoint: "Anchor-3" 292 710 basechar 0
AnchorPoint: "Anchor-1" 292 334 basechar 0
AnchorPoint: "Anchor-0" 292 0 basechar 0
LayerCount: 2
Fore
SplineSet
134 916 m 1
 227 916 l 1
 292 827 l 1
 356 916 l 1
 449 916 l 1
 355 770 l 1
 228 770 l 1
 134 916 l 1
227 0 m 1
 227 597 l 1
 11 597 l 1
 11 710 l 1
 572 710 l 1
 572 597 l 1
 357 597 l 1
 357 0 l 1
 227 0 l 1
EndSplineSet
EndChar

StartChar: uni0162
Encoding: 354 354 102
Width: 584
GlyphClass: 2
Flags: MW
HStem: -228 67<266 297 266 318.5> -82 49<263 310> 0 21G<227 227 227 255 333 333 333 357> 597 113<11 227 11 572 357 357 357 572>
VStem: 227 130<0 597 0 597> 332 74<-135 -111>
AnchorPoint: "Anchor-3" 292 710 basechar 0
AnchorPoint: "Anchor-1" 292 334 basechar 0
AnchorPoint: "Anchor-0" 292 0 basechar 0
LayerCount: 2
Fore
SplineSet
227 0 m 1xf8
 227 597 l 1
 11 597 l 1
 11 710 l 1
 572 710 l 1
 572 597 l 1
 357 597 l 1
 357 0 l 1xf8
 333 0 l 1
 310 -33 l 1
 376 -38 406 -76 406 -126 c 0
 406 -192 353 -228 284 -228 c 0
 218 -228 176 -194 160 -147 c 1
 221 -121 l 1
 232 -148 250 -161 282 -161 c 0
 312 -161 332 -147 332 -123 c 0xf4
 332 -99 320 -82 263 -82 c 1
 226 -47 l 1
 255 0 l 1
 227 0 l 1xf8
EndSplineSet
Substitution2: "'locl' Localized Forms in Latin lookup 10 subtable" uni021A
Substitution2: "'aalt' Access All Alternates in Latin lookup 0 subtable" uni021A
EndChar

StartChar: uni021A
Encoding: 538 538 103
Width: 584
GlyphClass: 2
Flags: MW
HStem: -158 108<232 267 232 352> 0 21G<227 227 227 357> 597 113<11 227 11 572 357 357 357 572>
VStem: 227 125<-147 597> 227 130<0 597 0 597> 232 125<-158 597 -50 597>
AnchorPoint: "Anchor-3" 292 710 basechar 0
AnchorPoint: "Anchor-1" 292 334 basechar 0
AnchorPoint: "Anchor-0" 292 -249 basechar 0
LayerCount: 2
Fore
SplineSet
227 0 m 1xe8
 227 597 l 1
 11 597 l 1
 11 710 l 1
 572 710 l 1
 572 597 l 1
 357 597 l 1
 357 0 l 1
 227 0 l 1xe8
214 -249 m 1
 267 -158 l 1
 232 -158 l 1
 232 -50 l 1xe4
 352 -50 l 1
 352 -147 l 1xf0
 292 -249 l 1
 214 -249 l 1
EndSplineSet
EndChar

StartChar: U
Encoding: 85 85 104
Width: 699
GlyphClass: 2
Flags: MW
HStem: -16 113<300 398.5 300 436.5> 691 20G<65 195 195 195 504 634 634 634>
VStem: 65 130<254 711> 504 130<254 711>
AnchorPoint: "Anchor-3" 349 710 basechar 0
AnchorPoint: "Anchor-2" 463 2 basechar 0
AnchorPoint: "Anchor-0" 349 0 basechar 0
LayerCount: 2
Fore
SplineSet
349 -16 m 0
 175 -16 65 88 65 254 c 2
 65 711 l 1
 195 711 l 1
 195 254 l 2
 195 153 251 97 349 97 c 0
 448 97 504 153 504 254 c 2
 504 711 l 1
 634 711 l 1
 634 254 l 2
 634 88 524 -16 349 -16 c 0
EndSplineSet
EndChar

StartChar: Uacute
Encoding: 218 218 105
Width: 699
GlyphClass: 2
Flags: MW
HStem: -16 113<300 398.5 300 436.5> 691 20G<65 195 195 195 504 634 634 634> 770 140<292 481 353 391>
VStem: 65 130<254 711> 504 130<254 711>
AnchorPoint: "Anchor-3" 349 710 basechar 0
AnchorPoint: "Anchor-2" 463 2 basechar 0
AnchorPoint: "Anchor-0" 349 0 basechar 0
LayerCount: 2
Fore
SplineSet
292 770 m 1
 353 910 l 1
 481 910 l 1
 391 770 l 1
 292 770 l 1
349 -16 m 0
 175 -16 65 88 65 254 c 2
 65 711 l 1
 195 711 l 1
 195 254 l 2
 195 153 251 97 349 97 c 0
 448 97 504 153 504 254 c 2
 504 711 l 1
 634 711 l 1
 634 254 l 2
 634 88 524 -16 349 -16 c 0
EndSplineSet
EndChar

StartChar: Ubreve
Encoding: 364 364 106
Width: 699
GlyphClass: 2
Flags: MW
HStem: -16 113<300 398.5 300 436.5> 691 20G<65 195 195 195 504 634 634 634> 771 76<328 370 328 394>
VStem: 65 130<254 711> 504 130<254 711>
AnchorPoint: "Anchor-3" 349 710 basechar 0
AnchorPoint: "Anchor-2" 463 2 basechar 0
AnchorPoint: "Anchor-0" 349 0 basechar 0
LayerCount: 2
Fore
SplineSet
349 771 m 0
 260 771 202 824 198 912 c 1
 275 912 l 1
 281 866 307 847 349 847 c 0
 391 847 418 866 423 912 c 1
 500 912 l 1
 496 824 439 771 349 771 c 0
349 -16 m 0
 175 -16 65 88 65 254 c 2
 65 711 l 1
 195 711 l 1
 195 254 l 2
 195 153 251 97 349 97 c 0
 448 97 504 153 504 254 c 2
 504 711 l 1
 634 711 l 1
 634 254 l 2
 634 88 524 -16 349 -16 c 0
EndSplineSet
EndChar

StartChar: Ucircumflex
Encoding: 219 219 107
Width: 699
GlyphClass: 2
Flags: MW
HStem: -16 113<300 398.5 300 436.5> 691 20G<65 195 195 195 504 634 634 634> 770 146<192 413 192 413 286 414 286 507>
VStem: 65 130<254 711> 504 130<254 711>
AnchorPoint: "Anchor-3" 349 710 basechar 0
AnchorPoint: "Anchor-2" 463 2 basechar 0
AnchorPoint: "Anchor-0" 349 0 basechar 0
LayerCount: 2
Fore
SplineSet
192 770 m 1
 286 916 l 1
 413 916 l 1
 507 770 l 1
 414 770 l 1
 349 859 l 1
 285 770 l 1
 192 770 l 1
349 -16 m 0
 175 -16 65 88 65 254 c 2
 65 711 l 1
 195 711 l 1
 195 254 l 2
 195 153 251 97 349 97 c 0
 448 97 504 153 504 254 c 2
 504 711 l 1
 634 711 l 1
 634 254 l 2
 634 88 524 -16 349 -16 c 0
EndSplineSet
EndChar

StartChar: Udieresis
Encoding: 220 220 108
Width: 699
GlyphClass: 2
Flags: MW
HStem: -16 113<300 398.5 300 436.5> 691 20G<65 195 195 195 504 634 634 634> 780 113<186 311 186 311 388 512 186 388>
VStem: 65 130<254 711> 186 125<780 893 780 893> 388 124<780 893 780 893> 504 130<254 711>
AnchorPoint: "Anchor-3" 349 710 basechar 0
AnchorPoint: "Anchor-2" 463 2 basechar 0
AnchorPoint: "Anchor-0" 349 0 basechar 0
LayerCount: 2
Fore
SplineSet
186 780 m 1xec
 186 893 l 1
 311 893 l 1
 311 780 l 1
 186 780 l 1xec
388 780 m 1
 388 893 l 1
 512 893 l 1
 512 780 l 1
 388 780 l 1
349 -16 m 0
 175 -16 65 88 65 254 c 2
 65 711 l 1
 195 711 l 1
 195 254 l 2
 195 153 251 97 349 97 c 0
 448 97 504 153 504 254 c 2
 504 711 l 1
 634 711 l 1
 634 254 l 2xf2
 634 88 524 -16 349 -16 c 0
EndSplineSet
Substitution2: "'ss08' Style Set 8 in Latin lookup 41 subtable" Udieresis.ss08
Substitution2: "'aalt' Access All Alternates in Latin lookup 0 subtable" Udieresis.ss08
EndChar

StartChar: Ugrave
Encoding: 217 217 109
Width: 699
GlyphClass: 2
Flags: MW
HStem: -16 113<300 398.5 300 436.5> 691 20G<65 195 195 195 504 634 634 634> 775 141<307 307 307 346 217 407>
VStem: 65 130<254 711> 504 130<254 711>
AnchorPoint: "Anchor-3" 349 710 basechar 0
AnchorPoint: "Anchor-2" 463 2 basechar 0
AnchorPoint: "Anchor-0" 349 0 basechar 0
LayerCount: 2
Fore
SplineSet
307 775 m 1
 217 916 l 1
 346 916 l 1
 407 775 l 1
 307 775 l 1
349 -16 m 0
 175 -16 65 88 65 254 c 2
 65 711 l 1
 195 711 l 1
 195 254 l 2
 195 153 251 97 349 97 c 0
 448 97 504 153 504 254 c 2
 504 711 l 1
 634 711 l 1
 634 254 l 2
 634 88 524 -16 349 -16 c 0
EndSplineSet
EndChar

StartChar: Uhungarumlaut
Encoding: 368 368 110
Width: 699
GlyphClass: 2
Flags: MW
HStem: -16 113<300 398.5 300 436.5> 691 20G<65 195 195 195 504 634 634 634> 770 140<217 407 279 317 379 407 440 479 379 379>
VStem: 65 130<254 711> 504 130<254 711>
AnchorPoint: "Anchor-3" 349 710 basechar 0
AnchorPoint: "Anchor-2" 463 2 basechar 0
AnchorPoint: "Anchor-0" 349 0 basechar 0
LayerCount: 2
Fore
SplineSet
217 770 m 1
 279 910 l 1
 407 910 l 1
 317 770 l 1
 217 770 l 1
379 770 m 1
 440 910 l 1
 569 910 l 1
 479 770 l 1
 379 770 l 1
349 -16 m 0
 175 -16 65 88 65 254 c 2
 65 711 l 1
 195 711 l 1
 195 254 l 2
 195 153 251 97 349 97 c 0
 448 97 504 153 504 254 c 2
 504 711 l 1
 634 711 l 1
 634 254 l 2
 634 88 524 -16 349 -16 c 0
EndSplineSet
EndChar

StartChar: Umacron
Encoding: 362 362 111
Width: 699
GlyphClass: 2
Flags: MW
HStem: -16 113<300 398.5 300 436.5> 691 20G<65 195 195 195 504 634 634 634> 789 97<205 494 205 494>
VStem: 65 130<254 711> 205 289<789 886 789 886> 504 130<254 711>
AnchorPoint: "Anchor-3" 349 710 basechar 0
AnchorPoint: "Anchor-2" 463 2 basechar 0
AnchorPoint: "Anchor-0" 349 0 basechar 0
LayerCount: 2
Fore
SplineSet
205 789 m 1
 205 886 l 1
 494 886 l 1
 494 789 l 1
 205 789 l 1
349 -16 m 0
 175 -16 65 88 65 254 c 2
 65 711 l 1
 195 711 l 1
 195 254 l 2
 195 153 251 97 349 97 c 0
 448 97 504 153 504 254 c 2
 504 711 l 1
 634 711 l 1
 634 254 l 2xf4
 634 88 524 -16 349 -16 c 0
EndSplineSet
EndChar

StartChar: Uogonek
Encoding: 370 370 112
Width: 699
GlyphClass: 2
Flags: MW
HStem: -213 82<419.5 420> -16 113<348 348> 691 20G<65 195 195 195 504 634 634 634>
VStem: 65 130<254 711> 293 107<-113.5 -113> 504 130<254 711>
AnchorPoint: "Anchor-3" 349 710 basechar 0
AnchorPoint: "Anchor-2" 463 2 basechar 0
AnchorPoint: "Anchor-0" 349 0 basechar 0
LayerCount: 2
Fore
SplineSet
400 -213 m 0
 333 -213 293 -185 293 -133 c 0
 293 -93 320 -53 346 -19 c 2
 348 -16 l 1
 174 -15 65 89 65 254 c 2
 65 711 l 1
 195 711 l 1
 195 254 l 2
 195 153 251 97 349 97 c 0
 448 97 504 153 504 254 c 2
 504 711 l 1
 634 711 l 1
 634 254 l 2
 634 128 570 38 463 1 c 1
 432 -41 l 2
 410 -70 400 -89 400 -105 c 0
 400 -122 412 -131 427 -131 c 0
 445 -131 462 -125 473 -117 c 1
 500 -187 l 1
 483 -202 440 -213 400 -213 c 0
EndSplineSet
EndChar

StartChar: Uring
Encoding: 366 366 113
Width: 699
GlyphClass: 2
Flags: MW
HStem: -16 113<300 398.5 300 436.5> 691 20G<65 195 195 195 504 634 634 634> 751 60<338 360.5 338 377> 888 60<338 360.5>
VStem: 65 130<254 711> 250 61<838.5 861 838.5 878> 388 61<838.5 861> 504 130<254 711>
AnchorPoint: "Anchor-3" 349 710 basechar 0
AnchorPoint: "Anchor-2" 463 2 basechar 0
AnchorPoint: "Anchor-0" 349 0 basechar 0
LayerCount: 2
Fore
SplineSet
349 751 m 0
 293 751 250 794 250 850 c 0
 250 906 293 948 349 948 c 0
 405 948 449 906 449 850 c 0
 449 794 405 751 349 751 c 0
349 811 m 0
 372 811 388 827 388 850 c 0
 388 872 372 888 349 888 c 0
 327 888 311 872 311 850 c 0
 311 827 327 811 349 811 c 0
349 -16 m 0
 175 -16 65 88 65 254 c 2
 65 711 l 1
 195 711 l 1
 195 254 l 2
 195 153 251 97 349 97 c 0
 448 97 504 153 504 254 c 2
 504 711 l 1
 634 711 l 1
 634 254 l 2
 634 88 524 -16 349 -16 c 0
EndSplineSet
EndChar

StartChar: Utilde
Encoding: 360 360 114
Width: 699
GlyphClass: 2
Flags: MW
HStem: -16 113<300 398.5 300 436.5> 691 20G<65 195 195 195 504 634 634 634> 773 134<182 304 182 304> 780 78<403 420.5 403 440> 780 136<391.5 516> 829 78<278.5 297>
VStem: 65 130<254 711> 182 67<773 773> 448 68<916 916> 504 130<254 711>
AnchorPoint: "Anchor-3" 349 710 basechar 0
AnchorPoint: "Anchor-2" 463 2 basechar 0
AnchorPoint: "Anchor-0" 349 0 basechar 0
LayerCount: 2
Fore
SplineSet
406 780 m 0xca80
 377 780 357 788 332 808 c 0
 315 823 305 829 289 829 c 0xc540
 268 829 252 817 249 773 c 1xe140
 182 773 l 1
 183 857 224 907 288 907 c 0xc540
 320 907 342 898 367 878 c 0
 385 863 396 858 410 858 c 0xd280
 431 858 445 870 448 916 c 1
 516 916 l 1
 513 831 474 780 406 780 c 0xca80
349 -16 m 0
 175 -16 65 88 65 254 c 2
 65 711 l 1
 195 711 l 1
 195 254 l 2xc640
 195 153 251 97 349 97 c 0
 448 97 504 153 504 254 c 2
 504 711 l 1
 634 711 l 1
 634 254 l 2
 634 88 524 -16 349 -16 c 0
EndSplineSet
EndChar

StartChar: V
Encoding: 86 86 115
Width: 709
GlyphClass: 2
Flags: MW
HStem: 0 21G<276 276 276 432> 0 145<276 355 355 355 355 432> 690 20G<19 156 156 156 553 690 690 690>
VStem: 19 671<710 710>
AnchorPoint: "Anchor-3" 355 710 basechar 0
AnchorPoint: "Anchor-0" 355 0 basechar 0
LayerCount: 2
Fore
SplineSet
276 0 m 1xb0
 19 710 l 1
 156 710 l 1
 355 145 l 1x70
 553 710 l 1
 690 710 l 1
 432 0 l 1
 276 0 l 1xb0
EndSplineSet
EndChar

StartChar: W
Encoding: 87 87 116
Width: 991
GlyphClass: 2
Flags: MW
HStem: 0 21G<227 227 227 372 620 620 620 764> 0 180<227 304 304 304 304 372> 690 20G<37 174 174 174 435 556 556 556 816 954 954 954>
VStem: 37 917<710 710>
AnchorPoint: "Anchor-3" 496 710 basechar 0
AnchorPoint: "Anchor-0" 496 0 basechar 0
LayerCount: 2
Fore
SplineSet
227 0 m 1xb0
 37 710 l 1
 174 710 l 1
 304 180 l 1
 435 710 l 1
 556 710 l 1
 687 180 l 1x70
 816 710 l 1
 954 710 l 1
 764 0 l 1
 620 0 l 1
 496 486 l 1
 372 0 l 1
 227 0 l 1xb0
EndSplineSet
EndChar

StartChar: Wacute
Encoding: 7810 7810 117
Width: 991
GlyphClass: 2
Flags: MW
HStem: 0 21G<227 227 227 372 620 620 620 764> 0 180<227 304 304 304 304 372> 690 20G<37 174 174 174 435 556 556 556 816 954 954 954> 770 140<438 627 499 537>
VStem: 37 917<710 710>
AnchorPoint: "Anchor-3" 496 710 basechar 0
AnchorPoint: "Anchor-0" 496 0 basechar 0
LayerCount: 2
Fore
SplineSet
438 770 m 1xb8
 499 910 l 1
 627 910 l 1
 537 770 l 1
 438 770 l 1xb8
227 0 m 1
 37 710 l 1
 174 710 l 1
 304 180 l 1
 435 710 l 1
 556 710 l 1
 687 180 l 1x78
 816 710 l 1
 954 710 l 1
 764 0 l 1
 620 0 l 1
 496 486 l 1
 372 0 l 1
 227 0 l 1
EndSplineSet
EndChar

StartChar: Wcircumflex
Encoding: 372 372 118
Width: 991
GlyphClass: 2
Flags: MW
HStem: 0 21G<227 227 227 372 620 620 620 764> 0 180<227 304 304 304 304 372> 690 20G<37 174 174 174 435 556 556 556 816 954 954 954> 770 146<338 559 338 559 432 560 432 653>
VStem: 37 917<710 710>
AnchorPoint: "Anchor-3" 496 710 basechar 0
AnchorPoint: "Anchor-0" 496 0 basechar 0
LayerCount: 2
Fore
SplineSet
338 770 m 1xb8
 432 916 l 1
 559 916 l 1
 653 770 l 1
 560 770 l 1
 496 859 l 1
 431 770 l 1
 338 770 l 1xb8
227 0 m 1
 37 710 l 1
 174 710 l 1
 304 180 l 1
 435 710 l 1
 556 710 l 1
 687 180 l 1x78
 816 710 l 1
 954 710 l 1
 764 0 l 1
 620 0 l 1
 496 486 l 1
 372 0 l 1
 227 0 l 1
EndSplineSet
EndChar

StartChar: Wdieresis
Encoding: 7812 7812 119
Width: 991
GlyphClass: 2
Flags: MW
HStem: 0 21G<227 227 227 372 620 620 620 764> 0 180<227 304 304 304 304 372> 690 20G<37 174 174 174 435 556 556 556 816 954 954 954> 780 113<333 457 333 457 534 659 333 534>
VStem: 333 124<780 893 780 893> 534 125<780 893 780 893>
AnchorPoint: "Anchor-3" 496 710 basechar 0
AnchorPoint: "Anchor-0" 496 0 basechar 0
LayerCount: 2
Fore
SplineSet
333 780 m 1xbc
 333 893 l 1
 457 893 l 1
 457 780 l 1
 333 780 l 1xbc
534 780 m 1
 534 893 l 1
 659 893 l 1
 659 780 l 1
 534 780 l 1
227 0 m 1
 37 710 l 1
 174 710 l 1
 304 180 l 1
 435 710 l 1
 556 710 l 1
 687 180 l 1x7c
 816 710 l 1
 954 710 l 1
 764 0 l 1
 620 0 l 1
 496 486 l 1
 372 0 l 1
 227 0 l 1
EndSplineSet
Substitution2: "'ss08' Style Set 8 in Latin lookup 41 subtable" Wdieresis.ss08
Substitution2: "'aalt' Access All Alternates in Latin lookup 0 subtable" Wdieresis.ss08
EndChar

StartChar: Wgrave
Encoding: 7808 7808 120
Width: 991
GlyphClass: 2
Flags: MW
HStem: 0 21G<227 227 227 372 620 620 620 764> 0 180<227 304 304 304 304 372> 690 20G<37 174 174 174 435 556 556 556 816 954 954 954> 775 141<453 453 453 492 363 553>
VStem: 37 917<710 710>
AnchorPoint: "Anchor-3" 496 710 basechar 0
AnchorPoint: "Anchor-0" 496 0 basechar 0
LayerCount: 2
Fore
SplineSet
453 775 m 1xb8
 363 916 l 1
 492 916 l 1
 553 775 l 1
 453 775 l 1xb8
227 0 m 1
 37 710 l 1
 174 710 l 1
 304 180 l 1
 435 710 l 1
 556 710 l 1
 687 180 l 1x78
 816 710 l 1
 954 710 l 1
 764 0 l 1
 620 0 l 1
 496 486 l 1
 372 0 l 1
 227 0 l 1
EndSplineSet
EndChar

StartChar: X
Encoding: 88 88 121
Width: 660
GlyphClass: 2
Flags: MW
HStem: 0 21G<13 13 13 164 496 496 496 647> 690 20G<15 167 167 167 493 644 644 644>
VStem: 13 634<0 0>
AnchorPoint: "Anchor-3" 330 710 basechar 0
AnchorPoint: "Anchor-0" 330 0 basechar 0
LayerCount: 2
Fore
SplineSet
13 0 m 1
 252 356 l 1
 15 710 l 1
 167 710 l 1
 332 455 l 1
 493 710 l 1
 644 710 l 1
 408 358 l 1
 647 0 l 1
 496 0 l 1
 330 259 l 1
 164 0 l 1
 13 0 l 1
EndSplineSet
EndChar

StartChar: Y
Encoding: 89 89 122
Width: 613
GlyphClass: 2
Flags: MW
HStem: 0 21G<241 241 241 372> 690 20G<-7 139 139 139 474 620 620 620>
VStem: 241 131<0 280 0 280>
AnchorPoint: "Anchor-3" 307 710 basechar 0
AnchorPoint: "Anchor-0" 307 0 basechar 0
LayerCount: 2
Fore
SplineSet
241 0 m 1
 241 280 l 1
 -7 710 l 1
 139 710 l 1
 307 408 l 1
 474 710 l 1
 620 710 l 1
 372 280 l 1
 372 0 l 1
 241 0 l 1
EndSplineSet
EndChar

StartChar: Yacute
Encoding: 221 221 123
Width: 613
GlyphClass: 2
Flags: MW
HStem: 0 21G<241 241 241 372> 690 20G<-7 139 139 139 474 620 620 620> 770 140<249 439 310 349>
VStem: 241 131<0 280 0 280>
AnchorPoint: "Anchor-3" 307 710 basechar 0
AnchorPoint: "Anchor-0" 307 0 basechar 0
LayerCount: 2
Fore
SplineSet
249 770 m 1
 310 910 l 1
 439 910 l 1
 349 770 l 1
 249 770 l 1
241 0 m 1
 241 280 l 1
 -7 710 l 1
 139 710 l 1
 307 408 l 1
 474 710 l 1
 620 710 l 1
 372 280 l 1
 372 0 l 1
 241 0 l 1
EndSplineSet
EndChar

StartChar: Ycircumflex
Encoding: 374 374 124
Width: 613
GlyphClass: 2
Flags: MW
HStem: 0 21G<241 241 241 372> 690 20G<-7 139 139 139 474 620 620 620> 770 146<149 371 149 371 243 371 243 465>
VStem: 241 131<0 280 0 280>
AnchorPoint: "Anchor-3" 307 710 basechar 0
AnchorPoint: "Anchor-0" 307 0 basechar 0
LayerCount: 2
Fore
SplineSet
149 770 m 1
 243 916 l 1
 371 916 l 1
 465 770 l 1
 371 770 l 1
 307 859 l 1
 242 770 l 1
 149 770 l 1
241 0 m 1
 241 280 l 1
 -7 710 l 1
 139 710 l 1
 307 408 l 1
 474 710 l 1
 620 710 l 1
 372 280 l 1
 372 0 l 1
 241 0 l 1
EndSplineSet
EndChar

StartChar: Ydieresis
Encoding: 376 376 125
Width: 613
GlyphClass: 2
Flags: MW
HStem: 0 21G<241 241 241 372> 690 20G<-7 139 139 139 474 620 620 620> 780 113<144 269 144 269 345 470 144 345>
VStem: 144 125<780 893 780 893> 241 131<0 280 0 280> 345 125<780 893 780 893>
AnchorPoint: "Anchor-3" 307 710 basechar 0
AnchorPoint: "Anchor-0" 307 0 basechar 0
LayerCount: 2
Fore
SplineSet
144 780 m 1xf4
 144 893 l 1
 269 893 l 1
 269 780 l 1
 144 780 l 1xf4
345 780 m 1
 345 893 l 1
 470 893 l 1
 470 780 l 1
 345 780 l 1
241 0 m 1xe8
 241 280 l 1
 -7 710 l 1
 139 710 l 1
 307 408 l 1
 474 710 l 1
 620 710 l 1
 372 280 l 1
 372 0 l 1
 241 0 l 1xe8
EndSplineSet
Substitution2: "'ss08' Style Set 8 in Latin lookup 41 subtable" Ydieresis.ss08
Substitution2: "'aalt' Access All Alternates in Latin lookup 0 subtable" Ydieresis.ss08
EndChar

StartChar: Ygrave
Encoding: 7922 7922 126
Width: 613
GlyphClass: 2
Flags: MW
HStem: 0 21G<241 241 241 372> 690 20G<-7 139 139 139 474 620 620 620> 775 141<265 265 265 303 175 364>
VStem: 241 131<0 280 0 280>
AnchorPoint: "Anchor-3" 307 710 basechar 0
AnchorPoint: "Anchor-0" 307 0 basechar 0
LayerCount: 2
Fore
SplineSet
265 775 m 1
 175 916 l 1
 303 916 l 1
 364 775 l 1
 265 775 l 1
241 0 m 1
 241 280 l 1
 -7 710 l 1
 139 710 l 1
 307 408 l 1
 474 710 l 1
 620 710 l 1
 372 280 l 1
 372 0 l 1
 241 0 l 1
EndSplineSet
EndChar

StartChar: uni1EF8
Encoding: 7928 7928 127
Width: 613
GlyphClass: 2
Flags: MW
HStem: 0 21G<241 241 241 372> 690 20G<-7 139 139 139 474 620 620 620> 773 134<140 261 140 261> 780 78<360 378 360 397.5> 780 136<349.5 473> 829 78<236.5 255>
VStem: 140 67<773 773> 241 131<0 280 0 280> 406 67<916 916>
AnchorPoint: "Anchor-3" 307 710 basechar 0
AnchorPoint: "Anchor-0" 307 0 basechar 0
LayerCount: 2
Fore
SplineSet
364 780 m 0xc980
 335 780 314 788 290 808 c 0
 272 823 263 829 247 829 c 0xc7
 226 829 210 817 207 773 c 1xe3
 140 773 l 1
 141 857 181 907 245 907 c 0xc7
 277 907 300 898 325 878 c 0
 342 863 353 858 367 858 c 0xd180
 389 858 403 870 406 916 c 1
 473 916 l 1
 471 831 431 780 364 780 c 0xc980
241 0 m 1
 241 280 l 1
 -7 710 l 1
 139 710 l 1
 307 408 l 1
 474 710 l 1
 620 710 l 1
 372 280 l 1
 372 0 l 1
 241 0 l 1
EndSplineSet
EndChar

StartChar: Z
Encoding: 90 90 128
Width: 577
GlyphClass: 2
Flags: MW
HStem: 0 113<182 550 182 550> 597 113<42 380 42 538>
VStem: 27 523<0 112 112 112>
AnchorPoint: "Anchor-3" 297 710 basechar 0
AnchorPoint: "Anchor-0" 297 0 basechar 0
LayerCount: 2
Fore
SplineSet
27 0 m 1
 27 112 l 1
 380 597 l 1
 42 597 l 1
 42 710 l 1
 538 710 l 1
 538 598 l 1
 182 113 l 1
 550 113 l 1
 550 0 l 1
 27 0 l 1
EndSplineSet
EndChar

StartChar: Zacute
Encoding: 377 377 129
Width: 577
GlyphClass: 2
Flags: MW
HStem: 0 113<182 550 182 550> 597 113<42 380 42 538> 770 140<239 429 301 339>
VStem: 27 523<0 112 112 112>
AnchorPoint: "Anchor-3" 297 710 basechar 0
AnchorPoint: "Anchor-0" 297 0 basechar 0
LayerCount: 2
Fore
SplineSet
239 770 m 1
 301 910 l 1
 429 910 l 1
 339 770 l 1
 239 770 l 1
27 0 m 1
 27 112 l 1
 380 597 l 1
 42 597 l 1
 42 710 l 1
 538 710 l 1
 538 598 l 1
 182 113 l 1
 550 113 l 1
 550 0 l 1
 27 0 l 1
EndSplineSet
EndChar

StartChar: Zcaron
Encoding: 381 381 130
Width: 577
GlyphClass: 2
Flags: MW
HStem: 0 113<182 550 182 550> 597 113<42 380 42 538> 770 146<139 361 139 233>
VStem: 27 523<0 112 112 112>
AnchorPoint: "Anchor-3" 297 710 basechar 0
AnchorPoint: "Anchor-0" 297 0 basechar 0
LayerCount: 2
Fore
SplineSet
139 916 m 1
 233 916 l 1
 297 827 l 1
 362 916 l 1
 455 916 l 1
 361 770 l 1
 233 770 l 1
 139 916 l 1
27 0 m 1
 27 112 l 1
 380 597 l 1
 42 597 l 1
 42 710 l 1
 538 710 l 1
 538 598 l 1
 182 113 l 1
 550 113 l 1
 550 0 l 1
 27 0 l 1
EndSplineSet
EndChar

StartChar: Zdotaccent
Encoding: 379 379 131
Width: 577
GlyphClass: 2
Flags: MW
HStem: 0 113<182 550 182 550> 597 113<42 380 42 538> 781 114<231 364 231 364>
VStem: 231 133<781 895 781 895>
AnchorPoint: "Anchor-3" 297 710 basechar 0
AnchorPoint: "Anchor-0" 297 0 basechar 0
LayerCount: 2
Fore
SplineSet
231 781 m 1
 231 895 l 1
 364 895 l 1
 364 781 l 1
 231 781 l 1
27 0 m 1
 27 112 l 1
 380 597 l 1
 42 597 l 1
 42 710 l 1
 538 710 l 1
 538 598 l 1
 182 113 l 1
 550 113 l 1
 550 0 l 1
 27 0 l 1
EndSplineSet
Substitution2: "'ss08' Style Set 8 in Latin lookup 41 subtable" Zdotaccent.ss08
Substitution2: "'aalt' Access All Alternates in Latin lookup 0 subtable" Zdotaccent.ss08
EndChar

StartChar: uniA78B
Encoding: 42891 42891 132
Width: 210
GlyphClass: 1
Flags: MW
HStem: 690 20G<43 167 167 167>
VStem: 43 124<576 710 576 710>
LayerCount: 2
Fore
SplineSet
56 336 m 1
 43 576 l 1
 43 710 l 1
 167 710 l 1
 167 576 l 1
 154 336 l 1
 56 336 l 1
EndSplineSet
EndChar

StartChar: uni013B.loclMAH
Encoding: 65538 -1 133
Width: 586
GlyphClass: 2
Flags: MW
HStem: -158 108<253 289 253 373> 0 113<210 547 210 547> 690 20G<80 210 210 210>
VStem: 80 130<113 710 113 710 113 710> 253 120<-147 -50 -147 -50 -147 -50>
AnchorPoint: "Anchor-4" 368 534 basechar 0
AnchorPoint: "Anchor-3" 145 710 basechar 0
AnchorPoint: "Anchor-1" 180 380 basechar 0
AnchorPoint: "Anchor-0" 313 -249 basechar 0
LayerCount: 2
Fore
SplineSet
80 0 m 1
 80 710 l 1
 210 710 l 1
 210 113 l 1
 547 113 l 1
 547 0 l 1
 80 0 l 1
236 -249 m 1
 289 -158 l 1
 253 -158 l 1
 253 -50 l 1
 373 -50 l 1
 373 -147 l 1
 314 -249 l 1
 236 -249 l 1
EndSplineSet
EndChar

StartChar: uni0145.loclMAH
Encoding: 65539 -1 134
Width: 748
GlyphClass: 2
Flags: MW
HStem: -158 108<311 346 311 431> 0 21G<80 80 80 210 512 512 512 668> 690 20G<80 232 232 232 538 668 668 668>
VStem: 80 130<0 519 0 710> 311 120<-147 -50 -147 -50 -147 -50> 538 130<176 710 0 710>
AnchorPoint: "Anchor-3" 383 710 basechar 0
AnchorPoint: "Anchor-0" 371 -249 basechar 0
LayerCount: 2
Fore
SplineSet
80 0 m 1
 80 710 l 1
 232 710 l 1
 538 176 l 1
 538 710 l 1
 668 710 l 1
 668 0 l 1
 512 0 l 1
 210 519 l 1
 210 0 l 1
 80 0 l 1
293 -249 m 1
 346 -158 l 1
 311 -158 l 1
 311 -50 l 1
 431 -50 l 1
 431 -147 l 1
 371 -249 l 1
 293 -249 l 1
EndSplineSet
EndChar

StartChar: R.ss04
Encoding: 65540 -1 135
Width: 698
GlyphClass: 2
Flags: MW
HStem: 0 21G<80 80 80 210 503 503 503 644> 269 113<210 349 349 356 210 349> 597 113<210 349 210 210>
VStem: 80 130<0 269 382 597> 486 134<453 523.5>
AnchorPoint: "Anchor-3" 339 710 basechar 0
AnchorPoint: "Anchor-0" 339 0 basechar 0
LayerCount: 2
Fore
SplineSet
80 0 m 1
 80 710 l 1
 355 710 l 2
 523 710 620 628 620 488 c 0
 620 395 572 321 482 291 c 1
 644 0 l 1
 503 0 l 1
 356 269 l 1
 210 269 l 1
 210 0 l 1
 80 0 l 1
210 382 m 1
 349 382 l 2
 435 382 486 418 486 488 c 0
 486 559 435 597 349 597 c 2
 210 597 l 1
 210 382 l 1
EndSplineSet
EndChar

StartChar: Racute.ss04
Encoding: 65541 -1 136
Width: 698
GlyphClass: 2
Flags: MW
HStem: 0 21G<80 80 80 210 503 503 503 644> 269 113<210 349 349 356 210 349> 597 113<210 349 210 210> 770 140<281 471 342 381>
VStem: 80 130<0 269 382 597> 486 134<453 523.5>
AnchorPoint: "Anchor-3" 339 710 basechar 0
AnchorPoint: "Anchor-0" 339 0 basechar 0
LayerCount: 2
Fore
SplineSet
281 770 m 1
 342 910 l 1
 471 910 l 1
 381 770 l 1
 281 770 l 1
80 0 m 1
 80 710 l 1
 355 710 l 2
 523 710 620 628 620 488 c 0
 620 395 572 321 482 291 c 1
 644 0 l 1
 503 0 l 1
 356 269 l 1
 210 269 l 1
 210 0 l 1
 80 0 l 1
210 382 m 1
 349 382 l 2
 435 382 486 418 486 488 c 0
 486 559 435 597 349 597 c 2
 210 597 l 1
 210 382 l 1
EndSplineSet
EndChar

StartChar: Rcaron.ss04
Encoding: 65542 -1 137
Width: 698
GlyphClass: 2
Flags: MW
HStem: 0 21G<80 80 80 210 503 503 503 644> 269 113<210 349 349 356 210 349> 597 113<210 349 210 210> 770 146<181 403 181 275>
VStem: 80 130<0 269 382 597> 486 134<453 523.5>
AnchorPoint: "Anchor-3" 339 710 basechar 0
AnchorPoint: "Anchor-0" 339 0 basechar 0
LayerCount: 2
Fore
SplineSet
181 916 m 1
 274 916 l 1
 339 827 l 1
 403 916 l 1
 497 916 l 1
 403 770 l 1
 275 770 l 1
 181 916 l 1
80 0 m 1
 80 710 l 1
 355 710 l 2
 523 710 620 628 620 488 c 0
 620 395 572 321 482 291 c 1
 644 0 l 1
 503 0 l 1
 356 269 l 1
 210 269 l 1
 210 0 l 1
 80 0 l 1
210 382 m 1
 349 382 l 2
 435 382 486 418 486 488 c 0
 486 559 435 597 349 597 c 2
 210 597 l 1
 210 382 l 1
EndSplineSet
EndChar

StartChar: uni0156.ss04
Encoding: 65543 -1 138
Width: 698
GlyphClass: 2
Flags: MW
HStem: -158 108<279 314 279 399> 0 21G<80 80 80 210 503 503 503 644> 269 113<210 349 349 356 210 349> 597 113<210 349 210 210>
VStem: 80 130<0 269 382 597> 279 120<-147 -50 -147 -50 -147 -50> 486 134<453 523.5>
AnchorPoint: "Anchor-3" 339 710 basechar 0
AnchorPoint: "Anchor-0" 339 -249 basechar 0
LayerCount: 2
Fore
SplineSet
80 0 m 1
 80 710 l 1
 355 710 l 2
 523 710 620 628 620 488 c 0
 620 395 572 321 482 291 c 1
 644 0 l 1
 503 0 l 1
 356 269 l 1
 210 269 l 1
 210 0 l 1
 80 0 l 1
210 382 m 1
 349 382 l 2
 435 382 486 418 486 488 c 0
 486 559 435 597 349 597 c 2
 210 597 l 1
 210 382 l 1
261 -249 m 1
 314 -158 l 1
 279 -158 l 1
 279 -50 l 1
 399 -50 l 1
 399 -147 l 1
 339 -249 l 1
 261 -249 l 1
EndSplineSet
EndChar

StartChar: I.ss05
Encoding: 65544 -1 139
Width: 457
GlyphClass: 2
Flags: MW
HStem: 0 113<43 163 43 163 294 414> 597 113<49 163 49 408 294 294 294 408>
VStem: 163 131<113 597 113 597>
AnchorPoint: "Anchor-3" 228 710 basechar 0
AnchorPoint: "Anchor-2" 414 0 basechar 0
AnchorPoint: "Anchor-0" 228 0 basechar 0
LayerCount: 2
Fore
SplineSet
43 0 m 1
 43 113 l 1
 163 113 l 1
 163 597 l 1
 49 597 l 1
 49 710 l 1
 408 710 l 1
 408 597 l 1
 294 597 l 1
 294 113 l 1
 414 113 l 1
 414 0 l 1
 43 0 l 1
EndSplineSet
EndChar

StartChar: Iacute.ss05
Encoding: 65545 -1 140
Width: 457
GlyphClass: 2
Flags: MW
HStem: 0 113<43 163 43 163 294 414> 597 113<49 163 49 408 294 294 294 408> 770 140<170 360 232 270>
VStem: 163 131<113 597 113 597>
AnchorPoint: "Anchor-3" 228 710 basechar 0
AnchorPoint: "Anchor-2" 414 0 basechar 0
AnchorPoint: "Anchor-0" 228 0 basechar 0
LayerCount: 2
Fore
SplineSet
170 770 m 1
 232 910 l 1
 360 910 l 1
 270 770 l 1
 170 770 l 1
43 0 m 1
 43 113 l 1
 163 113 l 1
 163 597 l 1
 49 597 l 1
 49 710 l 1
 408 710 l 1
 408 597 l 1
 294 597 l 1
 294 113 l 1
 414 113 l 1
 414 0 l 1
 43 0 l 1
EndSplineSet
EndChar

StartChar: Icircumflex.ss05
Encoding: 65546 -1 141
Width: 457
GlyphClass: 2
Flags: MW
HStem: 0 113<43 163 43 163 294 414> 597 113<49 163 49 408 294 294 294 408> 770 146<70 292 70 292 164 293 164 386>
VStem: 163 131<113 597 113 597>
AnchorPoint: "Anchor-3" 228 710 basechar 0
AnchorPoint: "Anchor-2" 414 0 basechar 0
AnchorPoint: "Anchor-0" 228 0 basechar 0
LayerCount: 2
Fore
SplineSet
70 770 m 1
 164 916 l 1
 292 916 l 1
 386 770 l 1
 293 770 l 1
 228 859 l 1
 164 770 l 1
 70 770 l 1
43 0 m 1
 43 113 l 1
 163 113 l 1
 163 597 l 1
 49 597 l 1
 49 710 l 1
 408 710 l 1
 408 597 l 1
 294 597 l 1
 294 113 l 1
 414 113 l 1
 414 0 l 1
 43 0 l 1
EndSplineSet
EndChar

StartChar: Idieresis.ss05
Encoding: 65547 -1 142
Width: 457
GlyphClass: 2
Flags: MW
HStem: 0 113<43 163 43 163 294 414> 597 113<49 163 49 408 294 294 294 408> 780 113<65 190 65 190 266 391 65 266>
VStem: 49 141<597 893 710 893> 65 125<780 893 780 893> 163 131<113 597 113 597> 266 125<780 893 780 893> 266 142<597 893>
AnchorPoint: "Anchor-3" 228 710 basechar 0
AnchorPoint: "Anchor-2" 414 0 basechar 0
AnchorPoint: "Anchor-0" 228 0 basechar 0
LayerCount: 2
Fore
SplineSet
65 780 m 1xea
 65 893 l 1
 190 893 l 1
 190 780 l 1
 65 780 l 1xea
266 780 m 1
 266 893 l 1
 391 893 l 1
 391 780 l 1
 266 780 l 1
43 0 m 1
 43 113 l 1
 163 113 l 1
 163 597 l 1xe4
 49 597 l 1
 49 710 l 1
 408 710 l 1
 408 597 l 1xf1
 294 597 l 1
 294 113 l 1xe4
 414 113 l 1
 414 0 l 1
 43 0 l 1
EndSplineSet
Substitution2: "'ss08' Style Set 8 in Latin lookup 41 subtable" Idieresis.ss05.ss08
Substitution2: "'aalt' Access All Alternates in Latin lookup 0 subtable" Idieresis.ss05.ss08
EndChar

StartChar: Idotaccent.ss05
Encoding: 65548 -1 143
Width: 457
GlyphClass: 2
Flags: MW
HStem: 0 113<43 163 43 163 294 414> 597 113<49 163 49 408 294 294 294 408> 781 114<162 295 162 295>
VStem: 162 133<781 895 781 895> 163 131<113 597 113 597>
AnchorPoint: "Anchor-3" 228 710 basechar 0
AnchorPoint: "Anchor-2" 414 0 basechar 0
AnchorPoint: "Anchor-0" 228 0 basechar 0
LayerCount: 2
Fore
SplineSet
162 781 m 1xf0
 162 895 l 1
 295 895 l 1
 295 781 l 1
 162 781 l 1xf0
43 0 m 1
 43 113 l 1
 163 113 l 1
 163 597 l 1
 49 597 l 1
 49 710 l 1
 408 710 l 1
 408 597 l 1
 294 597 l 1
 294 113 l 1xe8
 414 113 l 1
 414 0 l 1
 43 0 l 1
EndSplineSet
Substitution2: "'ss08' Style Set 8 in Latin lookup 41 subtable" Idotaccent.ss05.ss08
Substitution2: "'aalt' Access All Alternates in Latin lookup 0 subtable" Idotaccent.ss05.ss08
EndChar

StartChar: Igrave.ss05
Encoding: 65549 -1 144
Width: 457
GlyphClass: 2
Flags: MW
HStem: 0 113<43 163 43 163 294 414> 597 113<49 163 49 408 294 294 294 408> 775 141<186 186 186 224 96 286>
VStem: 163 131<113 597 113 597>
AnchorPoint: "Anchor-3" 228 710 basechar 0
AnchorPoint: "Anchor-2" 414 0 basechar 0
AnchorPoint: "Anchor-0" 228 0 basechar 0
LayerCount: 2
Fore
SplineSet
186 775 m 1
 96 916 l 1
 224 916 l 1
 286 775 l 1
 186 775 l 1
43 0 m 1
 43 113 l 1
 163 113 l 1
 163 597 l 1
 49 597 l 1
 49 710 l 1
 408 710 l 1
 408 597 l 1
 294 597 l 1
 294 113 l 1
 414 113 l 1
 414 0 l 1
 43 0 l 1
EndSplineSet
EndChar

StartChar: Imacron.ss05
Encoding: 65550 -1 145
Width: 457
GlyphClass: 2
Flags: MW
HStem: 0 113<43 163 43 163 294 414> 597 113<49 163 49 408 294 294 294 408> 789 97<84 373 84 373>
VStem: 84 289<789 886 789 886> 163 131<113 597 113 597>
AnchorPoint: "Anchor-3" 228 710 basechar 0
AnchorPoint: "Anchor-2" 414 0 basechar 0
AnchorPoint: "Anchor-0" 228 0 basechar 0
LayerCount: 2
Fore
SplineSet
84 789 m 1xf0
 84 886 l 1
 373 886 l 1
 373 789 l 1
 84 789 l 1xf0
43 0 m 1
 43 113 l 1
 163 113 l 1
 163 597 l 1
 49 597 l 1
 49 710 l 1
 408 710 l 1
 408 597 l 1
 294 597 l 1
 294 113 l 1xe8
 414 113 l 1
 414 0 l 1
 43 0 l 1
EndSplineSet
EndChar

StartChar: Iogonek.ss05
Encoding: 65551 -1 146
Width: 457
GlyphClass: 2
Flags: MW
HStem: -215 83<317 386.5> 0 113<43 163 43 163 294 312> 597 113<49 163 49 408 294 294 294 408>
VStem: 163 131<113 597 113 597> 244 107<-115.5 -114.5>
AnchorPoint: "Anchor-3" 228 710 basechar 0
AnchorPoint: "Anchor-2" 414 0 basechar 0
AnchorPoint: "Anchor-0" 228 0 basechar 0
LayerCount: 2
Fore
SplineSet
43 0 m 1xe8
 43 113 l 1
 163 113 l 1
 163 597 l 1
 49 597 l 1
 49 710 l 1
 408 710 l 1
 408 597 l 1
 294 597 l 1
 294 113 l 1x70
 414 113 l 1
 414 0 l 1
 382 -42 l 2
 361 -72 351 -91 351 -107 c 0
 351 -124 363 -132 378 -132 c 0
 395 -132 413 -127 424 -119 c 1
 450 -189 l 1
 433 -203 391 -215 350 -215 c 0
 284 -215 244 -187 244 -134 c 0
 244 -95 271 -55 296 -20 c 2
 312 0 l 1
 43 0 l 1xe8
EndSplineSet
EndChar

StartChar: Itilde.ss05
Encoding: 65552 -1 147
Width: 457
GlyphClass: 2
Flags: MW
HStem: 0 113<43 163 43 163 294 414> 597 113<49 163 49 408 294 294 294 408> 773 134<61 182 61 182> 780 78<281.5 299 281.5 319> 780 136<270.5 394> 829 78<157.5 176>
VStem: 49 79<597 773 710 773> 61 67<773 773> 163 131<113 597 113 597> 327 67<916 916>
AnchorPoint: "Anchor-3" 228 710 basechar 0
AnchorPoint: "Anchor-2" 414 0 basechar 0
AnchorPoint: "Anchor-0" 228 0 basechar 0
LayerCount: 2
Fore
SplineSet
285 780 m 0xc8c0
 256 780 236 788 211 808 c 0
 193 823 184 829 168 829 c 0xc580
 147 829 131 817 128 773 c 1xe180
 61 773 l 1
 62 857 102 907 166 907 c 0xc580
 198 907 221 898 246 878 c 0
 264 863 275 858 288 858 c 0xd0c0
 310 858 324 870 327 916 c 1
 394 916 l 1
 392 831 353 780 285 780 c 0xc8c0
43 0 m 1
 43 113 l 1
 163 113 l 1
 163 597 l 1
 49 597 l 1
 49 710 l 1xc280
 408 710 l 1
 408 597 l 1
 294 597 l 1
 294 113 l 1
 414 113 l 1
 414 0 l 1
 43 0 l 1
EndSplineSet
EndChar

StartChar: G.ss06
Encoding: 65553 -1 148
Width: 716
GlyphClass: 2
Flags: MW
HStem: -16 113<306 428.5 306 469> 265 101<376 551 376 678> 613 113<306.5 427.5>
VStem: 43 134<279.5 426 279.5 459> 551 127<265 265>
AnchorPoint: "Anchor-3" 376 710 basechar 0
AnchorPoint: "Anchor-0" 378 0 basechar 0
LayerCount: 2
Fore
SplineSet
374 -16 m 0
 156 -16 43 145 43 354 c 0
 43 564 163 726 378 726 c 0
 547 726 647 632 676 482 c 1
 540 475 l 1
 525 556 479 613 376 613 c 0
 237 613 177 498 177 354 c 0
 177 205 240 97 372 97 c 0
 485 97 546 167 551 265 c 1
 376 265 l 1
 376 366 l 1
 678 366 l 1
 678 323 l 2
 678 102 564 -16 374 -16 c 0
EndSplineSet
EndChar

StartChar: Gbreve.ss06
Encoding: 65554 -1 149
Width: 716
GlyphClass: 2
Flags: MW
HStem: -16 113<306 428.5 306 469> 265 101<376 551 376 678> 613 113<306.5 427.5> 771 76<355 397 355 420.5>
VStem: 43 134<279.5 426 279.5 459> 551 127<265 265>
AnchorPoint: "Anchor-3" 376 710 basechar 0
AnchorPoint: "Anchor-0" 378 0 basechar 0
LayerCount: 2
Fore
SplineSet
376 771 m 0
 287 771 229 824 225 912 c 1
 302 912 l 1
 307 866 334 847 376 847 c 0
 418 847 444 866 449 912 c 1
 526 912 l 1
 522 824 465 771 376 771 c 0
374 -16 m 0
 156 -16 43 145 43 354 c 0
 43 564 163 726 378 726 c 0
 547 726 647 632 676 482 c 1
 540 475 l 1
 525 556 479 613 376 613 c 0
 237 613 177 498 177 354 c 0
 177 205 240 97 372 97 c 0
 485 97 546 167 551 265 c 1
 376 265 l 1
 376 366 l 1
 678 366 l 1
 678 323 l 2
 678 102 564 -16 374 -16 c 0
EndSplineSet
EndChar

StartChar: Gcircumflex.ss06
Encoding: 65555 -1 150
Width: 716
GlyphClass: 2
Flags: MW
HStem: -16 113<306 428.5 306 469> 265 101<376 551 376 678> 613 113<306.5 427.5> 770 146<218 440 218 440 312 440 312 534>
VStem: 43 134<279.5 426 279.5 459> 551 127<265 265>
AnchorPoint: "Anchor-3" 376 710 basechar 0
AnchorPoint: "Anchor-0" 378 0 basechar 0
LayerCount: 2
Fore
SplineSet
218 770 m 1
 312 916 l 1
 440 916 l 1
 534 770 l 1
 440 770 l 1
 376 859 l 1
 311 770 l 1
 218 770 l 1
374 -16 m 0
 156 -16 43 145 43 354 c 0
 43 564 163 726 378 726 c 0
 547 726 647 632 676 482 c 1
 540 475 l 1
 525 556 479 613 376 613 c 0
 237 613 177 498 177 354 c 0
 177 205 240 97 372 97 c 0
 485 97 546 167 551 265 c 1
 376 265 l 1
 376 366 l 1
 678 366 l 1
 678 323 l 2
 678 102 564 -16 374 -16 c 0
EndSplineSet
EndChar

StartChar: uni0122.ss06
Encoding: 65556 -1 151
Width: 716
GlyphClass: 2
Flags: MW
HStem: -158 108<318 353 318 438> -16 113<306 428.5 306 469> 265 101<376 551 376 678> 613 113<306.5 427.5>
VStem: 43 134<279.5 426 279.5 459> 318 120<-147 -50 -147 -50 -147 -50> 551 127<265 265>
AnchorPoint: "Anchor-3" 376 710 basechar 0
AnchorPoint: "Anchor-0" 378 -249 basechar 0
LayerCount: 2
Fore
SplineSet
374 -16 m 0
 156 -16 43 145 43 354 c 0
 43 564 163 726 378 726 c 0
 547 726 647 632 676 482 c 1
 540 475 l 1
 525 556 479 613 376 613 c 0
 237 613 177 498 177 354 c 0
 177 205 240 97 372 97 c 0
 485 97 546 167 551 265 c 1
 376 265 l 1
 376 366 l 1
 678 366 l 1
 678 323 l 2
 678 102 564 -16 374 -16 c 0
300 -249 m 1
 353 -158 l 1
 318 -158 l 1
 318 -50 l 1
 438 -50 l 1
 438 -147 l 1
 378 -249 l 1
 300 -249 l 1
EndSplineSet
EndChar

StartChar: Gdotaccent.ss06
Encoding: 65557 -1 152
Width: 716
GlyphClass: 2
Flags: MW
HStem: -16 113<306 428.5 306 469> 265 101<376 551 376 678> 613 113<306.5 427.5> 781 114<309 442 309 442>
VStem: 43 134<279.5 426 279.5 459> 309 133<781 895 781 895> 551 127<265 265>
AnchorPoint: "Anchor-3" 376 710 basechar 0
AnchorPoint: "Anchor-0" 378 0 basechar 0
LayerCount: 2
Fore
SplineSet
309 781 m 1
 309 895 l 1
 442 895 l 1
 442 781 l 1
 309 781 l 1
374 -16 m 0
 156 -16 43 145 43 354 c 0
 43 564 163 726 378 726 c 0
 547 726 647 632 676 482 c 1
 540 475 l 1
 525 556 479 613 376 613 c 0
 237 613 177 498 177 354 c 0
 177 205 240 97 372 97 c 0
 485 97 546 167 551 265 c 1
 376 265 l 1
 376 366 l 1
 678 366 l 1
 678 323 l 2
 678 102 564 -16 374 -16 c 0
EndSplineSet
Substitution2: "'ss08' Style Set 8 in Latin lookup 41 subtable" Gdotaccent.ss06.ss08
Substitution2: "'aalt' Access All Alternates in Latin lookup 0 subtable" Gdotaccent.ss06.ss08
EndChar

StartChar: uni1E20.ss06
Encoding: 65558 -1 153
Width: 716
GlyphClass: 2
Flags: MW
HStem: -16 113<306 428.5 306 469> 265 101<376 551 376 678> 613 113<306.5 427.5> 789 97<231 520 231 520>
VStem: 43 134<279.5 426 279.5 459> 231 289<789 886 789 886> 551 127<265 265>
AnchorPoint: "Anchor-3" 376 710 basechar 0
AnchorPoint: "Anchor-0" 378 0 basechar 0
LayerCount: 2
Fore
SplineSet
231 789 m 1
 231 886 l 1
 520 886 l 1
 520 789 l 1
 231 789 l 1
374 -16 m 0
 156 -16 43 145 43 354 c 0
 43 564 163 726 378 726 c 0
 547 726 647 632 676 482 c 1
 540 475 l 1
 525 556 479 613 376 613 c 0
 237 613 177 498 177 354 c 0
 177 205 240 97 372 97 c 0
 485 97 546 167 551 265 c 1
 376 265 l 1
 376 366 l 1
 678 366 l 1
 678 323 l 2
 678 102 564 -16 374 -16 c 0
EndSplineSet
EndChar

StartChar: Adieresis.ss08
Encoding: 65559 -1 154
Width: 709
GlyphClass: 2
Flags: MW
HStem: 0 21G<19 19 19 155 554 554 554 690> 168 111<252 457 252 495 214 457> 579 131<355 355> 690 20G<275 434 434 434> 773 129<235.5 274.5 435.5 474.5>
VStem: 190 130<817.5 857.5> 390 130<817.5 857.5>
AnchorPoint: "Anchor-3" 355 710 basechar 0
AnchorPoint: "Anchor-2" 690 0 basechar 0
AnchorPoint: "Anchor-0" 355 0 basechar 0
LayerCount: 2
Fore
SplineSet
255 773 m 0xde
 216 773 190 797 190 838 c 0
 190 877 216 902 255 902 c 0
 294 902 320 877 320 838 c 0
 320 797 294 773 255 773 c 0xde
455 773 m 0
 416 773 390 797 390 838 c 0
 390 877 416 902 455 902 c 0
 494 902 520 877 520 838 c 0
 520 797 494 773 455 773 c 0
19 0 m 1
 275 710 l 1
 434 710 l 1
 690 0 l 1
 554 0 l 1
 495 168 l 1
 214 168 l 1
 155 0 l 1
 19 0 l 1
252 279 m 1
 457 279 l 1
 355 579 l 1xee
 252 279 l 1
EndSplineSet
EndChar

StartChar: Cdotaccent.ss08
Encoding: 65560 -1 155
Width: 724
GlyphClass: 2
Flags: MW
HStem: -16 113<313 425 313 461.5> 613 113<312.5 422> 773 129<353 392.5>
VStem: 43 134<274 433 274 468> 306 133<817.5 857.5>
AnchorPoint: "Anchor-3" 372 710 basechar 0
AnchorPoint: "Anchor-0" 374 0 basechar 0
LayerCount: 2
Fore
SplineSet
373 773 m 0
 333 773 306 797 306 838 c 0
 306 877 333 902 373 902 c 0
 412 902 439 877 439 838 c 0
 439 797 412 773 373 773 c 0
372 -16 m 0
 178 -16 43 122 43 354 c 0
 43 582 174 726 373 726 c 0
 554 726 651 631 682 470 c 1
 546 463 l 1
 528 556 471 613 373 613 c 0
 252 613 177 512 177 354 c 0
 177 194 254 97 372 97 c 0
 478 97 534 158 550 260 c 1
 686 253 l 1
 658 86 551 -16 372 -16 c 0
EndSplineSet
EndChar

StartChar: Edieresis.ss08
Encoding: 65561 -1 156
Width: 615
GlyphClass: 2
Flags: MW
HStem: 0 113<210 566 210 566> 300 112<210 546 210 546> 597 113<210 558 210 210> 773 129<200.5 239.5 400.5 439.5>
VStem: 80 130<113 300 412 597> 155 130<817.5 857.5> 355 130<817.5 857.5>
AnchorPoint: "Anchor-3" 320 710 basechar 0
AnchorPoint: "Anchor-2" 566 0 basechar 0
AnchorPoint: "Anchor-0" 321 0 basechar 0
LayerCount: 2
Fore
SplineSet
220 773 m 0xf6
 181 773 155 797 155 838 c 0
 155 877 181 902 220 902 c 0
 259 902 285 877 285 838 c 0
 285 797 259 773 220 773 c 0xf6
420 773 m 0
 381 773 355 797 355 838 c 0
 355 877 381 902 420 902 c 0
 459 902 485 877 485 838 c 0
 485 797 459 773 420 773 c 0
80 0 m 1xe8
 80 710 l 1
 558 710 l 1
 558 597 l 1
 210 597 l 1
 210 412 l 1
 546 412 l 1
 546 300 l 1
 210 300 l 1
 210 113 l 1
 566 113 l 1
 566 0 l 1
 80 0 l 1xe8
EndSplineSet
EndChar

StartChar: Edotaccent.ss08
Encoding: 65562 -1 157
Width: 615
GlyphClass: 2
Flags: MW
HStem: 0 113<210 566 210 566> 300 112<210 546 210 546> 597 113<210 558 210 210> 773 129<301.5 340.5>
VStem: 80 130<113 300 412 597> 254 133<817.5 857.5>
AnchorPoint: "Anchor-3" 320 710 basechar 0
AnchorPoint: "Anchor-2" 566 0 basechar 0
AnchorPoint: "Anchor-0" 321 0 basechar 0
LayerCount: 2
Fore
SplineSet
321 773 m 0
 282 773 254 797 254 838 c 0
 254 877 282 902 321 902 c 0
 360 902 387 877 387 838 c 0
 387 797 360 773 321 773 c 0
80 0 m 1
 80 710 l 1
 558 710 l 1
 558 597 l 1
 210 597 l 1
 210 412 l 1
 546 412 l 1
 546 300 l 1
 210 300 l 1
 210 113 l 1
 566 113 l 1
 566 0 l 1
 80 0 l 1
EndSplineSet
EndChar

StartChar: Gdotaccent.ss08
Encoding: 65563 -1 158
Width: 726
GlyphClass: 2
Flags: MW
HStem: -16 113<307.5 417> 0 21G<594 678 594 594> 265 101<376 551 376 678> 613 113<307 426> 773 129<355.5 395>
VStem: 43 134<280 426 280 460.5> 309 133<817.5 857.5> 551 127<265 265> 591 87
AnchorPoint: "Anchor-3" 375 710 basechar 0
AnchorPoint: "Anchor-0" 378 0 basechar 0
LayerCount: 2
Fore
SplineSet
375 773 m 0xbe80
 336 773 309 797 309 838 c 0
 309 877 336 902 375 902 c 0
 415 902 442 877 442 838 c 0
 442 797 415 773 375 773 c 0xbe80
367 -16 m 0
 164 -16 43 137 43 354 c 0
 43 567 166 726 374 726 c 0
 554 726 646 627 676 482 c 1
 540 475 l 1
 525 558 477 613 375 613 c 0
 239 613 177 498 177 354 c 0
 177 206 239 97 376 97 c 0
 481 97 546 170 551 265 c 1xb5
 376 265 l 1
 376 366 l 1
 678 366 l 1
 678 0 l 1
 594 0 l 1x7480
 588 107 l 1
 552 33 467 -16 367 -16 c 0
EndSplineSet
EndChar

StartChar: Idieresis.ss08
Encoding: 65564 -1 159
Width: 290
GlyphClass: 2
Flags: MW
HStem: 0 21G<80 80 80 210> 690 20G<80 210 210 210> 773 129<25.5 64.5 225.5 264.5>
VStem: -20 130<817.5 857.5> 80 130<0 710 0 710> 180 130<817.5 857.5>
AnchorPoint: "Anchor-3" 145 710 basechar 0
AnchorPoint: "Anchor-2" 210 0 basechar 0
AnchorPoint: "Anchor-0" 145 0 basechar 0
LayerCount: 2
Fore
SplineSet
45 773 m 0xf4
 6 773 -20 797 -20 838 c 0
 -20 877 6 902 45 902 c 0
 84 902 110 877 110 838 c 0
 110 797 84 773 45 773 c 0xf4
245 773 m 0
 206 773 180 797 180 838 c 0
 180 877 206 902 245 902 c 0
 284 902 310 877 310 838 c 0
 310 797 284 773 245 773 c 0
80 0 m 1xe8
 80 710 l 1
 210 710 l 1
 210 0 l 1
 80 0 l 1xe8
EndSplineSet
EndChar

StartChar: Idotaccent.ss08
Encoding: 65565 -1 160
Width: 290
GlyphClass: 2
Flags: MW
HStem: 0 21G<80 80 80 210> 690 20G<80 210 210 210> 773 129<126 165.5>
VStem: 79 133<817.5 857.5> 80 130<0 710 0 710>
AnchorPoint: "Anchor-3" 145 710 basechar 0
AnchorPoint: "Anchor-2" 210 0 basechar 0
AnchorPoint: "Anchor-0" 145 0 basechar 0
LayerCount: 2
Fore
SplineSet
146 773 m 0xf0
 106 773 79 797 79 838 c 0
 79 877 106 902 146 902 c 0
 185 902 212 877 212 838 c 0
 212 797 185 773 146 773 c 0xf0
80 0 m 1xe8
 80 710 l 1
 210 710 l 1
 210 0 l 1
 80 0 l 1xe8
EndSplineSet
EndChar

StartChar: Odieresis.ss08
Encoding: 65566 -1 161
Width: 763
GlyphClass: 2
Flags: MW
HStem: -16 113<317.5 445.5 317.5 487> 613 113<317.5 445.5> 773 129<261.5 301 461.5 501>
VStem: 43 134<273 435 273 468.5> 217 129<817.5 857.5> 417 129<817.5 857.5> 586 134<273 435>
AnchorPoint: "Anchor-3" 381 710 basechar 0
AnchorPoint: "Anchor-1" 382 355 basechar 0
AnchorPoint: "Anchor-0" 381 0 basechar 0
LayerCount: 2
Fore
SplineSet
281 773 m 0
 242 773 217 797 217 838 c 0
 217 877 242 902 281 902 c 0
 321 902 346 877 346 838 c 0
 346 797 321 773 281 773 c 0
481 773 m 0
 442 773 417 797 417 838 c 0
 417 877 442 902 481 902 c 0
 521 902 546 877 546 838 c 0
 546 797 521 773 481 773 c 0
381 -16 m 0
 170 -16 43 125 43 354 c 0
 43 583 170 726 381 726 c 0
 593 726 720 583 720 354 c 0
 720 125 593 -16 381 -16 c 0
381 97 m 0
 510 97 586 192 586 354 c 0
 586 516 510 613 381 613 c 0
 254 613 177 516 177 354 c 0
 177 192 254 97 381 97 c 0
EndSplineSet
EndChar

StartChar: Udieresis.ss08
Encoding: 65567 -1 162
Width: 699
GlyphClass: 2
Flags: MW
HStem: -16 113<300 398.5 300 436.5> 691 20G<65 195 195 195 504 634 634 634> 773 129<229.5 269 429.5 469>
VStem: 65 130<254 711> 185 129<817.5 857.5> 385 129<817.5 857.5> 504 130<254 711>
AnchorPoint: "Anchor-3" 349 710 basechar 0
AnchorPoint: "Anchor-2" 463 2 basechar 0
AnchorPoint: "Anchor-0" 349 0 basechar 0
LayerCount: 2
Fore
SplineSet
249 773 m 0xec
 210 773 185 797 185 838 c 0
 185 877 210 902 249 902 c 0
 289 902 314 877 314 838 c 0
 314 797 289 773 249 773 c 0xec
449 773 m 0
 410 773 385 797 385 838 c 0
 385 877 410 902 449 902 c 0
 489 902 514 877 514 838 c 0
 514 797 489 773 449 773 c 0
349 -16 m 0
 175 -16 65 88 65 254 c 2
 65 711 l 1
 195 711 l 1
 195 254 l 2
 195 153 251 97 349 97 c 0
 448 97 504 153 504 254 c 2
 504 711 l 1
 634 711 l 1
 634 254 l 2xf2
 634 88 524 -16 349 -16 c 0
EndSplineSet
EndChar

StartChar: Wdieresis.ss08
Encoding: 65568 -1 163
Width: 991
GlyphClass: 2
Flags: MW
HStem: 0 21G<227 227 227 372 620 620 620 764> 0 180<227 304 304 304 304 372> 690 20G<37 174 174 174 435 556 556 556 816 954 954 954> 773 129<376 415.5 576 615.5>
VStem: 331 129<817.5 857.5> 531 129<817.5 857.5>
AnchorPoint: "Anchor-3" 496 710 basechar 0
AnchorPoint: "Anchor-0" 496 0 basechar 0
LayerCount: 2
Fore
SplineSet
396 773 m 0xbc
 356 773 331 797 331 838 c 0
 331 877 356 902 396 902 c 0
 435 902 460 877 460 838 c 0
 460 797 435 773 396 773 c 0xbc
596 773 m 0
 556 773 531 797 531 838 c 0
 531 877 556 902 596 902 c 0
 635 902 660 877 660 838 c 0
 660 797 635 773 596 773 c 0
227 0 m 1
 37 710 l 1
 174 710 l 1
 304 180 l 1
 435 710 l 1
 556 710 l 1
 687 180 l 1x7c
 816 710 l 1
 954 710 l 1
 764 0 l 1
 620 0 l 1
 496 486 l 1
 372 0 l 1
 227 0 l 1
EndSplineSet
EndChar

StartChar: Ydieresis.ss08
Encoding: 65569 -1 164
Width: 613
GlyphClass: 2
Flags: MW
HStem: 0 21G<241 241 241 372> 690 20G<-7 139 139 139 474 620 620 620> 773 129<187.5 226.5 387.5 426.5>
VStem: 142 130<817.5 857.5> 241 131<0 280 0 280> 342 130<817.5 857.5>
AnchorPoint: "Anchor-3" 307 710 basechar 0
AnchorPoint: "Anchor-0" 307 0 basechar 0
LayerCount: 2
Fore
SplineSet
207 773 m 0xf4
 168 773 142 797 142 838 c 0
 142 877 168 902 207 902 c 0
 246 902 272 877 272 838 c 0
 272 797 246 773 207 773 c 0xf4
407 773 m 0
 368 773 342 797 342 838 c 0
 342 877 368 902 407 902 c 0
 446 902 472 877 472 838 c 0
 472 797 446 773 407 773 c 0
241 0 m 1xe8
 241 280 l 1
 -7 710 l 1
 139 710 l 1
 307 408 l 1
 474 710 l 1
 620 710 l 1
 372 280 l 1
 372 0 l 1
 241 0 l 1xe8
EndSplineSet
EndChar

StartChar: Zdotaccent.ss08
Encoding: 65570 -1 165
Width: 577
GlyphClass: 2
Flags: MW
HStem: 0 113<182 550 182 550> 597 113<42 380 42 538> 773 129<278.5 317.5>
VStem: 231 133<817.5 857.5>
AnchorPoint: "Anchor-3" 297 710 basechar 0
AnchorPoint: "Anchor-0" 297 0 basechar 0
LayerCount: 2
Fore
SplineSet
298 773 m 0
 259 773 231 797 231 838 c 0
 231 877 259 902 298 902 c 0
 337 902 364 877 364 838 c 0
 364 797 337 773 298 773 c 0
27 0 m 1
 27 112 l 1
 380 597 l 1
 42 597 l 1
 42 710 l 1
 538 710 l 1
 538 598 l 1
 182 113 l 1
 550 113 l 1
 550 0 l 1
 27 0 l 1
EndSplineSet
EndChar

StartChar: Idieresis.ss05.ss08
Encoding: 65571 -1 166
Width: 457
GlyphClass: 2
Flags: MW
HStem: 0 113<43 163 43 163 294 414> 597 113<49 163 49 408 294 294 294 408> 773 129<108.5 147.5 308.5 347.5>
VStem: 63 130<817.5 857.5> 163 131<113 597 113 597> 263 130<817.5 857.5>
AnchorPoint: "Anchor-3" 228 710 basechar 0
AnchorPoint: "Anchor-2" 414 0 basechar 0
AnchorPoint: "Anchor-0" 228 0 basechar 0
LayerCount: 2
Fore
SplineSet
128 773 m 0xf4
 89 773 63 797 63 838 c 0
 63 877 89 902 128 902 c 0
 167 902 193 877 193 838 c 0
 193 797 167 773 128 773 c 0xf4
328 773 m 0
 289 773 263 797 263 838 c 0
 263 877 289 902 328 902 c 0
 367 902 393 877 393 838 c 0
 393 797 367 773 328 773 c 0
43 0 m 1
 43 113 l 1
 163 113 l 1
 163 597 l 1
 49 597 l 1
 49 710 l 1
 408 710 l 1
 408 597 l 1
 294 597 l 1
 294 113 l 1xc8
 414 113 l 1
 414 0 l 1
 43 0 l 1
EndSplineSet
EndChar

StartChar: Idotaccent.ss05.ss08
Encoding: 65572 -1 167
Width: 457
GlyphClass: 2
Flags: MW
HStem: 0 113<43 163 43 163 294 414> 597 113<49 163 49 408 294 294 294 408> 773 129<209.5 248.5>
VStem: 162 133<817.5 857.5> 163 131<113 597 113 597>
AnchorPoint: "Anchor-3" 228 710 basechar 0
AnchorPoint: "Anchor-2" 414 0 basechar 0
AnchorPoint: "Anchor-0" 228 0 basechar 0
LayerCount: 2
Fore
SplineSet
229 773 m 0xf0
 190 773 162 797 162 838 c 0
 162 877 190 902 229 902 c 0
 268 902 295 877 295 838 c 0
 295 797 268 773 229 773 c 0xf0
43 0 m 1
 43 113 l 1
 163 113 l 1
 163 597 l 1
 49 597 l 1
 49 710 l 1
 408 710 l 1
 408 597 l 1
 294 597 l 1
 294 113 l 1xc8
 414 113 l 1
 414 0 l 1
 43 0 l 1
EndSplineSet
EndChar

StartChar: Gdotaccent.ss06.ss08
Encoding: 65573 -1 168
Width: 716
GlyphClass: 2
Flags: MW
HStem: -16 113<306 428.5 306 469> 265 101<376 551 376 678> 613 113<306.5 427.5> 773 129<356.5 396>
VStem: 43 134<279.5 426 279.5 459> 310 133<817.5 857.5> 551 127<265 265>
AnchorPoint: "Anchor-3" 376 710 basechar 0
AnchorPoint: "Anchor-0" 378 0 basechar 0
LayerCount: 2
Fore
SplineSet
376 773 m 0
 337 773 310 797 310 838 c 0
 310 877 337 902 376 902 c 0
 416 902 443 877 443 838 c 0
 443 797 416 773 376 773 c 0
374 -16 m 0
 156 -16 43 145 43 354 c 0
 43 564 163 726 378 726 c 0
 547 726 647 632 676 482 c 1
 540 475 l 1
 525 556 479 613 376 613 c 0
 237 613 177 498 177 354 c 0
 177 205 240 97 372 97 c 0
 485 97 546 167 551 265 c 1
 376 265 l 1
 376 366 l 1
 678 366 l 1
 678 323 l 2
 678 102 564 -16 374 -16 c 0
EndSplineSet
EndChar

StartChar: A_I.dlig
Encoding: 65574 -1 169
Width: 1166
GlyphClass: 3
Flags: MW
HStem: 0 113<554 872 752 872 1003 1123 752 872> 168 111<252 457 252 495 214 457> 597 113<758 872 1003 1003 1003 1117>
VStem: 872 131<113 597 113 597>
AnchorPoint: "Anchor-8" 355 710 baselig 0
AnchorPoint: "Anchor-7" 690 0 baselig 0
AnchorPoint: "Anchor-5" 355 0 baselig 0
AnchorPoint: "Anchor-8" 937 710 baselig 1
AnchorPoint: "Anchor-5" 937 0 baselig 1
AnchorPoint: "Anchor-7" 1123 0 baselig 1
LayerCount: 2
Fore
SplineSet
19 0 m 1
 275 710 l 1
 434 710 l 1
 690 0 l 1
 554 0 l 1
 495 168 l 1
 214 168 l 1
 155 0 l 1
 19 0 l 1
752 0 m 1
 752 113 l 1
 872 113 l 1
 872 597 l 1
 758 597 l 1
 758 710 l 1
 1117 710 l 1
 1117 597 l 1
 1003 597 l 1
 1003 113 l 1
 1123 113 l 1
 1123 0 l 1
 752 0 l 1
252 279 m 1
 457 279 l 1
 355 579 l 1
 252 279 l 1
EndSplineSet
Ligature2: "'dlig' Discretionary Ligatures in Latin lookup 32 subtable" A I
EndChar

StartChar: U_I.dlig
Encoding: 65575 -1 170
Width: 1155
GlyphClass: 3
Flags: MW
HStem: -16 113<300 398.5 300 436.5> 0 113<742 862 742 862 992 1112> 597 113<748 862 748 1106 992 992 992 1106>
VStem: 65 130<254 711> 504 130<254 711> 862 130<113 597 113 597>
AnchorPoint: "Anchor-8" 349 710 baselig 0
AnchorPoint: "Anchor-7" 463 2 baselig 0
AnchorPoint: "Anchor-5" 349 0 baselig 0
AnchorPoint: "Anchor-8" 927 710 baselig 1
AnchorPoint: "Anchor-5" 927 0 baselig 1
AnchorPoint: "Anchor-7" 1112 0 baselig 1
LayerCount: 2
Fore
SplineSet
349 -16 m 0xbc
 175 -16 65 88 65 254 c 2
 65 711 l 1
 195 711 l 1
 195 254 l 2
 195 153 251 97 349 97 c 0
 448 97 504 153 504 254 c 2
 504 711 l 1
 634 711 l 1
 634 254 l 2
 634 88 524 -16 349 -16 c 0xbc
742 0 m 1x7c
 742 113 l 1
 862 113 l 1
 862 597 l 1
 748 597 l 1
 748 710 l 1
 1106 710 l 1
 1106 597 l 1
 992 597 l 1
 992 113 l 1
 1112 113 l 1
 1112 0 l 1
 742 0 l 1x7c
EndSplineSet
Ligature2: "'dlig' Discretionary Ligatures in Latin lookup 32 subtable" U I
EndChar

StartChar: a
Encoding: 97 97 171
Width: 580
GlyphClass: 2
Flags: MW
HStem: -12 93<225.5 268.5> -4 97<489 565> 447 99<256 321>
VStem: 39 133<125 164.5 125 180> 390 128<216 246 246 246>
AnchorPoint: "Anchor-3" 290 534 basechar 0
AnchorPoint: "Anchor-2" 565 0 basechar 0
AnchorPoint: "Anchor-0" 284 0 basechar 0
LayerCount: 2
Fore
SplineSet
225 -12 m 0xa8
 113 -12 39 41 39 134 c 0
 39 226 96 275 213 298 c 2
 390 333 l 1
 390 408 355 447 287 447 c 0
 225 447 190 418 178 364 c 1
 48 370 l 1
 69 482 155 546 287 546 c 0
 439 546 518 466 518 324 c 2
 518 130 l 2
 518 101 528 93 548 93 c 2
 565 93 l 1
 565 0 l 1
 556 -2 536 -4 518 -4 c 0x78
 460 -4 417 17 407 82 c 1
 380 25 312 -12 225 -12 c 0xa8
251 81 m 0
 336 81 390 135 390 216 c 2
 390 246 l 1
 252 218 l 2
 195 207 172 183 172 146 c 0xb8
 172 104 200 81 251 81 c 0
EndSplineSet
Substitution2: "'ss02' Style Set 2 in Latin lookup 35 subtable" a.ss02
Substitution2: "'ss01' Style Set 1 in Latin lookup 34 subtable" a.ss01
Substitution2: "Single Substitution lookup 27 subtable" ordfeminine
AlternateSubs2: "'aalt' Access All Alternates in Latin lookup 1 subtable" ordfeminine a.ss01 a.ss02
EndChar

StartChar: aacute
Encoding: 225 225 172
Width: 580
GlyphClass: 2
Flags: MW
HStem: -12 93<225.5 268.5> -4 97<489 565> 447 99<256 321> 594 140<233 422 294 332>
VStem: 39 133<125 164.5 125 180> 390 128<216 246 246 246>
AnchorPoint: "Anchor-3" 290 534 basechar 0
AnchorPoint: "Anchor-2" 565 0 basechar 0
AnchorPoint: "Anchor-0" 284 0 basechar 0
LayerCount: 2
Fore
SplineSet
233 594 m 1xb4
 294 734 l 1
 422 734 l 1
 332 594 l 1
 233 594 l 1xb4
225 -12 m 0
 113 -12 39 41 39 134 c 0
 39 226 96 275 213 298 c 2
 390 333 l 1
 390 408 355 447 287 447 c 0
 225 447 190 418 178 364 c 1
 48 370 l 1
 69 482 155 546 287 546 c 0
 439 546 518 466 518 324 c 2
 518 130 l 2
 518 101 528 93 548 93 c 2
 565 93 l 1
 565 0 l 1
 556 -2 536 -4 518 -4 c 0x7c
 460 -4 417 17 407 82 c 1
 380 25 312 -12 225 -12 c 0
251 81 m 0
 336 81 390 135 390 216 c 2
 390 246 l 1
 252 218 l 2
 195 207 172 183 172 146 c 0xbc
 172 104 200 81 251 81 c 0
EndSplineSet
Substitution2: "'ss02' Style Set 2 in Latin lookup 35 subtable" aacute.ss02
Substitution2: "'ss01' Style Set 1 in Latin lookup 34 subtable" aacute.ss01
AlternateSubs2: "'aalt' Access All Alternates in Latin lookup 1 subtable" aacute.ss01 aacute.ss02
EndChar

StartChar: abreve
Encoding: 259 259 173
Width: 580
GlyphClass: 2
Flags: MW
HStem: -12 93<225.5 268.5> -4 97<489 565> 447 99<256 321> 595 76<269 311 269 335>
VStem: 39 133<125 164.5 125 180> 390 128<216 246 246 246>
AnchorPoint: "Anchor-3" 290 534 basechar 0
AnchorPoint: "Anchor-2" 565 0 basechar 0
AnchorPoint: "Anchor-0" 284 0 basechar 0
LayerCount: 2
Fore
SplineSet
290 595 m 0xb4
 201 595 143 648 139 736 c 1
 216 736 l 1
 222 690 248 671 290 671 c 0
 332 671 359 690 364 736 c 1
 441 736 l 1
 437 648 380 595 290 595 c 0xb4
225 -12 m 0
 113 -12 39 41 39 134 c 0
 39 226 96 275 213 298 c 2
 390 333 l 1
 390 408 355 447 287 447 c 0
 225 447 190 418 178 364 c 1
 48 370 l 1
 69 482 155 546 287 546 c 0
 439 546 518 466 518 324 c 2
 518 130 l 2
 518 101 528 93 548 93 c 2
 565 93 l 1
 565 0 l 1
 556 -2 536 -4 518 -4 c 0x7c
 460 -4 417 17 407 82 c 1
 380 25 312 -12 225 -12 c 0
251 81 m 0
 336 81 390 135 390 216 c 2
 390 246 l 1
 252 218 l 2
 195 207 172 183 172 146 c 0xbc
 172 104 200 81 251 81 c 0
EndSplineSet
Substitution2: "'ss02' Style Set 2 in Latin lookup 35 subtable" abreve.ss02
Substitution2: "'ss01' Style Set 1 in Latin lookup 34 subtable" abreve.ss01
AlternateSubs2: "'aalt' Access All Alternates in Latin lookup 1 subtable" abreve.ss01 abreve.ss02
EndChar

StartChar: uni01CE
Encoding: 462 462 174
Width: 580
GlyphClass: 2
Flags: MW
HStem: -12 93<225.5 268.5> -4 97<489 565> 447 99<256 321> 594 146<133 354 133 227>
VStem: 39 133<125 164.5 125 180> 390 128<216 246 246 246>
AnchorPoint: "Anchor-3" 290 534 basechar 0
AnchorPoint: "Anchor-2" 565 0 basechar 0
AnchorPoint: "Anchor-0" 284 0 basechar 0
LayerCount: 2
Fore
SplineSet
133 740 m 1xb4
 226 740 l 1
 290 651 l 1
 355 740 l 1
 448 740 l 1
 354 594 l 1
 227 594 l 1
 133 740 l 1xb4
225 -12 m 0
 113 -12 39 41 39 134 c 0
 39 226 96 275 213 298 c 2
 390 333 l 1
 390 408 355 447 287 447 c 0
 225 447 190 418 178 364 c 1
 48 370 l 1
 69 482 155 546 287 546 c 0
 439 546 518 466 518 324 c 2
 518 130 l 2
 518 101 528 93 548 93 c 2
 565 93 l 1
 565 0 l 1
 556 -2 536 -4 518 -4 c 0x7c
 460 -4 417 17 407 82 c 1
 380 25 312 -12 225 -12 c 0
251 81 m 0
 336 81 390 135 390 216 c 2
 390 246 l 1
 252 218 l 2
 195 207 172 183 172 146 c 0xbc
 172 104 200 81 251 81 c 0
EndSplineSet
Substitution2: "'ss02' Style Set 2 in Latin lookup 35 subtable" uni01CE.ss02
Substitution2: "'ss01' Style Set 1 in Latin lookup 34 subtable" uni01CE.ss01
AlternateSubs2: "'aalt' Access All Alternates in Latin lookup 1 subtable" uni01CE.ss01 uni01CE.ss02
EndChar

StartChar: acircumflex
Encoding: 226 226 175
Width: 580
GlyphClass: 2
Flags: MW
HStem: -12 93<225.5 268.5> -4 97<489 565> 447 99<256 321> 594 146<133 354 133 354 227 355 227 448>
VStem: 39 133<125 164.5 125 180> 390 128<216 246 246 246>
AnchorPoint: "Anchor-3" 290 534 basechar 0
AnchorPoint: "Anchor-2" 565 0 basechar 0
AnchorPoint: "Anchor-0" 284 0 basechar 0
LayerCount: 2
Fore
SplineSet
133 594 m 1xb4
 227 740 l 1
 354 740 l 1
 448 594 l 1
 355 594 l 1
 290 683 l 1
 226 594 l 1
 133 594 l 1xb4
225 -12 m 0
 113 -12 39 41 39 134 c 0
 39 226 96 275 213 298 c 2
 390 333 l 1
 390 408 355 447 287 447 c 0
 225 447 190 418 178 364 c 1
 48 370 l 1
 69 482 155 546 287 546 c 0
 439 546 518 466 518 324 c 2
 518 130 l 2
 518 101 528 93 548 93 c 2
 565 93 l 1
 565 0 l 1
 556 -2 536 -4 518 -4 c 0x7c
 460 -4 417 17 407 82 c 1
 380 25 312 -12 225 -12 c 0
251 81 m 0
 336 81 390 135 390 216 c 2
 390 246 l 1
 252 218 l 2
 195 207 172 183 172 146 c 0xbc
 172 104 200 81 251 81 c 0
EndSplineSet
Substitution2: "'ss02' Style Set 2 in Latin lookup 35 subtable" acircumflex.ss02
Substitution2: "'ss01' Style Set 1 in Latin lookup 34 subtable" acircumflex.ss01
AlternateSubs2: "'aalt' Access All Alternates in Latin lookup 1 subtable" acircumflex.ss01 acircumflex.ss02
EndChar

StartChar: adieresis
Encoding: 228 228 176
Width: 580
GlyphClass: 2
Flags: MW
HStem: -12 93<225.5 268.5> -4 97<489 565> 447 99<256 321> 604 113<127 252 127 252 329 453 127 329>
VStem: 39 133<125 164.5 125 180> 127 125<604 717> 329 124<604 717 604 717> 390 128<216 246 246 246>
AnchorPoint: "Anchor-3" 290 534 basechar 0
AnchorPoint: "Anchor-2" 565 0 basechar 0
AnchorPoint: "Anchor-0" 284 0 basechar 0
LayerCount: 2
Fore
SplineSet
127 604 m 1xb6
 127 717 l 1
 252 717 l 1
 252 604 l 1
 127 604 l 1xb6
329 604 m 1
 329 717 l 1
 453 717 l 1
 453 604 l 1
 329 604 l 1
225 -12 m 0
 113 -12 39 41 39 134 c 0
 39 226 96 275 213 298 c 2
 390 333 l 1
 390 408 355 447 287 447 c 0
 225 447 190 418 178 364 c 1
 48 370 l 1
 69 482 155 546 287 546 c 0
 439 546 518 466 518 324 c 2
 518 130 l 2
 518 101 528 93 548 93 c 2
 565 93 l 1
 565 0 l 1
 556 -2 536 -4 518 -4 c 0x79
 460 -4 417 17 407 82 c 1
 380 25 312 -12 225 -12 c 0
251 81 m 0
 336 81 390 135 390 216 c 2
 390 246 l 1
 252 218 l 2
 195 207 172 183 172 146 c 0xb9
 172 104 200 81 251 81 c 0
EndSplineSet
Substitution2: "'ss08' Style Set 8 in Latin lookup 41 subtable" adieresis.ss08
Substitution2: "'ss02' Style Set 2 in Latin lookup 35 subtable" adieresis.ss02
Substitution2: "'ss01' Style Set 1 in Latin lookup 34 subtable" adieresis.ss01
AlternateSubs2: "'aalt' Access All Alternates in Latin lookup 1 subtable" adieresis.ss01 adieresis.ss02 adieresis.ss08
EndChar

StartChar: agrave
Encoding: 224 224 177
Width: 580
GlyphClass: 2
Flags: MW
HStem: -12 93<225.5 268.5> -4 97<489 565> 447 99<256 321> 599 141<248 248 248 287 158 348>
VStem: 39 133<125 164.5 125 180> 390 128<216 246 246 246>
AnchorPoint: "Anchor-3" 290 534 basechar 0
AnchorPoint: "Anchor-2" 565 0 basechar 0
AnchorPoint: "Anchor-0" 284 0 basechar 0
LayerCount: 2
Fore
SplineSet
248 599 m 1xb4
 158 740 l 1
 287 740 l 1
 348 599 l 1
 248 599 l 1xb4
225 -12 m 0
 113 -12 39 41 39 134 c 0
 39 226 96 275 213 298 c 2
 390 333 l 1
 390 408 355 447 287 447 c 0
 225 447 190 418 178 364 c 1
 48 370 l 1
 69 482 155 546 287 546 c 0
 439 546 518 466 518 324 c 2
 518 130 l 2
 518 101 528 93 548 93 c 2
 565 93 l 1
 565 0 l 1
 556 -2 536 -4 518 -4 c 0x7c
 460 -4 417 17 407 82 c 1
 380 25 312 -12 225 -12 c 0
251 81 m 0
 336 81 390 135 390 216 c 2
 390 246 l 1
 252 218 l 2
 195 207 172 183 172 146 c 0xbc
 172 104 200 81 251 81 c 0
EndSplineSet
Substitution2: "'ss02' Style Set 2 in Latin lookup 35 subtable" agrave.ss02
Substitution2: "'ss01' Style Set 1 in Latin lookup 34 subtable" agrave.ss01
AlternateSubs2: "'aalt' Access All Alternates in Latin lookup 1 subtable" agrave.ss01 agrave.ss02
EndChar

StartChar: amacron
Encoding: 257 257 178
Width: 580
GlyphClass: 2
Flags: MW
HStem: -12 93<225.5 268.5> -4 97<489 565> 447 99<256 321> 613 97<146 435 146 435>
VStem: 39 133<125 164.5 125 180> 146 289<613 710 613 710> 390 128<216 246 246 246>
AnchorPoint: "Anchor-3" 290 534 basechar 0
AnchorPoint: "Anchor-2" 565 0 basechar 0
AnchorPoint: "Anchor-0" 284 0 basechar 0
LayerCount: 2
Fore
SplineSet
146 613 m 1xb4
 146 710 l 1
 435 710 l 1
 435 613 l 1
 146 613 l 1xb4
225 -12 m 0
 113 -12 39 41 39 134 c 0
 39 226 96 275 213 298 c 2
 390 333 l 1
 390 408 355 447 287 447 c 0
 225 447 190 418 178 364 c 1
 48 370 l 1
 69 482 155 546 287 546 c 0
 439 546 518 466 518 324 c 2
 518 130 l 2
 518 101 528 93 548 93 c 2
 565 93 l 1
 565 0 l 1
 556 -2 536 -4 518 -4 c 0x7a
 460 -4 417 17 407 82 c 1
 380 25 312 -12 225 -12 c 0
251 81 m 0
 336 81 390 135 390 216 c 2
 390 246 l 1
 252 218 l 2
 195 207 172 183 172 146 c 0xba
 172 104 200 81 251 81 c 0
EndSplineSet
Substitution2: "'ss02' Style Set 2 in Latin lookup 35 subtable" amacron.ss02
Substitution2: "'ss01' Style Set 1 in Latin lookup 34 subtable" amacron.ss01
AlternateSubs2: "'aalt' Access All Alternates in Latin lookup 1 subtable" amacron.ss01 amacron.ss02
EndChar

StartChar: aogonek
Encoding: 261 261 179
Width: 580
GlyphClass: 2
Flags: MW
HStem: -215 83<468 537.5> -12 93<225.5 268.5> 447 99<256 321>
VStem: 39 133<125 164.5 125 180> 390 128<216 246 246 246> 395 107<-115.5 -114.5> 407 111
AnchorPoint: "Anchor-3" 290 534 basechar 0
AnchorPoint: "Anchor-2" 565 0 basechar 0
AnchorPoint: "Anchor-0" 284 0 basechar 0
LayerCount: 2
Fore
SplineSet
225 -12 m 0xe2
 113 -12 39 41 39 134 c 0
 39 226 96 275 213 298 c 2
 390 333 l 1
 390 408 355 447 287 447 c 0
 225 447 190 418 178 364 c 1
 48 370 l 1
 69 482 155 546 287 546 c 0
 439 546 518 466 518 324 c 2
 518 130 l 2xf8
 518 101 528 93 548 93 c 2
 565 93 l 1
 565 0 l 1
 533 -42 l 2
 512 -72 502 -91 502 -107 c 0
 502 -124 514 -132 529 -132 c 0
 546 -132 564 -127 575 -119 c 1
 601 -189 l 1
 584 -203 542 -215 501 -215 c 0
 435 -215 395 -187 395 -134 c 0xe4
 395 -95 422 -55 447 -20 c 2
 465 4 l 1
 435 15 414 39 407 82 c 1
 380 25 312 -12 225 -12 c 0xe2
251 81 m 0
 336 81 390 135 390 216 c 2
 390 246 l 1
 252 218 l 2
 195 207 172 183 172 146 c 0
 172 104 200 81 251 81 c 0
EndSplineSet
Substitution2: "'ss02' Style Set 2 in Latin lookup 35 subtable" aogonek.ss02
Substitution2: "'ss01' Style Set 1 in Latin lookup 34 subtable" aogonek.ss01
AlternateSubs2: "'aalt' Access All Alternates in Latin lookup 1 subtable" aogonek.ss01 aogonek.ss02
EndChar

StartChar: aring
Encoding: 229 229 180
Width: 580
GlyphClass: 2
Flags: MW
HStem: -12 93<225.5 268.5> -4 97<489 565> 447 99<256 321> 575 60<279 301.5 279 318> 712 60<279 301.5>
VStem: 39 133<125 164.5 125 180> 191 61<662.5 685> 329 61<662.5 685> 390 128<216 246 246 246>
AnchorPoint: "Anchor-3" 290 534 basechar 0
AnchorPoint: "Anchor-2" 565 0 basechar 0
AnchorPoint: "Anchor-0" 284 0 basechar 0
LayerCount: 2
Fore
SplineSet
290 575 m 0x9b
 234 575 191 618 191 674 c 0
 191 730 234 772 290 772 c 0
 346 772 390 730 390 674 c 0
 390 618 346 575 290 575 c 0x9b
290 635 m 0
 313 635 329 651 329 674 c 0
 329 696 313 712 290 712 c 0
 268 712 252 696 252 674 c 0
 252 651 268 635 290 635 c 0
225 -12 m 0
 113 -12 39 41 39 134 c 0
 39 226 96 275 213 298 c 2
 390 333 l 1
 390 408 355 447 287 447 c 0
 225 447 190 418 178 364 c 1
 48 370 l 1
 69 482 155 546 287 546 c 0
 439 546 518 466 518 324 c 2
 518 130 l 2
 518 101 528 93 548 93 c 2
 565 93 l 1
 565 0 l 1
 556 -2 536 -4 518 -4 c 0x6c80
 460 -4 417 17 407 82 c 1
 380 25 312 -12 225 -12 c 0
251 81 m 0
 336 81 390 135 390 216 c 2
 390 246 l 1
 252 218 l 2
 195 207 172 183 172 146 c 0xac80
 172 104 200 81 251 81 c 0
EndSplineSet
Substitution2: "'ss02' Style Set 2 in Latin lookup 35 subtable" aring.ss02
Substitution2: "'ss01' Style Set 1 in Latin lookup 34 subtable" aring.ss01
AlternateSubs2: "'aalt' Access All Alternates in Latin lookup 1 subtable" aring.ss01 aring.ss02
EndChar

StartChar: atilde
Encoding: 227 227 181
Width: 580
GlyphClass: 2
Flags: MW
HStem: -12 93<225.5 268.5> -4 97<489 565> 447 99<256 321> 597 134<123 245 123 245> 604 78<344 361.5 344 381> 604 136<332.5 457> 653 78<219.5 238>
VStem: 39 133<125 164.5 125 180> 123 67<597 597> 389 68<740 740> 390 128<216 246 246 246>
AnchorPoint: "Anchor-3" 290 534 basechar 0
AnchorPoint: "Anchor-2" 565 0 basechar 0
AnchorPoint: "Anchor-0" 284 0 basechar 0
LayerCount: 2
Fore
SplineSet
347 604 m 0xa440
 318 604 298 612 273 632 c 0
 256 647 246 653 230 653 c 0xa2a0
 209 653 193 641 190 597 c 1xb0a0
 123 597 l 1
 124 681 165 731 229 731 c 0xa2a0
 261 731 283 722 308 702 c 0
 326 687 337 682 351 682 c 0xa840
 372 682 386 694 389 740 c 1
 457 740 l 1
 454 655 415 604 347 604 c 0xa440
225 -12 m 0
 113 -12 39 41 39 134 c 0
 39 226 96 275 213 298 c 2
 390 333 l 1
 390 408 355 447 287 447 c 0
 225 447 190 418 178 364 c 1
 48 370 l 1
 69 482 155 546 287 546 c 0
 439 546 518 466 518 324 c 2
 518 130 l 2
 518 101 528 93 548 93 c 2
 565 93 l 1
 565 0 l 1
 556 -2 536 -4 518 -4 c 0x6320
 460 -4 417 17 407 82 c 1
 380 25 312 -12 225 -12 c 0
251 81 m 0
 336 81 390 135 390 216 c 2
 390 246 l 1
 252 218 l 2
 195 207 172 183 172 146 c 0xa320
 172 104 200 81 251 81 c 0
EndSplineSet
Substitution2: "'ss02' Style Set 2 in Latin lookup 35 subtable" atilde.ss02
Substitution2: "'ss01' Style Set 1 in Latin lookup 34 subtable" atilde.ss01
AlternateSubs2: "'aalt' Access All Alternates in Latin lookup 1 subtable" atilde.ss01 atilde.ss02
EndChar

StartChar: ae
Encoding: 230 230 182
Width: 945
GlyphClass: 2
Flags: MW
HStem: -12 92 -12 102<618.5 685.5 618.5 717> 231 86<527 773 527 906 527 773> 445 101<618.5 687> 447 99<254.5 321>
VStem: 39 133<124 163.5 124 186.5> 390 137<231 231 231 240 231 240 231 368.5> 773 133<231 317>
AnchorPoint: "Anchor-3" 474 534 basechar 0
AnchorPoint: "Anchor-2" 809 30 basechar 0
AnchorPoint: "Anchor-0" 474 0 basechar 0
LayerCount: 2
Fore
SplineSet
226 -12 m 0x77
 117 -12 39 39 39 134 c 0
 39 239 113 281 213 298 c 2
 390 327 l 1
 390 410 356 447 286 447 c 0x6f
 223 447 188 414 178 364 c 1
 48 370 l 1
 69 482 154 546 285 546 c 0
 368 546 432 523 471 476 c 1
 516 521 578 546 653 546 c 0
 805 546 906 440 906 260 c 2
 906 231 l 1
 527 231 l 1
 531 137 580 90 657 90 c 0
 714 90 752 117 768 164 c 1
 899 156 l 1
 870 52 779 -12 655 -12 c 0
 559 -12 484 28 439 97 c 1
 400 27 324 -12 226 -12 c 0x77
527 317 m 1
 773 317 l 1
 768 404 721 445 653 445 c 0xb7
 584 445 537 400 527 317 c 1
264 80 m 0
 337 83 390 128 390 214 c 2
 390 240 l 1
 252 218 l 2
 191 208 172 182 172 145 c 0
 172 103 199 78 264 80 c 0
EndSplineSet
EndChar

StartChar: b
Encoding: 98 98 183
Width: 621
GlyphClass: 2
Flags: MW
HStem: -12 104<319.5 364.5 287 426> 0 21G<70 192 70 70> 442 104<320 365.5> 690 20G<70 198 198 198>
VStem: 70 123.5 70 128<212.5 322.5 458 710> 449 133<212.5 322.5>
AnchorPoint: "Anchor-3" 312 534 basechar 0
AnchorPoint: "Anchor-1" 156 267 basechar 0
AnchorPoint: "Anchor-0" 312 0 basechar 0
LayerCount: 2
Fore
SplineSet
357 -12 m 0xb6
 282 -12 225 22 195 79 c 1
 192 0 l 1x7a
 70 0 l 1x76
 70 710 l 1
 198 710 l 1
 198 458 l 1
 226 506 283 546 357 546 c 0
 495 546 582 437 582 267 c 0
 582 97 495 -12 357 -12 c 0xb6
328 92 m 0
 401 92 449 158 449 267 c 0
 449 378 402 442 329 442 c 0
 246 442 198 378 198 267 c 0xb6
 198 158 246 92 328 92 c 0
EndSplineSet
EndChar

StartChar: c
Encoding: 99 99 184
Width: 580
GlyphClass: 2
Flags: MW
HStem: -12 104<260.5 333 260.5 370.5> 442 104<260.5 333>
VStem: 39 133<211.5 322 211.5 351>
AnchorPoint: "Anchor-3" 302 534 basechar 0
AnchorPoint: "Anchor-0" 302 0 basechar 0
LayerCount: 2
Fore
SplineSet
302 -12 m 0
 143 -12 39 98 39 267 c 0
 39 435 143 546 302 546 c 0
 437 546 535 472 551 345 c 1
 419 338 l 1
 408 406 364 442 302 442 c 0
 219 442 172 377 172 267 c 0
 172 156 219 92 302 92 c 0
 364 92 409 128 419 203 c 1
 551 197 l 1
 536 69 439 -12 302 -12 c 0
EndSplineSet
EndChar

StartChar: cacute
Encoding: 263 263 185
Width: 580
GlyphClass: 2
Flags: MW
HStem: -12 104<260.5 333 260.5 370.5> 442 104<260.5 333> 594 140<244 434 305 344>
VStem: 39 133<211.5 322 211.5 351>
AnchorPoint: "Anchor-3" 302 534 basechar 0
AnchorPoint: "Anchor-0" 302 0 basechar 0
LayerCount: 2
Fore
SplineSet
244 594 m 1
 305 734 l 1
 434 734 l 1
 344 594 l 1
 244 594 l 1
302 -12 m 0
 143 -12 39 98 39 267 c 0
 39 435 143 546 302 546 c 0
 437 546 535 472 551 345 c 1
 419 338 l 1
 408 406 364 442 302 442 c 0
 219 442 172 377 172 267 c 0
 172 156 219 92 302 92 c 0
 364 92 409 128 419 203 c 1
 551 197 l 1
 536 69 439 -12 302 -12 c 0
EndSplineSet
EndChar

StartChar: ccaron
Encoding: 269 269 186
Width: 580
GlyphClass: 2
Flags: MW
HStem: -12 104<260.5 333 260.5 370.5> 442 104<260.5 333> 594 146<144 366 144 238>
VStem: 39 133<211.5 322 211.5 351>
AnchorPoint: "Anchor-3" 302 534 basechar 0
AnchorPoint: "Anchor-0" 302 0 basechar 0
LayerCount: 2
Fore
SplineSet
144 740 m 1
 237 740 l 1
 302 651 l 1
 366 740 l 1
 460 740 l 1
 366 594 l 1
 238 594 l 1
 144 740 l 1
302 -12 m 0
 143 -12 39 98 39 267 c 0
 39 435 143 546 302 546 c 0
 437 546 535 472 551 345 c 1
 419 338 l 1
 408 406 364 442 302 442 c 0
 219 442 172 377 172 267 c 0
 172 156 219 92 302 92 c 0
 364 92 409 128 419 203 c 1
 551 197 l 1
 536 69 439 -12 302 -12 c 0
EndSplineSet
EndChar

StartChar: ccedilla
Encoding: 231 231 187
Width: 580
GlyphClass: 2
Flags: MW
HStem: -228 67<276 307.5 276 329> -82 49<273 320> -82 174<273 301.5> -9 21G<259 259> 442 104<260.5 333>
VStem: 39 133<211.5 322 211.5 351> 342 74<-135 -111>
AnchorPoint: "Anchor-3" 302 534 basechar 0
AnchorPoint: "Anchor-0" 302 0 basechar 0
LayerCount: 2
Fore
SplineSet
295 -228 m 0xce
 229 -228 186 -194 170 -147 c 1
 231 -121 l 1
 242 -148 260 -161 292 -161 c 0
 323 -161 342 -147 342 -123 c 0
 342 -99 330 -82 273 -82 c 1xce
 237 -47 l 1
 259 -9 l 1x9e
 124 9 39 114 39 267 c 0
 39 435 143 546 302 546 c 0
 437 546 535 472 551 345 c 1
 419 338 l 1
 408 406 364 442 302 442 c 0
 219 442 172 377 172 267 c 0
 172 156 219 92 302 92 c 0xae
 364 92 409 128 419 203 c 1
 551 197 l 1
 537 80 455 2 336 -10 c 1
 320 -33 l 1
 386 -38 416 -76 416 -126 c 0
 416 -192 363 -228 295 -228 c 0xce
EndSplineSet
EndChar

StartChar: ccircumflex
Encoding: 265 265 188
Width: 580
GlyphClass: 2
Flags: MW
HStem: -12 104<260.5 333 260.5 370.5> 442 104<260.5 333> 594 146<144 366 144 366 238 366 238 460>
VStem: 39 133<211.5 322 211.5 351>
AnchorPoint: "Anchor-3" 302 534 basechar 0
AnchorPoint: "Anchor-0" 302 0 basechar 0
LayerCount: 2
Fore
SplineSet
144 594 m 1
 238 740 l 1
 366 740 l 1
 460 594 l 1
 366 594 l 1
 302 683 l 1
 237 594 l 1
 144 594 l 1
302 -12 m 0
 143 -12 39 98 39 267 c 0
 39 435 143 546 302 546 c 0
 437 546 535 472 551 345 c 1
 419 338 l 1
 408 406 364 442 302 442 c 0
 219 442 172 377 172 267 c 0
 172 156 219 92 302 92 c 0
 364 92 409 128 419 203 c 1
 551 197 l 1
 536 69 439 -12 302 -12 c 0
EndSplineSet
EndChar

StartChar: cdotaccent
Encoding: 267 267 189
Width: 580
GlyphClass: 2
Flags: MW
HStem: -12 104<260.5 333 260.5 370.5> 442 104<260.5 333> 605 114<235 368 235 368>
VStem: 39 133<211.5 322 211.5 351> 235 133<605 719 605 719>
AnchorPoint: "Anchor-3" 302 534 basechar 0
AnchorPoint: "Anchor-0" 302 0 basechar 0
LayerCount: 2
Fore
SplineSet
235 605 m 1
 235 719 l 1
 368 719 l 1
 368 605 l 1
 235 605 l 1
302 -12 m 0
 143 -12 39 98 39 267 c 0
 39 435 143 546 302 546 c 0
 437 546 535 472 551 345 c 1
 419 338 l 1
 408 406 364 442 302 442 c 0
 219 442 172 377 172 267 c 0
 172 156 219 92 302 92 c 0
 364 92 409 128 419 203 c 1
 551 197 l 1
 536 69 439 -12 302 -12 c 0
EndSplineSet
Substitution2: "'ss08' Style Set 8 in Latin lookup 41 subtable" cdotaccent.ss08
Substitution2: "'aalt' Access All Alternates in Latin lookup 0 subtable" cdotaccent.ss08
EndChar

StartChar: d
Encoding: 100 100 190
Width: 621
GlyphClass: 2
Flags: MW
HStem: -12 104<260.5 297> 0 92<260.5 551 260.5 429> 442 104<260 297.5 193 339> 690 20G<423 551 551 551>
VStem: 39 133<213.5 321.5 213.5 352.5> 423 128<210.5 324 458 710 0 710> 427.5 123.5
AnchorPoint: "Anchor-4" 577 534 basechar 0
AnchorPoint: "Anchor-3" 310 534 basechar 0
AnchorPoint: "Anchor-1" 451 618 basechar 0
AnchorPoint: "Anchor-0" 310 0 basechar 0
LayerCount: 2
Fore
SplineSet
260 -12 m 0xba
 124 -12 39 96 39 267 c 0
 39 438 126 546 260 546 c 0
 335 546 394 513 423 458 c 1
 423 710 l 1
 551 710 l 1
 551 0 l 1x7c
 429 0 l 1x7a
 426 79 l 1
 396 22 334 -12 260 -12 c 0xba
299 92 m 0
 378 92 423 154 423 267 c 0
 423 381 379 442 299 442 c 0
 221 442 172 376 172 267 c 0xbc
 172 160 222 92 299 92 c 0
EndSplineSet
EndChar

StartChar: dcaron
Encoding: 271 271 191
Width: 714
GlyphClass: 2
Flags: MW
HStem: -12 104<260.5 297> 0 92<260.5 551 260.5 429> 434 276<423 599 628 689> 442 104<260 297.5 193 339> 690 20G<423 551 551 551 628 742 742 742>
VStem: 39 133<213.5 321.5 213.5 352.5> 423 128<210.5 324 458 710 0 710> 427.5 123.5
AnchorPoint: "Anchor-4" 577 534 basechar 0
AnchorPoint: "Anchor-3" 310 534 basechar 0
AnchorPoint: "Anchor-1" 451 618 basechar 0
AnchorPoint: "Anchor-0" 310 0 basechar 0
LayerCount: 2
Fore
SplineSet
260 -12 m 0x9d
 124 -12 39 96 39 267 c 0
 39 438 126 546 260 546 c 0
 335 546 394 513 423 458 c 1
 423 710 l 1
 551 710 l 1
 551 0 l 1x5e
 429 0 l 1x5d
 426 79 l 1
 396 22 334 -12 260 -12 c 0x9d
599 434 m 1xa6
 628 710 l 1
 742 710 l 1
 689 434 l 1
 599 434 l 1xa6
299 92 m 0
 378 92 423 154 423 267 c 0
 423 381 379 442 299 442 c 0x9e
 221 442 172 376 172 267 c 0
 172 160 222 92 299 92 c 0
EndSplineSet
EndChar

StartChar: dcroat
Encoding: 273 273 192
Width: 621
GlyphClass: 2
Flags: MW
HStem: -12 104<260.5 297> 0 92<260.5 551 260.5 429> 442 104<260 297.5 193 339> 578 81<285 423 285 423 551 617> 578 132<285 551 423 551 423 617>
VStem: 39 133<213.5 321.5 213.5 352.5> 423 128<210.5 324 458 578 0 578 659 710> 427.5 123.5
AnchorPoint: "Anchor-4" 577 534 basechar 0
AnchorPoint: "Anchor-3" 310 534 basechar 0
AnchorPoint: "Anchor-1" 451 618 basechar 0
AnchorPoint: "Anchor-0" 310 0 basechar 0
LayerCount: 2
Fore
SplineSet
260 -12 m 0xad
 124 -12 39 96 39 267 c 0
 39 438 126 546 260 546 c 0
 335 546 394 513 423 458 c 1
 423 578 l 1
 285 578 l 1xae
 285 659 l 1
 423 659 l 1xb6
 423 710 l 1
 551 710 l 1xae
 551 659 l 1
 617 659 l 1xb6
 617 578 l 1
 551 578 l 1
 551 0 l 1x6e
 429 0 l 1x6d
 426 79 l 1
 396 22 334 -12 260 -12 c 0xad
299 92 m 0
 378 92 423 154 423 267 c 0
 423 381 379 442 299 442 c 0
 221 442 172 376 172 267 c 0
 172 160 222 92 299 92 c 0
EndSplineSet
EndChar

StartChar: eth
Encoding: 240 240 193
Width: 603
GlyphClass: 1
Flags: MW
HStem: -12 102<260.5 343 260.5 385> 386 102<260.5 324 218.5 343> 702 20G<205 205>
VStem: 39 133<192 284 192 315.5> 431 133<194 287>
LayerCount: 2
Fore
SplineSet
302 -12 m 0
 135 -12 39 83 39 238 c 0
 39 393 135 488 302 488 c 0
 346 488 388 476 424 456 c 1
 410 498 388 533 359 560 c 1
 233 510 l 1
 207 577 l 1
 282 607 l 1
 250 619 214 627 171 630 c 1
 205 722 l 1
 285 714 350 690 401 654 c 1
 535 708 l 1
 561 640 l 1
 460 600 l 1
 533 516 564 395 564 260 c 0
 564 83 468 -12 302 -12 c 0
302 90 m 0
 384 90 431 144 431 244 c 0
 431 330 384 386 302 386 c 0
 219 386 172 330 172 238 c 0
 172 146 219 90 302 90 c 0
EndSplineSet
EndChar

StartChar: e
Encoding: 101 101 194
Width: 591
GlyphClass: 2
Flags: MW
HStem: -12 102<263.5 330.5 263.5 362.5> 231 86<172 419 172 551 172 419> 445 101<263.5 332>
VStem: 39 133<231 231 231 317 231 351> 419 132<231 317>
AnchorPoint: "Anchor-3" 302 532 basechar 0
AnchorPoint: "Anchor-2" 454 30 basechar 0
AnchorPoint: "Anchor-0" 302 0 basechar 0
LayerCount: 2
Fore
SplineSet
301 -12 m 0
 141 -12 39 98 39 267 c 0
 39 435 141 546 298 546 c 0
 451 546 551 440 551 260 c 2
 551 231 l 1
 172 231 l 1
 176 137 225 90 302 90 c 0
 359 90 397 117 413 164 c 1
 544 156 l 1
 515 52 424 -12 301 -12 c 0
172 317 m 1
 419 317 l 1
 413 404 366 445 298 445 c 0
 229 445 182 400 172 317 c 1
EndSplineSet
EndChar

StartChar: eacute
Encoding: 233 233 195
Width: 591
GlyphClass: 2
Flags: MW
HStem: -12 102<263.5 330.5 263.5 362.5> 231 86<172 419 172 551 172 419> 445 101<263.5 332> 592 140<244 434 305 344>
VStem: 39 133<231 231 231 317 231 351> 419 132<231 317>
AnchorPoint: "Anchor-3" 302 532 basechar 0
AnchorPoint: "Anchor-2" 454 30 basechar 0
AnchorPoint: "Anchor-0" 302 0 basechar 0
LayerCount: 2
Fore
SplineSet
244 592 m 1
 305 732 l 1
 434 732 l 1
 344 592 l 1
 244 592 l 1
301 -12 m 0
 141 -12 39 98 39 267 c 0
 39 435 141 546 298 546 c 0
 451 546 551 440 551 260 c 2
 551 231 l 1
 172 231 l 1
 176 137 225 90 302 90 c 0
 359 90 397 117 413 164 c 1
 544 156 l 1
 515 52 424 -12 301 -12 c 0
172 317 m 1
 419 317 l 1
 413 404 366 445 298 445 c 0
 229 445 182 400 172 317 c 1
EndSplineSet
EndChar

StartChar: ecaron
Encoding: 283 283 196
Width: 591
GlyphClass: 2
Flags: MW
HStem: -12 102<263.5 330.5 263.5 362.5> 231 86<172 419 172 551 172 419> 445 101<263.5 332> 592 146<144 366 144 238>
VStem: 39 133<231 231 231 317 231 351> 419 132<231 317>
AnchorPoint: "Anchor-3" 302 532 basechar 0
AnchorPoint: "Anchor-2" 454 30 basechar 0
AnchorPoint: "Anchor-0" 302 0 basechar 0
LayerCount: 2
Fore
SplineSet
144 738 m 1
 237 738 l 1
 302 649 l 1
 366 738 l 1
 460 738 l 1
 366 592 l 1
 238 592 l 1
 144 738 l 1
301 -12 m 0
 141 -12 39 98 39 267 c 0
 39 435 141 546 298 546 c 0
 451 546 551 440 551 260 c 2
 551 231 l 1
 172 231 l 1
 176 137 225 90 302 90 c 0
 359 90 397 117 413 164 c 1
 544 156 l 1
 515 52 424 -12 301 -12 c 0
172 317 m 1
 419 317 l 1
 413 404 366 445 298 445 c 0
 229 445 182 400 172 317 c 1
EndSplineSet
EndChar

StartChar: ecircumflex
Encoding: 234 234 197
Width: 591
GlyphClass: 2
Flags: MW
HStem: -12 102<263.5 330.5 263.5 362.5> 231 86<172 419 172 551 172 419> 445 101<263.5 332> 592 146<144 366 144 366 238 366 238 460>
VStem: 39 133<231 231 231 317 231 351> 419 132<231 317>
AnchorPoint: "Anchor-3" 302 532 basechar 0
AnchorPoint: "Anchor-2" 454 30 basechar 0
AnchorPoint: "Anchor-0" 302 0 basechar 0
LayerCount: 2
Fore
SplineSet
144 592 m 1
 238 738 l 1
 366 738 l 1
 460 592 l 1
 366 592 l 1
 302 681 l 1
 237 592 l 1
 144 592 l 1
301 -12 m 0
 141 -12 39 98 39 267 c 0
 39 435 141 546 298 546 c 0
 451 546 551 440 551 260 c 2
 551 231 l 1
 172 231 l 1
 176 137 225 90 302 90 c 0
 359 90 397 117 413 164 c 1
 544 156 l 1
 515 52 424 -12 301 -12 c 0
172 317 m 1
 419 317 l 1
 413 404 366 445 298 445 c 0
 229 445 182 400 172 317 c 1
EndSplineSet
EndChar

StartChar: edieresis
Encoding: 235 235 198
Width: 591
GlyphClass: 2
Flags: MW
HStem: -12 102<263.5 330.5 263.5 362.5> 231 86<172 419 172 551 172 419> 445 101<263.5 332> 602 113<139 264 139 264 340 465 139 340>
VStem: 39 133<231 231 231 317 231 351> 139 125<602 715 602 715> 340 125<602 715 602 715> 419 132<231 317>
AnchorPoint: "Anchor-3" 302 532 basechar 0
AnchorPoint: "Anchor-2" 454 30 basechar 0
AnchorPoint: "Anchor-0" 302 0 basechar 0
LayerCount: 2
Fore
SplineSet
139 602 m 1xf6
 139 715 l 1
 264 715 l 1
 264 602 l 1
 139 602 l 1xf6
340 602 m 1
 340 715 l 1
 465 715 l 1
 465 602 l 1
 340 602 l 1
301 -12 m 0
 141 -12 39 98 39 267 c 0
 39 435 141 546 298 546 c 0
 451 546 551 440 551 260 c 2
 551 231 l 1
 172 231 l 1xf9
 176 137 225 90 302 90 c 0
 359 90 397 117 413 164 c 1
 544 156 l 1
 515 52 424 -12 301 -12 c 0
172 317 m 1
 419 317 l 1
 413 404 366 445 298 445 c 0
 229 445 182 400 172 317 c 1
EndSplineSet
Substitution2: "'ss08' Style Set 8 in Latin lookup 41 subtable" edieresis.ss08
Substitution2: "'aalt' Access All Alternates in Latin lookup 0 subtable" edieresis.ss08
EndChar

StartChar: edotaccent
Encoding: 279 279 199
Width: 591
GlyphClass: 2
Flags: MW
HStem: -12 102<263.5 330.5 263.5 362.5> 231 86<172 419 172 551 172 419> 445 101<263.5 332> 603 114<235 368 235 368>
VStem: 39 133<231 231 231 317 231 351> 235 133<603 717 603 717> 419 132<231 317>
AnchorPoint: "Anchor-3" 302 532 basechar 0
AnchorPoint: "Anchor-2" 454 30 basechar 0
AnchorPoint: "Anchor-0" 302 0 basechar 0
LayerCount: 2
Fore
SplineSet
235 603 m 1
 235 717 l 1
 368 717 l 1
 368 603 l 1
 235 603 l 1
301 -12 m 0
 141 -12 39 98 39 267 c 0
 39 435 141 546 298 546 c 0
 451 546 551 440 551 260 c 2
 551 231 l 1
 172 231 l 1
 176 137 225 90 302 90 c 0
 359 90 397 117 413 164 c 1
 544 156 l 1
 515 52 424 -12 301 -12 c 0
172 317 m 1
 419 317 l 1
 413 404 366 445 298 445 c 0
 229 445 182 400 172 317 c 1
EndSplineSet
Substitution2: "'ss08' Style Set 8 in Latin lookup 41 subtable" edotaccent.ss08
Substitution2: "'aalt' Access All Alternates in Latin lookup 0 subtable" edotaccent.ss08
EndChar

StartChar: egrave
Encoding: 232 232 200
Width: 591
GlyphClass: 2
Flags: MW
HStem: -12 102<263.5 330.5 263.5 362.5> 231 86<172 419 172 551 172 419> 445 101<263.5 332> 597 141<260 260 260 298 170 359>
VStem: 39 133<231 231 231 317 231 351> 419 132<231 317>
AnchorPoint: "Anchor-3" 302 532 basechar 0
AnchorPoint: "Anchor-2" 454 30 basechar 0
AnchorPoint: "Anchor-0" 302 0 basechar 0
LayerCount: 2
Fore
SplineSet
260 597 m 1
 170 738 l 1
 298 738 l 1
 359 597 l 1
 260 597 l 1
301 -12 m 0
 141 -12 39 98 39 267 c 0
 39 435 141 546 298 546 c 0
 451 546 551 440 551 260 c 2
 551 231 l 1
 172 231 l 1
 176 137 225 90 302 90 c 0
 359 90 397 117 413 164 c 1
 544 156 l 1
 515 52 424 -12 301 -12 c 0
172 317 m 1
 419 317 l 1
 413 404 366 445 298 445 c 0
 229 445 182 400 172 317 c 1
EndSplineSet
EndChar

StartChar: emacron
Encoding: 275 275 201
Width: 591
GlyphClass: 2
Flags: MW
HStem: -12 102<263.5 330.5 263.5 362.5> 231 86<172 419 172 551 172 419> 445 101<263.5 332> 611 97<157 446 157 446>
VStem: 39 133<231 231 231 317 231 351> 157 289<611 708 611 708> 419 132<231 317>
AnchorPoint: "Anchor-3" 302 532 basechar 0
AnchorPoint: "Anchor-2" 454 30 basechar 0
AnchorPoint: "Anchor-0" 302 0 basechar 0
LayerCount: 2
Fore
SplineSet
157 611 m 1xf4
 157 708 l 1
 446 708 l 1
 446 611 l 1
 157 611 l 1xf4
301 -12 m 0
 141 -12 39 98 39 267 c 0
 39 435 141 546 298 546 c 0
 451 546 551 440 551 260 c 2
 551 231 l 1
 172 231 l 1xfa
 176 137 225 90 302 90 c 0
 359 90 397 117 413 164 c 1
 544 156 l 1
 515 52 424 -12 301 -12 c 0
172 317 m 1
 419 317 l 1
 413 404 366 445 298 445 c 0
 229 445 182 400 172 317 c 1
EndSplineSet
EndChar

StartChar: eogonek
Encoding: 281 281 202
Width: 591
GlyphClass: 2
Flags: MW
HStem: -215 83<401.5 402> -12 102<263.5 305.5> 231 86<172 419 172 551 172 419> 445 101<263.5 332>
VStem: 39 133<231 231 231 317 231 351> 276 106<-114 -104.5> 419 132<231 317>
AnchorPoint: "Anchor-3" 302 532 basechar 0
AnchorPoint: "Anchor-2" 454 30 basechar 0
AnchorPoint: "Anchor-0" 302 0 basechar 0
LayerCount: 2
Fore
SplineSet
301 -12 m 0
 141 -12 39 98 39 267 c 0
 39 435 141 546 298 546 c 0
 451 546 551 440 551 260 c 2
 551 231 l 1
 172 231 l 1
 176 137 225 90 302 90 c 0
 359 90 397 117 413 164 c 1
 544 156 l 1
 535 123 519 94 499 70 c 1
 501 70 l 1
 414 -35 l 2
 391 -63 382 -85 382 -104 c 0
 382 -124 394 -132 409 -132 c 0
 426 -132 442 -127 453 -119 c 1
 480 -189 l 1
 463 -203 422 -215 382 -215 c 0
 315 -215 276 -182 276 -126 c 0
 276 -83 293 -51 321 -19 c 2
 329 -11 l 1
 319 -12 310 -12 301 -12 c 0
172 317 m 1
 419 317 l 1
 413 404 366 445 298 445 c 0
 229 445 182 400 172 317 c 1
EndSplineSet
EndChar

StartChar: uni1EBD
Encoding: 7869 7869 203
Width: 591
GlyphClass: 2
Flags: MW
HStem: -12 102<263.5 330.5 263.5 362.5> 231 86<172 419 172 551 172 419> 445 101<263.5 332> 595 134<135 256 135 256> 602 78<355 373 355 392.5> 602 136<344.5 468> 651 78<231.5 250>
VStem: 39 133<231 231 231 317 231 351> 135 67<595 595> 401 67<738 738> 419 132<231 317>
AnchorPoint: "Anchor-3" 302 532 basechar 0
AnchorPoint: "Anchor-2" 454 30 basechar 0
AnchorPoint: "Anchor-0" 302 0 basechar 0
LayerCount: 2
Fore
SplineSet
359 602 m 0xe540
 330 602 309 610 285 630 c 0
 267 645 258 651 242 651 c 0xe2c0
 221 651 205 639 202 595 c 1xf0c0
 135 595 l 1
 136 679 176 729 240 729 c 0xe2c0
 272 729 295 720 320 700 c 0
 337 685 348 680 362 680 c 0xe940
 384 680 398 692 401 738 c 1
 468 738 l 1
 466 653 426 602 359 602 c 0xe540
301 -12 m 0
 141 -12 39 98 39 267 c 0
 39 435 141 546 298 546 c 0
 451 546 551 440 551 260 c 2
 551 231 l 1
 172 231 l 1xe120
 176 137 225 90 302 90 c 0
 359 90 397 117 413 164 c 1
 544 156 l 1
 515 52 424 -12 301 -12 c 0
172 317 m 1
 419 317 l 1
 413 404 366 445 298 445 c 0
 229 445 182 400 172 317 c 1
EndSplineSet
EndChar

StartChar: uni0259
Encoding: 601 601 204
Width: 591
GlyphClass: 2
Flags: MW
HStem: -12 101<258.5 327 258.5 371> 217 86<172 419 172 172> 444 102<260 326.5>
VStem: 39 133<217 303 217 303> 419 132<217 217 303 303>
AnchorPoint: "Anchor-3" 289 534 basechar 0
AnchorPoint: "Anchor-2" 137 504 basechar 0
AnchorPoint: "Anchor-0" 289 2 basechar 0
LayerCount: 2
Fore
SplineSet
290 546 m 0
 450 546 551 436 551 267 c 0
 551 99 450 -12 292 -12 c 0
 140 -12 39 94 39 274 c 2
 39 303 l 1
 419 303 l 1
 414 397 365 444 288 444 c 0
 232 444 193 417 178 370 c 1
 47 378 l 1
 76 482 167 546 290 546 c 0
419 217 m 1
 172 217 l 1
 178 130 225 89 292 89 c 0
 362 89 409 134 419 217 c 1
EndSplineSet
EndChar

StartChar: f
Encoding: 102 102 205
Width: 429
GlyphClass: 2
Flags: MW
HStem: 0 21G<126 126 126 255> 421 99<50 126 50 126 255 388> 611 99<294 315 315 395>
VStem: 126 129<0 421 0 421 520 548 0 555>
AnchorPoint: "Anchor-3" 216 710 basechar 0
AnchorPoint: "Anchor-0" 216 0 basechar 0
LayerCount: 2
Fore
SplineSet
126 0 m 1
 126 421 l 1
 50 421 l 1
 50 520 l 1
 126 520 l 1
 126 555 l 2
 126 651 178 710 291 710 c 2
 395 710 l 1
 395 611 l 1
 315 611 l 2
 273 611 255 589 255 548 c 2
 255 520 l 1
 388 520 l 1
 388 421 l 1
 255 421 l 1
 255 0 l 1
 126 0 l 1
EndSplineSet
EndChar

StartChar: g
Encoding: 103 103 206
Width: 620
GlyphClass: 2
Flags: MW
HStem: -162 97<263.5 337.5 263.5 374> -10 21G<55 55> 26 100<258 300.5> 446 88 446 100<257 302.5 198 334.5>
VStem: 39 133<237 335 237 361.5> 421 129<44 47 47 112 112 112> 422 128 425 125<451 534>
AnchorPoint: "Anchor-3" 301 534 basechar 0
AnchorPoint: "Anchor-0" 298 -150 basechar 0
LayerCount: 2
Fore
SplineSet
298 -162 m 0xf6
 157 -162 79 -101 55 -10 c 1
 187 -1 l 1
 200 -42 229 -65 298 -65 c 0
 377 -65 421 -31 421 44 c 2
 421 112 l 1
 396 60 335 26 266 26 c 0
 133 26 39 130 39 285 c 0
 39 438 132 546 264 546 c 0xee
 341 546 399 509 425 451 c 1
 425 534 l 1xf480
 550 534 l 1
 550 47 l 2
 550 -90 450 -162 298 -162 c 0xf6
296 126 m 0
 372 126 421 186 422 286 c 0xed
 423 385 373 446 296 446 c 0
 218 446 172 384 172 286 c 0
 172 188 220 126 296 126 c 0
EndSplineSet
EndChar

StartChar: gbreve
Encoding: 287 287 207
Width: 620
GlyphClass: 2
Flags: MW
HStem: -162 97<263.5 337.5 263.5 374> -10 21G<55 55> 26 100<258 300.5> 446 88 446 100<257 302.5 198 334.5> 595 76<280 322 280 345.5>
VStem: 39 133<237 335 237 361.5> 421 129<44 47 47 112 112 112> 422 128 425 125<451 534>
AnchorPoint: "Anchor-3" 301 534 basechar 0
AnchorPoint: "Anchor-0" 298 -150 basechar 0
LayerCount: 2
Fore
SplineSet
301 595 m 0xf7
 211 595 153 648 149 736 c 1
 227 736 l 1
 232 690 259 671 301 671 c 0
 343 671 369 690 374 736 c 1
 451 736 l 1
 447 648 390 595 301 595 c 0xf7
298 -162 m 0
 157 -162 79 -101 55 -10 c 1
 187 -1 l 1
 200 -42 229 -65 298 -65 c 0
 377 -65 421 -31 421 44 c 2
 421 112 l 1
 396 60 335 26 266 26 c 0
 133 26 39 130 39 285 c 0
 39 438 132 546 264 546 c 0xef
 341 546 399 509 425 451 c 1
 425 534 l 1xf640
 550 534 l 1
 550 47 l 2
 550 -90 450 -162 298 -162 c 0
296 126 m 0
 372 126 421 186 422 286 c 0xee80
 423 385 373 446 296 446 c 0
 218 446 172 384 172 286 c 0
 172 188 220 126 296 126 c 0
EndSplineSet
EndChar

StartChar: gcaron
Encoding: 487 487 208
Width: 620
GlyphClass: 2
Flags: MW
HStem: -162 97<263.5 337.5 263.5 374> -10 21G<55 55> 26 100<258 300.5> 446 88 446 100<257 302.5 198 334.5> 594 146<143 364 143 237>
VStem: 39 133<237 335 237 361.5> 421 129<44 47 47 112 112 112> 422 128 425 125<451 534>
AnchorPoint: "Anchor-3" 301 534 basechar 0
AnchorPoint: "Anchor-0" 298 -150 basechar 0
LayerCount: 2
Fore
SplineSet
143 740 m 1xf7
 236 740 l 1
 301 651 l 1
 365 740 l 1
 458 740 l 1
 364 594 l 1
 237 594 l 1
 143 740 l 1xf7
298 -162 m 0
 157 -162 79 -101 55 -10 c 1
 187 -1 l 1
 200 -42 229 -65 298 -65 c 0
 377 -65 421 -31 421 44 c 2
 421 112 l 1
 396 60 335 26 266 26 c 0
 133 26 39 130 39 285 c 0
 39 438 132 546 264 546 c 0xef
 341 546 399 509 425 451 c 1
 425 534 l 1xf640
 550 534 l 1
 550 47 l 2
 550 -90 450 -162 298 -162 c 0
296 126 m 0
 372 126 421 186 422 286 c 0xee80
 423 385 373 446 296 446 c 0
 218 446 172 384 172 286 c 0
 172 188 220 126 296 126 c 0
EndSplineSet
EndChar

StartChar: gcircumflex
Encoding: 285 285 209
Width: 620
GlyphClass: 2
Flags: MW
HStem: -162 97<263.5 337.5 263.5 374> -10 21G<55 55> 26 100<258 300.5> 446 88 446 100<257 302.5 198 334.5> 594 146<143 364 143 364 237 365 237 458>
VStem: 39 133<237 335 237 361.5> 421 129<44 47 47 112 112 112> 422 128 425 125<451 534>
AnchorPoint: "Anchor-3" 301 534 basechar 0
AnchorPoint: "Anchor-0" 298 -150 basechar 0
LayerCount: 2
Fore
SplineSet
143 594 m 1xf7
 237 740 l 1
 364 740 l 1
 458 594 l 1
 365 594 l 1
 301 683 l 1
 236 594 l 1
 143 594 l 1xf7
298 -162 m 0
 157 -162 79 -101 55 -10 c 1
 187 -1 l 1
 200 -42 229 -65 298 -65 c 0
 377 -65 421 -31 421 44 c 2
 421 112 l 1
 396 60 335 26 266 26 c 0
 133 26 39 130 39 285 c 0
 39 438 132 546 264 546 c 0xef
 341 546 399 509 425 451 c 1
 425 534 l 1xf640
 550 534 l 1
 550 47 l 2
 550 -90 450 -162 298 -162 c 0
296 126 m 0
 372 126 421 186 422 286 c 0xee80
 423 385 373 446 296 446 c 0
 218 446 172 384 172 286 c 0
 172 188 220 126 296 126 c 0
EndSplineSet
EndChar

StartChar: uni0123
Encoding: 291 291 210
Width: 620
GlyphClass: 2
Flags: MW
HStem: -162 97<263.5 337.5 263.5 374> -10 21G<55 55> 26 100<258 300.5> 446 88 446 100<257 302.5 198 334.5> 595 108<240 360 325 360 325 360>
VStem: 39 133<237 335 237 361.5> 240 120<595 693 693 693> 421 129<44 47 47 112 112 112> 422 128 425 125<451 534>
AnchorPoint: "Anchor-3" 301 534 basechar 0
AnchorPoint: "Anchor-0" 298 -150 basechar 0
LayerCount: 2
Fore
SplineSet
240 595 m 1xf780
 240 693 l 1
 300 794 l 1
 378 794 l 1
 325 703 l 1
 360 703 l 1
 360 595 l 1
 240 595 l 1xf780
298 -162 m 0
 157 -162 79 -101 55 -10 c 1
 187 -1 l 1
 200 -42 229 -65 298 -65 c 0
 377 -65 421 -31 421 44 c 2
 421 112 l 1
 396 60 335 26 266 26 c 0
 133 26 39 130 39 285 c 0
 39 438 132 546 264 546 c 0xef80
 341 546 399 509 425 451 c 1
 425 534 l 1xf720
 550 534 l 1
 550 47 l 2
 550 -90 450 -162 298 -162 c 0
296 126 m 0
 372 126 421 186 422 286 c 0xef40
 423 385 373 446 296 446 c 0
 218 446 172 384 172 286 c 0
 172 188 220 126 296 126 c 0
EndSplineSet
EndChar

StartChar: gdotaccent
Encoding: 289 289 211
Width: 620
GlyphClass: 2
Flags: MW
HStem: -162 97<263.5 337.5 263.5 374> -10 21G<55 55> 26 100<258 300.5> 446 88 446 100<257 302.5 198 334.5> 605 114<234 367 234 367>
VStem: 39 133<237 335 237 361.5> 234 133<605 719 605 719> 421 129<44 47 47 112 112 112> 422 128 425 125<451 534>
AnchorPoint: "Anchor-3" 301 534 basechar 0
AnchorPoint: "Anchor-0" 298 -150 basechar 0
LayerCount: 2
Fore
SplineSet
234 605 m 1xf780
 234 719 l 1
 367 719 l 1
 367 605 l 1
 234 605 l 1xf780
298 -162 m 0
 157 -162 79 -101 55 -10 c 1
 187 -1 l 1
 200 -42 229 -65 298 -65 c 0
 377 -65 421 -31 421 44 c 2
 421 112 l 1
 396 60 335 26 266 26 c 0
 133 26 39 130 39 285 c 0
 39 438 132 546 264 546 c 0xef80
 341 546 399 509 425 451 c 1
 425 534 l 1xf720
 550 534 l 1
 550 47 l 2
 550 -90 450 -162 298 -162 c 0
296 126 m 0
 372 126 421 186 422 286 c 0xef40
 423 385 373 446 296 446 c 0
 218 446 172 384 172 286 c 0
 172 188 220 126 296 126 c 0
EndSplineSet
Substitution2: "'ss08' Style Set 8 in Latin lookup 41 subtable" gdotaccent.ss08
Substitution2: "'aalt' Access All Alternates in Latin lookup 0 subtable" gdotaccent.ss08
EndChar

StartChar: uni1E21
Encoding: 7713 7713 212
Width: 620
GlyphClass: 2
Flags: MW
HStem: -162 97<263.5 337.5 263.5 374> -10 21G<55 55> 26 100<258 300.5> 446 88 446 100<257 302.5 198 334.5> 613 97<156 445 156 445>
VStem: 39 133<237 335 237 361.5> 156 289<613 710 613 710> 421 129<44 47 47 112 112 112> 422 128 425 125<451 534>
AnchorPoint: "Anchor-3" 301 534 basechar 0
AnchorPoint: "Anchor-0" 298 -150 basechar 0
LayerCount: 2
Fore
SplineSet
156 613 m 1xed
 156 710 l 1
 445 710 l 1
 445 613 l 1
 156 613 l 1xed
298 -162 m 0
 157 -162 79 -101 55 -10 c 1
 187 -1 l 1
 200 -42 229 -65 298 -65 c 0
 377 -65 421 -31 421 44 c 2
 421 112 l 1
 396 60 335 26 266 26 c 0
 133 26 39 130 39 285 c 0
 39 438 132 546 264 546 c 0xee80
 341 546 399 509 425 451 c 1
 425 534 l 1xf620
 550 534 l 1
 550 47 l 2xf680
 550 -90 450 -162 298 -162 c 0
296 126 m 0
 372 126 421 186 422 286 c 0xee40
 423 385 373 446 296 446 c 0
 218 446 172 384 172 286 c 0
 172 188 220 126 296 126 c 0
EndSplineSet
EndChar

StartChar: uni01E5
Encoding: 485 485 213
Width: 647
GlyphClass: 2
Flags: MW
HStem: -162 97<263.5 337.5 263.5 374> -10 21G<55 55> 26 100<258 300.5> 240 82<264 418 264 420 550 616> 446 100<257 302.5 198 329.5> 514 20G<425 550 550 550>
VStem: 39 133<237 335 237 361.5> 421 129<44 47 47 112 112 112> 425 125<451 534>
AnchorPoint: "Anchor-3" 301 534 basechar 0
AnchorPoint: "Anchor-0" 298 -150 basechar 0
LayerCount: 2
Fore
SplineSet
298 -162 m 0xf7
 157 -162 79 -101 55 -10 c 1
 187 -1 l 1
 200 -42 229 -65 298 -65 c 0
 377 -65 421 -31 421 44 c 2
 421 112 l 1
 396 60 335 26 266 26 c 0
 133 26 39 130 39 285 c 0
 39 438 132 546 264 546 c 0xfb
 341 546 399 509 425 451 c 1
 425 534 l 1xf680
 550 534 l 1
 550 322 l 1
 616 322 l 1
 616 240 l 1
 550 240 l 1
 550 47 l 2
 550 -90 450 -162 298 -162 c 0xf7
296 126 m 0
 360 126 405 168 418 240 c 1
 264 240 l 1
 264 322 l 1
 420 322 l 1
 410 400 363 446 296 446 c 0
 218 446 172 384 172 286 c 0
 172 188 220 126 296 126 c 0
EndSplineSet
EndChar

StartChar: h
Encoding: 104 104 214
Width: 601
GlyphClass: 2
Flags: MW
HStem: 0 21G<70 70 70 198 403 403 403 531> 442 104<317 343> 690 20G<70 198 198 198>
VStem: 70 128<0 309 463 710> 403 128<0 312 312 343 0 355.5>
AnchorPoint: "Anchor-3" 136 690 basechar 0
AnchorPoint: "Anchor-1" 168 618 basechar 0
AnchorPoint: "Anchor-0" 301 0 basechar 0
LayerCount: 2
Fore
SplineSet
70 0 m 1
 70 710 l 1
 198 710 l 1
 198 463 l 1
 227 519 284 546 350 546 c 0
 468 546 531 462 531 343 c 2
 531 0 l 1
 403 0 l 1
 403 312 l 2
 403 399 374 442 312 442 c 0
 242 442 198 396 198 309 c 2
 198 0 l 1
 70 0 l 1
EndSplineSet
EndChar

StartChar: hbar
Encoding: 295 295 215
Width: 601
GlyphClass: 2
Flags: MW
HStem: 0 21G<70 70 70 198 403 403 403 531> 442 104<317 343> 578 81<2 70 2 70 198 334> 578 132<2 198 2 198 70 198 70 334>
VStem: 70 128<0 309 463 578 659 710> 403 128<0 312 312 343 0 355.5>
AnchorPoint: "Anchor-3" 136 690 basechar 0
AnchorPoint: "Anchor-1" 168 618 basechar 0
AnchorPoint: "Anchor-0" 301 0 basechar 0
LayerCount: 2
Fore
SplineSet
70 0 m 1xdc
 70 578 l 1
 2 578 l 1xdc
 2 659 l 1
 70 659 l 1xec
 70 710 l 1
 198 710 l 1xdc
 198 659 l 1
 334 659 l 1xec
 334 578 l 1
 198 578 l 1
 198 463 l 1
 227 519 284 546 350 546 c 0
 468 546 531 462 531 343 c 2
 531 0 l 1
 403 0 l 1
 403 312 l 2
 403 399 374 442 312 442 c 0
 242 442 198 396 198 309 c 2
 198 0 l 1
 70 0 l 1xdc
EndSplineSet
EndChar

StartChar: hcircumflex
Encoding: 293 293 216
Width: 601
GlyphClass: 2
Flags: MW
HStem: 0 21G<70 70 70 198 403 403 403 531> 442 104<317 343> 690 20G<70 198 198 198> 750 146<-22 199 -22 199 72 200 72 293>
VStem: 70 128<0 309 463 710> 403 128<0 312 312 343 0 355.5>
AnchorPoint: "Anchor-3" 136 690 basechar 0
AnchorPoint: "Anchor-1" 168 618 basechar 0
AnchorPoint: "Anchor-0" 301 0 basechar 0
LayerCount: 2
Fore
SplineSet
-22 750 m 1
 72 896 l 1
 199 896 l 1
 293 750 l 1
 200 750 l 1
 136 839 l 1
 71 750 l 1
 -22 750 l 1
70 0 m 1
 70 710 l 1
 198 710 l 1
 198 463 l 1
 227 519 284 546 350 546 c 0
 468 546 531 462 531 343 c 2
 531 0 l 1
 403 0 l 1
 403 312 l 2
 403 399 374 442 312 442 c 0
 242 442 198 396 198 309 c 2
 198 0 l 1
 70 0 l 1
EndSplineSet
EndChar

StartChar: i
Encoding: 105 105 217
Width: 269
GlyphClass: 2
Flags: MW
HStem: 0 21G<70 70 70 198> 514 20G<70 198 198 198> 605 114<68 201 68 201>
VStem: 68 133<605 719 605 719> 70 128<0 534 0 534>
AnchorPoint: "Anchor-3" 134 534 basechar 0
AnchorPoint: "Anchor-2" 198 0 basechar 0
AnchorPoint: "Anchor-0" 134 0 basechar 0
LayerCount: 2
Fore
SplineSet
68 605 m 1xf0
 68 719 l 1
 201 719 l 1
 201 605 l 1
 68 605 l 1xf0
70 0 m 1xe8
 70 534 l 1
 198 534 l 1
 198 0 l 1
 70 0 l 1xe8
EndSplineSet
Substitution2: "'ss08' Style Set 8 in Latin lookup 41 subtable" i.ss08
Substitution2: "'locl' Localized Forms in Latin lookup 9 subtable" i.loclTRK
Substitution2: "Single Substitution lookup 3 subtable" dotlessi
AlternateSubs2: "'aalt' Access All Alternates in Latin lookup 1 subtable" i.loclTRK i.ss08
EndChar

StartChar: dotlessi
Encoding: 305 305 218
Width: 269
GlyphClass: 2
Flags: MW
HStem: 0 21G<70 70 70 198> 514 20G<70 198 198 198>
VStem: 70 128<0 534 0 534>
AnchorPoint: "Anchor-3" 134 534 basechar 0
AnchorPoint: "Anchor-2" 198 0 basechar 0
AnchorPoint: "Anchor-0" 134 0 basechar 0
LayerCount: 2
Fore
SplineSet
70 0 m 1
 70 534 l 1
 198 534 l 1
 198 0 l 1
 70 0 l 1
EndSplineSet
EndChar

StartChar: iacute
Encoding: 237 237 219
Width: 269
GlyphClass: 2
Flags: MW
HStem: 0 21G<70 70 70 198> 514 20G<70 198 198 198> 594 140<77 266 138 176>
VStem: 70 128<0 534 0 534>
AnchorPoint: "Anchor-3" 134 534 basechar 0
AnchorPoint: "Anchor-2" 198 0 basechar 0
AnchorPoint: "Anchor-0" 134 0 basechar 0
LayerCount: 2
Fore
SplineSet
77 594 m 1
 138 734 l 1
 266 734 l 1
 176 594 l 1
 77 594 l 1
70 0 m 1
 70 534 l 1
 198 534 l 1
 198 0 l 1
 70 0 l 1
EndSplineSet
EndChar

StartChar: icircumflex
Encoding: 238 238 220
Width: 269
GlyphClass: 2
Flags: MW
HStem: 0 21G<70 70 70 198> 514 20G<70 198 198 198> 594 146<-23 198 -23 198 71 199 71 292>
VStem: 70 128<0 534 0 534 0 594>
AnchorPoint: "Anchor-3" 134 534 basechar 0
AnchorPoint: "Anchor-2" 198 0 basechar 0
AnchorPoint: "Anchor-0" 134 0 basechar 0
LayerCount: 2
Fore
SplineSet
-23 594 m 1
 71 740 l 1
 198 740 l 1
 292 594 l 1
 199 594 l 1
 134 683 l 1
 70 594 l 1
 -23 594 l 1
70 0 m 1
 70 534 l 1
 198 534 l 1
 198 0 l 1
 70 0 l 1
EndSplineSet
EndChar

StartChar: idieresis
Encoding: 239 239 221
Width: 269
GlyphClass: 2
Flags: MW
HStem: 0 21G<70 70 70 198> 514 20G<70 198 198 198> 604 113<-29 96 -29 96 173 297 -29 173>
VStem: -29 125<604 717 604 717> 70 128<0 534 0 534> 173 124<604 717 604 717>
AnchorPoint: "Anchor-3" 134 534 basechar 0
AnchorPoint: "Anchor-2" 198 0 basechar 0
AnchorPoint: "Anchor-0" 134 0 basechar 0
LayerCount: 2
Fore
SplineSet
-29 604 m 1xf4
 -29 717 l 1
 96 717 l 1
 96 604 l 1
 -29 604 l 1xf4
173 604 m 1
 173 717 l 1
 297 717 l 1
 297 604 l 1
 173 604 l 1
70 0 m 1xe8
 70 534 l 1
 198 534 l 1
 198 0 l 1
 70 0 l 1xe8
EndSplineSet
Substitution2: "'ss08' Style Set 8 in Latin lookup 41 subtable" idieresis.ss08
Substitution2: "'aalt' Access All Alternates in Latin lookup 0 subtable" idieresis.ss08
EndChar

StartChar: i.loclTRK
Encoding: 65576 -1 222
Width: 269
GlyphClass: 2
Flags: MW
HStem: 0 21G<70 70 70 198> 514 20G<70 198 198 198> 605 114<68 201 68 201>
VStem: 68 133<605 719 605 719> 70 128<0 534 0 534>
AnchorPoint: "Anchor-3" 134 534 basechar 0
AnchorPoint: "Anchor-2" 198 0 basechar 0
AnchorPoint: "Anchor-0" 134 0 basechar 0
LayerCount: 2
Fore
SplineSet
68 605 m 1xf0
 68 719 l 1
 201 719 l 1
 201 605 l 1
 68 605 l 1xf0
70 0 m 1xe8
 70 534 l 1
 198 534 l 1
 198 0 l 1
 70 0 l 1xe8
EndSplineSet
Substitution2: "'ss08' Style Set 8 in Latin lookup 41 subtable" i.loclTRK.ss08
Substitution2: "'aalt' Access All Alternates in Latin lookup 0 subtable" i.loclTRK.ss08
EndChar

StartChar: igrave
Encoding: 236 236 223
Width: 269
GlyphClass: 2
Flags: MW
HStem: 0 21G<70 70 70 198> 514 20G<70 198 198 198> 599 141<92 92 92 131 2 192>
VStem: 70 128<0 534 0 534>
AnchorPoint: "Anchor-3" 134 534 basechar 0
AnchorPoint: "Anchor-2" 198 0 basechar 0
AnchorPoint: "Anchor-0" 134 0 basechar 0
LayerCount: 2
Fore
SplineSet
92 599 m 1
 2 740 l 1
 131 740 l 1
 192 599 l 1
 92 599 l 1
70 0 m 1
 70 534 l 1
 198 534 l 1
 198 0 l 1
 70 0 l 1
EndSplineSet
EndChar

StartChar: imacron
Encoding: 299 299 224
Width: 269
GlyphClass: 2
Flags: MW
HStem: 0 21G<70 70 70 198> 514 20G<70 198 198 198> 613 97<-10 279 -10 279>
VStem: 70 128<0 534 0 534>
AnchorPoint: "Anchor-3" 134 534 basechar 0
AnchorPoint: "Anchor-2" 198 0 basechar 0
AnchorPoint: "Anchor-0" 134 0 basechar 0
LayerCount: 2
Fore
SplineSet
-10 613 m 1
 -10 710 l 1
 279 710 l 1
 279 613 l 1
 -10 613 l 1
70 0 m 1
 70 534 l 1
 198 534 l 1
 198 0 l 1
 70 0 l 1
EndSplineSet
EndChar

StartChar: iogonek
Encoding: 303 303 225
Width: 269
GlyphClass: 2
Flags: MW
HStem: -215 83<154.5 155> 0 21G<70 70 70 96 198 198> 514 20G<70 198 198 198> 605 114<68 201 68 201>
VStem: 28 107<-115.5 -114.5> 68 133<605 719 605 719> 70 65 70 128<0 534 0 534>
AnchorPoint: "Anchor-3" 134 534 basechar 0
AnchorPoint: "Anchor-2" 198 0 basechar 0
AnchorPoint: "Anchor-0" 134 0 basechar 0
LayerCount: 2
Fore
SplineSet
68 605 m 1xf4
 68 719 l 1
 201 719 l 1
 201 605 l 1
 68 605 l 1xf4
70 0 m 1xf1
 70 534 l 1
 198 534 l 1
 198 0 l 1xf1
 167 -42 l 2
 145 -72 135 -91 135 -107 c 0xf2
 135 -124 147 -132 162 -132 c 0
 180 -132 197 -127 208 -119 c 1
 235 -189 l 1
 218 -203 175 -215 135 -215 c 0
 68 -215 28 -187 28 -134 c 0xf8
 28 -95 55 -55 81 -20 c 2
 96 0 l 1
 70 0 l 1xf1
EndSplineSet
Substitution2: "'ss08' Style Set 8 in Latin lookup 41 subtable" iogonek.ss08
Substitution2: "'aalt' Access All Alternates in Latin lookup 0 subtable" iogonek.ss08
EndChar

StartChar: itilde
Encoding: 297 297 226
Width: 269
GlyphClass: 2
Flags: MW
HStem: 0 21G<70 70 70 198> 514 20G<70 198 198 198> 597 134<-33 89 -33 89> 604 78<188 205.5 188 225> 604 136<176.5 301> 653 78<63.5 82>
VStem: -33 67<597 597> 70 128<0 534 0 534> 233 68<740 740>
AnchorPoint: "Anchor-3" 134 534 basechar 0
AnchorPoint: "Anchor-2" 198 0 basechar 0
AnchorPoint: "Anchor-0" 134 0 basechar 0
LayerCount: 2
Fore
SplineSet
191 604 m 0xc980
 162 604 142 612 117 632 c 0
 100 647 90 653 74 653 c 0xc7
 53 653 37 641 34 597 c 1xe3
 -33 597 l 1
 -32 681 9 731 73 731 c 0xc7
 105 731 127 722 152 702 c 0
 170 687 181 682 195 682 c 0xd180
 216 682 230 694 233 740 c 1
 301 740 l 1
 298 655 259 604 191 604 c 0xc980
70 0 m 1
 70 534 l 1
 198 534 l 1
 198 0 l 1
 70 0 l 1
EndSplineSet
EndChar

StartChar: ij
Encoding: 307 307 227
Width: 554
GlyphClass: 2
Flags: MW
HStem: -150 99<243 297 243 297 297 316 243 320> 0 21G<70 70 70 198> 514 20G<70 198 198 198 356 484 484 484> 605 114<68 201 68 201 354 486>
VStem: 68 133<605 719 605 719> 70 128<0 534 0 534> 354 132<605 719 605 719> 356 128<8 534>
AnchorPoint: "Anchor-3" 420 534 basechar 0
AnchorPoint: "Anchor-2" 198 0 basechar 0
AnchorPoint: "Anchor-0" 401 -150 basechar 0
LayerCount: 2
Fore
SplineSet
68 605 m 1xfa
 68 719 l 1
 201 719 l 1
 201 605 l 1
 68 605 l 1xfa
354 605 m 1
 354 719 l 1
 486 719 l 1
 486 605 l 1
 354 605 l 1
70 0 m 1xf5
 70 534 l 1
 198 534 l 1
 198 0 l 1
 70 0 l 1xf5
243 -150 m 1
 243 -51 l 1
 297 -51 l 2
 335 -51 356 -38 356 8 c 2
 356 534 l 1
 484 534 l 1
 484 4 l 2
 484 -106 439 -150 320 -150 c 2
 243 -150 l 1
EndSplineSet
Substitution2: "'ss08' Style Set 8 in Latin lookup 41 subtable" ij.ss08
Substitution2: "'aalt' Access All Alternates in Latin lookup 0 subtable" ij.ss08
EndChar

StartChar: j
Encoding: 106 106 228
Width: 308
GlyphClass: 2
Flags: MW
HStem: -150 99<-3 50 -3 50 50 69 -3 73> 514 20G<109 237 237 237> 605 114<107 240 107 240>
VStem: 107 133<605 719 605 719> 109 128<8 534>
AnchorPoint: "Anchor-3" 173 534 basechar 0
AnchorPoint: "Anchor-0" 154 -150 basechar 0
LayerCount: 2
Fore
SplineSet
107 605 m 1xf0
 107 719 l 1
 240 719 l 1
 240 605 l 1
 107 605 l 1xf0
-3 -150 m 1
 -3 -51 l 1
 50 -51 l 2
 88 -51 109 -38 109 8 c 2
 109 534 l 1
 237 534 l 1
 237 4 l 2xe8
 237 -106 192 -150 73 -150 c 2
 -3 -150 l 1
EndSplineSet
Substitution2: "'ss08' Style Set 8 in Latin lookup 41 subtable" j.ss08
Substitution2: "Single Substitution lookup 16 subtable" uni006A0301
Substitution2: "Single Substitution lookup 3 subtable" uni0237
AlternateSubs2: "'aalt' Access All Alternates in Latin lookup 1 subtable" uni006A0301 j.ss08
EndChar

StartChar: uni0237
Encoding: 567 567 229
Width: 308
GlyphClass: 2
Flags: MW
HStem: -150 99<-3 50 -3 50 50 69 -3 73> 514 20G<109 237 237 237>
VStem: 109 128<8 534>
AnchorPoint: "Anchor-3" 173 534 basechar 0
AnchorPoint: "Anchor-0" 154 -150 basechar 0
LayerCount: 2
Fore
SplineSet
-3 -150 m 1
 -3 -51 l 1
 50 -51 l 2
 88 -51 109 -38 109 8 c 2
 109 534 l 1
 237 534 l 1
 237 4 l 2
 237 -106 192 -150 73 -150 c 2
 -3 -150 l 1
EndSplineSet
EndChar

StartChar: uni006A0301
Encoding: 65577 -1 230
Width: 308
GlyphClass: 2
Flags: MW
HStem: -150 99<-3 50 -3 50 50 69 -3 73> 514 20G<109 237 237 237> 594 140<115 305 177 215>
VStem: 109 128<8 534>
AnchorPoint: "Anchor-3" 173 534 basechar 0
AnchorPoint: "Anchor-0" 154 -150 basechar 0
LayerCount: 2
Fore
SplineSet
115 594 m 1
 177 734 l 1
 305 734 l 1
 215 594 l 1
 115 594 l 1
-3 -150 m 1
 -3 -51 l 1
 50 -51 l 2
 88 -51 109 -38 109 8 c 2
 109 534 l 1
 237 534 l 1
 237 4 l 2
 237 -106 192 -150 73 -150 c 2
 -3 -150 l 1
EndSplineSet
EndChar

StartChar: jcircumflex
Encoding: 309 309 231
Width: 308
GlyphClass: 2
Flags: MW
HStem: -150 99<-3 50 -3 50 50 69 -3 73> 514 20G<109 237 237 237> 594 146<15 237 15 237 109 238 109 331>
VStem: 109 128<8 534>
AnchorPoint: "Anchor-3" 173 534 basechar 0
AnchorPoint: "Anchor-0" 154 -150 basechar 0
LayerCount: 2
Fore
SplineSet
15 594 m 1
 109 740 l 1
 237 740 l 1
 331 594 l 1
 238 594 l 1
 173 683 l 1
 109 594 l 1
 15 594 l 1
-3 -150 m 1
 -3 -51 l 1
 50 -51 l 2
 88 -51 109 -38 109 8 c 2
 109 534 l 1
 237 534 l 1
 237 4 l 2
 237 -106 192 -150 73 -150 c 2
 -3 -150 l 1
EndSplineSet
EndChar

StartChar: k
Encoding: 107 107 232
Width: 628
GlyphClass: 2
Flags: MW
HStem: 0 21G<70 70 70 198 438 438 438 582> 514 20G<417 575 575 575> 690 20G<70 198 198 198>
VStem: 70 128<0 147 293 710>
AnchorPoint: "Anchor-3" 134 682 basechar 0
AnchorPoint: "Anchor-0" 309 0 basechar 0
LayerCount: 2
Fore
SplineSet
70 0 m 1
 70 710 l 1
 198 710 l 1
 198 293 l 1
 417 534 l 1
 575 534 l 1
 366 312 l 1
 582 0 l 1
 438 0 l 1
 282 236 l 1
 198 147 l 1
 198 0 l 1
 70 0 l 1
EndSplineSet
EndChar

StartChar: uni01E9
Encoding: 489 489 233
Width: 628
GlyphClass: 2
Flags: MW
HStem: 0 21G<70 70 70 198 438 438 438 582> 514 20G<417 575 575 575> 690 20G<70 198 198 198> 742 146<-23 198 -23 71>
VStem: 70 128<0 147 293 710>
AnchorPoint: "Anchor-3" 134 682 basechar 0
AnchorPoint: "Anchor-0" 309 0 basechar 0
LayerCount: 2
Fore
SplineSet
-23 888 m 1
 70 888 l 1
 134 799 l 1
 199 888 l 1
 292 888 l 1
 198 742 l 1
 71 742 l 1
 -23 888 l 1
70 0 m 1
 70 710 l 1
 198 710 l 1
 198 293 l 1
 417 534 l 1
 575 534 l 1
 366 312 l 1
 582 0 l 1
 438 0 l 1
 282 236 l 1
 198 147 l 1
 198 0 l 1
 70 0 l 1
EndSplineSet
EndChar

StartChar: uni0137
Encoding: 311 311 234
Width: 628
GlyphClass: 2
Flags: MW
HStem: -158 108<249 285 249 369> 0 21G<70 70 70 198 438 438 438 582> 514 20G<417 575 575 575> 690 20G<70 198 198 198>
VStem: 70 128<0 147 293 710> 249 120<-147 -50 -147 -50 -147 -50>
AnchorPoint: "Anchor-3" 134 682 basechar 0
AnchorPoint: "Anchor-0" 309 -249 basechar 0
LayerCount: 2
Fore
SplineSet
70 0 m 1
 70 710 l 1
 198 710 l 1
 198 293 l 1
 417 534 l 1
 575 534 l 1
 366 312 l 1
 582 0 l 1
 438 0 l 1
 282 236 l 1
 198 147 l 1
 198 0 l 1
 70 0 l 1
232 -249 m 1
 285 -158 l 1
 249 -158 l 1
 249 -50 l 1
 369 -50 l 1
 369 -147 l 1
 310 -249 l 1
 232 -249 l 1
EndSplineSet
EndChar

StartChar: l
Encoding: 108 108 235
Width: 297
GlyphClass: 2
Flags: MW
HStem: 0 99<159 277 238 277 238 277> 690 20G<70 198 198 198>
VStem: 70 128<126 139 139 710>
AnchorPoint: "Anchor-4" 220 534 basechar 0
AnchorPoint: "Anchor-3" 134 682 basechar 0
AnchorPoint: "Anchor-1" 143 395 basechar 0
AnchorPoint: "Anchor-0" 177 0 basechar 0
LayerCount: 2
Fore
SplineSet
198 0 m 2
 120 0 70 37 70 126 c 2
 70 710 l 1
 198 710 l 1
 198 139 l 2
 198 111 212 99 238 99 c 2
 277 99 l 1
 277 0 l 1
 198 0 l 2
EndSplineSet
Substitution2: "'ss03' Style Set 3 in Latin lookup 36 subtable" l.ss03
Substitution2: "'aalt' Access All Alternates in Latin lookup 0 subtable" l.ss03
EndChar

StartChar: lacute
Encoding: 314 314 236
Width: 297
GlyphClass: 2
Flags: MW
HStem: 0 99<159 277 238 277 238 277> 690 20G<70 198 198 198> 742 140<77 266 138 176>
VStem: 70 128<126 139 139 710>
AnchorPoint: "Anchor-4" 220 534 basechar 0
AnchorPoint: "Anchor-3" 134 682 basechar 0
AnchorPoint: "Anchor-1" 143 395 basechar 0
AnchorPoint: "Anchor-0" 177 0 basechar 0
LayerCount: 2
Fore
SplineSet
77 742 m 1
 138 882 l 1
 266 882 l 1
 176 742 l 1
 77 742 l 1
198 0 m 2
 120 0 70 37 70 126 c 2
 70 710 l 1
 198 710 l 1
 198 139 l 2
 198 111 212 99 238 99 c 2
 277 99 l 1
 277 0 l 1
 198 0 l 2
EndSplineSet
Substitution2: "'ss03' Style Set 3 in Latin lookup 36 subtable" lacute.ss03
Substitution2: "'aalt' Access All Alternates in Latin lookup 0 subtable" lacute.ss03
EndChar

StartChar: lcaron
Encoding: 318 318 237
Width: 366
GlyphClass: 2
Flags: MW
HStem: 0 99<159 277 238 277 238 277> 434 276<70 250 280 340> 690 20G<70 198 198 198 280 394 394 394>
VStem: 70 128<126 139 139 710>
AnchorPoint: "Anchor-4" 220 534 basechar 0
AnchorPoint: "Anchor-3" 134 682 basechar 0
AnchorPoint: "Anchor-1" 143 395 basechar 0
AnchorPoint: "Anchor-0" 177 0 basechar 0
LayerCount: 2
Fore
SplineSet
198 0 m 2xb0
 120 0 70 37 70 126 c 2
 70 710 l 1
 198 710 l 1
 198 139 l 2
 198 111 212 99 238 99 c 2
 277 99 l 1
 277 0 l 1
 198 0 l 2xb0
250 434 m 1xd0
 280 710 l 1
 394 710 l 1
 340 434 l 1
 250 434 l 1xd0
EndSplineSet
Substitution2: "'ss03' Style Set 3 in Latin lookup 36 subtable" lcaron.ss03
Substitution2: "'aalt' Access All Alternates in Latin lookup 0 subtable" lcaron.ss03
EndChar

StartChar: uni013C
Encoding: 316 316 238
Width: 297
GlyphClass: 2
Flags: MW
HStem: -158 108<117 153 117 237> 0 99<159 277 238 277 238 277> 690 20G<70 198 198 198>
VStem: 70 128<126 139 139 710> 117 120<-147 -50 -147 -50 -147 -50> 117 160<-158 99 -50 99>
AnchorPoint: "Anchor-4" 220 534 basechar 0
AnchorPoint: "Anchor-3" 134 682 basechar 0
AnchorPoint: "Anchor-1" 143 395 basechar 0
AnchorPoint: "Anchor-0" 177 -249 basechar 0
LayerCount: 2
Fore
SplineSet
198 0 m 2xe4
 120 0 70 37 70 126 c 2
 70 710 l 1
 198 710 l 1
 198 139 l 2xf0
 198 111 212 99 238 99 c 2
 277 99 l 1
 277 0 l 1
 198 0 l 2xe4
100 -249 m 1
 153 -158 l 1
 117 -158 l 1
 117 -50 l 1
 237 -50 l 1
 237 -147 l 1xe8
 178 -249 l 1
 100 -249 l 1
EndSplineSet
Substitution2: "'ss03' Style Set 3 in Latin lookup 36 subtable" uni013C.ss03
Substitution2: "'locl' Localized Forms in Latin lookup 11 subtable" uni013C.loclMAH
AlternateSubs2: "'aalt' Access All Alternates in Latin lookup 1 subtable" uni013C.loclMAH uni013C.ss03
EndChar

StartChar: lslash
Encoding: 322 322 239
Width: 297
GlyphClass: 2
Flags: MW
HStem: 0 99<159 277 238 277 238 277> 690 20G<70 198 198 198>
VStem: 70 128<126 139 139 320 320 320 462 710>
AnchorPoint: "Anchor-4" 220 534 basechar 0
AnchorPoint: "Anchor-3" 134 682 basechar 0
AnchorPoint: "Anchor-1" 143 395 basechar 0
AnchorPoint: "Anchor-0" 177 0 basechar 0
LayerCount: 2
Fore
SplineSet
198 0 m 2
 120 0 70 37 70 126 c 2
 70 320 l 1
 4 291 l 1
 4 379 l 1
 70 407 l 1
 70 710 l 1
 198 710 l 1
 198 462 l 1
 283 499 l 1
 283 411 l 1
 198 375 l 1
 198 139 l 2
 198 111 212 99 238 99 c 2
 277 99 l 1
 277 0 l 1
 198 0 l 2
EndSplineSet
Substitution2: "'ss03' Style Set 3 in Latin lookup 36 subtable" lslash.ss03
Substitution2: "'aalt' Access All Alternates in Latin lookup 0 subtable" lslash.ss03
EndChar

StartChar: m
Encoding: 109 109 240
Width: 892
GlyphClass: 2
Flags: MW
HStem: 0 21G<70 70 70 198 386 386 386 505 694 694 694 822> 442 92<70 329.5> 442 104<303 329.5 607 634>
VStem: 70 117.5 70 128<0 306 0 534> 386 119<0 306 0 349.5> 694 128<0 310 310 343 0 354>
AnchorPoint: "Anchor-3" 446 534 basechar 0
AnchorPoint: "Anchor-0" 446 0 basechar 0
LayerCount: 2
Fore
SplineSet
70 0 m 1xae
 70 534 l 1xce
 186 534 l 1xd6
 189 445 l 1xb6
 216 509 270 546 336 546 c 0
 414 546 468 505 491 436 c 1
 515 507 570 546 644 546 c 0
 754 546 822 475 822 343 c 2
 822 0 l 1
 694 0 l 1
 694 310 l 2
 694 398 665 442 603 442 c 0
 542 442 505 392 505 306 c 2
 505 0 l 1
 386 0 l 1
 386 306 l 2
 386 393 362 442 297 442 c 0
 236 442 198 391 198 306 c 2
 198 0 l 1
 70 0 l 1xae
EndSplineSet
EndChar

StartChar: n
Encoding: 110 110 241
Width: 601
GlyphClass: 2
Flags: MW
HStem: 0 21G<70 70 70 198 403 403 403 531> 442 92<70 344.5> 442 104<313.5 344.5>
VStem: 70 117.5 70 128<0 302 0 534> 403 128<0 302 302 343 0 347>
AnchorPoint: "Anchor-3" 301 534 basechar 0
AnchorPoint: "Anchor-0" 301 0 basechar 0
LayerCount: 2
Fore
SplineSet
70 0 m 1xac
 70 534 l 1xcc
 186 534 l 1xd4
 189 443 l 1xb4
 218 516 278 546 349 546 c 0
 467 546 531 463 531 343 c 2
 531 0 l 1
 403 0 l 1
 403 302 l 2
 403 392 379 442 310 442 c 0
 241 442 198 392 198 302 c 2
 198 0 l 1
 70 0 l 1xac
EndSplineSet
EndChar

StartChar: nacute
Encoding: 324 324 242
Width: 601
GlyphClass: 2
Flags: MW
HStem: 0 21G<70 70 70 198 403 403 403 531> 442 92<70 344.5> 442 104<313.5 344.5> 594 140<243 432 304 342>
VStem: 70 117.5 70 128<0 302 0 534> 403 128<0 302 302 343 0 347>
AnchorPoint: "Anchor-3" 301 534 basechar 0
AnchorPoint: "Anchor-0" 301 0 basechar 0
LayerCount: 2
Fore
SplineSet
243 594 m 1xb6
 304 734 l 1
 432 734 l 1
 342 594 l 1
 243 594 l 1xb6
70 0 m 1
 70 534 l 1xd6
 186 534 l 1xda
 189 443 l 1xba
 218 516 278 546 349 546 c 0
 467 546 531 463 531 343 c 2
 531 0 l 1
 403 0 l 1
 403 302 l 2
 403 392 379 442 310 442 c 0
 241 442 198 392 198 302 c 2
 198 0 l 1
 70 0 l 1
EndSplineSet
EndChar

StartChar: ncaron
Encoding: 328 328 243
Width: 601
GlyphClass: 2
Flags: MW
HStem: 0 21G<70 70 70 198 403 403 403 531> 442 92<70 344.5> 442 104<313.5 344.5> 594 146<143 364 143 237>
VStem: 70 117.5 70 128<0 302 0 534> 403 128<0 302 302 343 0 347>
AnchorPoint: "Anchor-3" 301 534 basechar 0
AnchorPoint: "Anchor-0" 301 0 basechar 0
LayerCount: 2
Fore
SplineSet
143 740 m 1xb6
 236 740 l 1
 301 651 l 1
 365 740 l 1
 458 740 l 1
 364 594 l 1
 237 594 l 1
 143 740 l 1xb6
70 0 m 1
 70 534 l 1xd6
 186 534 l 1xda
 189 443 l 1xba
 218 516 278 546 349 546 c 0
 467 546 531 463 531 343 c 2
 531 0 l 1
 403 0 l 1
 403 302 l 2
 403 392 379 442 310 442 c 0
 241 442 198 392 198 302 c 2
 198 0 l 1
 70 0 l 1
EndSplineSet
EndChar

StartChar: uni0146
Encoding: 326 326 244
Width: 601
GlyphClass: 2
Flags: MW
HStem: -158 108<241 276 241 361> 0 21G<70 70 70 198 403 403 403 531> 442 92<70 344.5> 442 104<313.5 344.5>
VStem: 70 117.5 70 128<0 302 0 534> 241 120<-147 -50 -147 -50 -147 -50> 403 128<0 302 302 343 0 347>
AnchorPoint: "Anchor-3" 301 534 basechar 0
AnchorPoint: "Anchor-0" 301 -249 basechar 0
LayerCount: 2
Fore
SplineSet
70 0 m 1xd7
 70 534 l 1xe7
 186 534 l 1xeb
 189 443 l 1xdb
 218 516 278 546 349 546 c 0
 467 546 531 463 531 343 c 2
 531 0 l 1
 403 0 l 1
 403 302 l 2
 403 392 379 442 310 442 c 0
 241 442 198 392 198 302 c 2
 198 0 l 1
 70 0 l 1xd7
223 -249 m 1
 276 -158 l 1
 241 -158 l 1
 241 -50 l 1
 361 -50 l 1
 361 -147 l 1
 301 -249 l 1
 223 -249 l 1
EndSplineSet
Substitution2: "'locl' Localized Forms in Latin lookup 11 subtable" uni0146.loclMAH
Substitution2: "'aalt' Access All Alternates in Latin lookup 0 subtable" uni0146.loclMAH
EndChar

StartChar: ntilde
Encoding: 241 241 245
Width: 601
GlyphClass: 2
Flags: MW
HStem: 0 21G<70 70 70 198 403 403 403 531> 442 92<70 344.5> 442 104<313.5 344.5> 597 134<133 255 133 255> 604 78<354 372 354 391.5> 604 136<343 467> 653 78<230 248>
VStem: 70 117.5 70 128<0 302 0 534> 133 68<597 597> 400 67<740 740> 403 128<0 302 302 343 0 347>
AnchorPoint: "Anchor-3" 301 534 basechar 0
AnchorPoint: "Anchor-0" 301 0 basechar 0
LayerCount: 2
Fore
SplineSet
358 604 m 0xa4a0
 328 604 308 612 284 632 c 0
 266 647 256 653 240 653 c 0xa250
 220 653 203 641 201 597 c 1xb050
 133 597 l 1
 135 681 175 731 239 731 c 0xa250
 271 731 293 722 318 702 c 0
 336 687 347 682 361 682 c 0xa8a0
 383 682 396 694 400 740 c 1
 467 740 l 1
 464 655 425 604 358 604 c 0xa4a0
70 0 m 1xa890
 70 534 l 1xc890
 186 534 l 1xc910
 189 443 l 1xa910
 218 516 278 546 349 546 c 0
 467 546 531 463 531 343 c 2
 531 0 l 1
 403 0 l 1
 403 302 l 2
 403 392 379 442 310 442 c 0
 241 442 198 392 198 302 c 2
 198 0 l 1
 70 0 l 1xa890
EndSplineSet
EndChar

StartChar: eng
Encoding: 331 331 246
Width: 601
GlyphClass: 2
Flags: MW
HStem: -150 92<274 341 341 360 274 368 274 341> 0 21G<70 70 70 198> 442 92<70 344.5> 442 104<313.5 344.5>
VStem: 70 117.5 70 128<0 302 0 534> 403 128<4 302 302 343>
AnchorPoint: "Anchor-3" 301 534 basechar 0
AnchorPoint: "Anchor-0" 301 0 basechar 0
LayerCount: 2
Fore
SplineSet
70 0 m 1xd6
 70 534 l 1xe6
 186 534 l 1xea
 189 443 l 1xda
 218 516 278 546 349 546 c 0
 467 546 531 463 531 343 c 2
 531 -4 l 2
 531 -90 468 -150 368 -150 c 2
 274 -150 l 1
 274 -58 l 1
 341 -58 l 2
 379 -58 403 -34 403 4 c 2
 403 302 l 2
 403 392 379 442 310 442 c 0
 241 442 198 392 198 302 c 2
 198 0 l 1
 70 0 l 1xd6
EndSplineSet
EndChar

StartChar: o
Encoding: 111 111 247
Width: 603
GlyphClass: 2
Flags: MW
HStem: -12 104<260.5 343 260.5 381> 442 104<260.5 343>
VStem: 39 133<211.5 322 211.5 351.5> 431 133<211.5 322>
AnchorPoint: "Anchor-3" 302 534 basechar 0
AnchorPoint: "Anchor-1" 302 267 basechar 0
AnchorPoint: "Anchor-0" 302 0 basechar 0
LayerCount: 2
Fore
SplineSet
302 -12 m 0
 143 -12 39 98 39 267 c 0
 39 436 143 546 302 546 c 0
 460 546 564 436 564 267 c 0
 564 98 460 -12 302 -12 c 0
302 92 m 0
 384 92 431 156 431 267 c 0
 431 377 384 442 302 442 c 0
 219 442 172 377 172 267 c 0
 172 156 219 92 302 92 c 0
EndSplineSet
Substitution2: "Single Substitution lookup 27 subtable" ordmasculine
Substitution2: "'aalt' Access All Alternates in Latin lookup 0 subtable" ordmasculine
EndChar

StartChar: oacute
Encoding: 243 243 248
Width: 603
GlyphClass: 2
Flags: MW
HStem: -12 104<260.5 343 260.5 381> 442 104<260.5 343> 594 140<244 434 305 344>
VStem: 39 133<211.5 322 211.5 351.5> 431 133<211.5 322>
AnchorPoint: "Anchor-3" 302 534 basechar 0
AnchorPoint: "Anchor-1" 302 267 basechar 0
AnchorPoint: "Anchor-0" 302 0 basechar 0
LayerCount: 2
Fore
SplineSet
244 594 m 1
 305 734 l 1
 434 734 l 1
 344 594 l 1
 244 594 l 1
302 -12 m 0
 143 -12 39 98 39 267 c 0
 39 436 143 546 302 546 c 0
 460 546 564 436 564 267 c 0
 564 98 460 -12 302 -12 c 0
302 92 m 0
 384 92 431 156 431 267 c 0
 431 377 384 442 302 442 c 0
 219 442 172 377 172 267 c 0
 172 156 219 92 302 92 c 0
EndSplineSet
EndChar

StartChar: ocircumflex
Encoding: 244 244 249
Width: 603
GlyphClass: 2
Flags: MW
HStem: -12 104<260.5 343 260.5 381> 442 104<260.5 343> 594 146<144 366 144 366 238 366 238 460>
VStem: 39 133<211.5 322 211.5 351.5> 431 133<211.5 322>
AnchorPoint: "Anchor-3" 302 534 basechar 0
AnchorPoint: "Anchor-1" 302 267 basechar 0
AnchorPoint: "Anchor-0" 302 0 basechar 0
LayerCount: 2
Fore
SplineSet
144 594 m 1
 238 740 l 1
 366 740 l 1
 460 594 l 1
 366 594 l 1
 302 683 l 1
 237 594 l 1
 144 594 l 1
302 -12 m 0
 143 -12 39 98 39 267 c 0
 39 436 143 546 302 546 c 0
 460 546 564 436 564 267 c 0
 564 98 460 -12 302 -12 c 0
302 92 m 0
 384 92 431 156 431 267 c 0
 431 377 384 442 302 442 c 0
 219 442 172 377 172 267 c 0
 172 156 219 92 302 92 c 0
EndSplineSet
EndChar

StartChar: odieresis
Encoding: 246 246 250
Width: 603
GlyphClass: 2
Flags: MW
HStem: -12 104<260.5 343 260.5 381> 442 104<260.5 343> 604 113<139 264 139 264 340 465 139 340>
VStem: 39 133<211.5 322 211.5 351.5> 139 125<604 717 604 717> 340 125<604 717 604 717> 431 133<211.5 322>
AnchorPoint: "Anchor-3" 302 534 basechar 0
AnchorPoint: "Anchor-1" 302 267 basechar 0
AnchorPoint: "Anchor-0" 302 0 basechar 0
LayerCount: 2
Fore
SplineSet
139 604 m 1xec
 139 717 l 1
 264 717 l 1
 264 604 l 1
 139 604 l 1xec
340 604 m 1
 340 717 l 1
 465 717 l 1
 465 604 l 1
 340 604 l 1
302 -12 m 0
 143 -12 39 98 39 267 c 0
 39 436 143 546 302 546 c 0
 460 546 564 436 564 267 c 0xf2
 564 98 460 -12 302 -12 c 0
302 92 m 0
 384 92 431 156 431 267 c 0
 431 377 384 442 302 442 c 0
 219 442 172 377 172 267 c 0
 172 156 219 92 302 92 c 0
EndSplineSet
Substitution2: "'ss08' Style Set 8 in Latin lookup 41 subtable" odieresis.ss08
Substitution2: "'aalt' Access All Alternates in Latin lookup 0 subtable" odieresis.ss08
EndChar

StartChar: ograve
Encoding: 242 242 251
Width: 603
GlyphClass: 2
Flags: MW
HStem: -12 104<260.5 343 260.5 381> 442 104<260.5 343> 599 141<260 260 260 298 170 359>
VStem: 39 133<211.5 322 211.5 351.5> 431 133<211.5 322>
AnchorPoint: "Anchor-3" 302 534 basechar 0
AnchorPoint: "Anchor-1" 302 267 basechar 0
AnchorPoint: "Anchor-0" 302 0 basechar 0
LayerCount: 2
Fore
SplineSet
260 599 m 1
 170 740 l 1
 298 740 l 1
 359 599 l 1
 260 599 l 1
302 -12 m 0
 143 -12 39 98 39 267 c 0
 39 436 143 546 302 546 c 0
 460 546 564 436 564 267 c 0
 564 98 460 -12 302 -12 c 0
302 92 m 0
 384 92 431 156 431 267 c 0
 431 377 384 442 302 442 c 0
 219 442 172 377 172 267 c 0
 172 156 219 92 302 92 c 0
EndSplineSet
EndChar

StartChar: ohungarumlaut
Encoding: 337 337 252
Width: 603
GlyphClass: 2
Flags: MW
HStem: -12 104<260.5 343 260.5 381> 442 104<260.5 343> 594 140<170 359 231 269 332 359 393 431 332 332>
VStem: 39 133<211.5 322 211.5 351.5> 431 133<211.5 322>
AnchorPoint: "Anchor-3" 302 534 basechar 0
AnchorPoint: "Anchor-1" 302 267 basechar 0
AnchorPoint: "Anchor-0" 302 0 basechar 0
LayerCount: 2
Fore
SplineSet
170 594 m 1
 231 734 l 1
 359 734 l 1
 269 594 l 1
 170 594 l 1
332 594 m 1
 393 734 l 1
 521 734 l 1
 431 594 l 1
 332 594 l 1
302 -12 m 0
 143 -12 39 98 39 267 c 0
 39 436 143 546 302 546 c 0
 460 546 564 436 564 267 c 0
 564 98 460 -12 302 -12 c 0
302 92 m 0
 384 92 431 156 431 267 c 0
 431 377 384 442 302 442 c 0
 219 442 172 377 172 267 c 0
 172 156 219 92 302 92 c 0
EndSplineSet
EndChar

StartChar: omacron
Encoding: 333 333 253
Width: 603
GlyphClass: 2
Flags: MW
HStem: -12 104<260.5 343 260.5 381> 442 104<260.5 343> 613 97<157 446 157 446>
VStem: 39 133<211.5 322 211.5 351.5> 157 289<613 710 613 710> 431 133<211.5 322>
AnchorPoint: "Anchor-3" 302 534 basechar 0
AnchorPoint: "Anchor-1" 302 267 basechar 0
AnchorPoint: "Anchor-0" 302 0 basechar 0
LayerCount: 2
Fore
SplineSet
157 613 m 1xe8
 157 710 l 1
 446 710 l 1
 446 613 l 1
 157 613 l 1xe8
302 -12 m 0
 143 -12 39 98 39 267 c 0
 39 436 143 546 302 546 c 0
 460 546 564 436 564 267 c 0xf4
 564 98 460 -12 302 -12 c 0
302 92 m 0
 384 92 431 156 431 267 c 0
 431 377 384 442 302 442 c 0
 219 442 172 377 172 267 c 0
 172 156 219 92 302 92 c 0
EndSplineSet
EndChar

StartChar: oslash
Encoding: 248 248 254
Width: 603
GlyphClass: 2
Flags: MW
HStem: -14 75<62 114 114 114 114 149> -12 104<289 343 289 381> 442 104<260.5 314.5>
VStem: 39 133<247.5 322> 431 133<211.5 286.5>
AnchorPoint: "Anchor-3" 302 534 basechar 0
AnchorPoint: "Anchor-1" 302 267 basechar 0
AnchorPoint: "Anchor-0" 302 0 basechar 0
LayerCount: 2
Fore
SplineSet
62 -14 m 1x78
 114 61 l 1xb8
 66 109 39 180 39 267 c 0
 39 436 143 546 302 546 c 0
 351 546 394 535 431 516 c 1
 454 548 l 1
 541 548 l 1
 489 473 l 1
 537 424 564 353 564 267 c 0
 564 98 460 -12 302 -12 c 0
 253 -12 209 -1 172 18 c 1
 149 -14 l 1
 62 -14 l 1x78
172 267 m 0
 172 228 178 195 189 168 c 1
 368 424 l 1
 349 436 327 442 302 442 c 0
 219 442 172 377 172 267 c 0
302 92 m 0
 384 92 431 156 431 267 c 0
 431 306 425 339 414 366 c 1
 235 110 l 1x78
 254 98 276 92 302 92 c 0
EndSplineSet
EndChar

StartChar: otilde
Encoding: 245 245 255
Width: 603
GlyphClass: 2
Flags: MW
HStem: -12 104<260.5 343 260.5 381> 442 104<260.5 343> 597 134<135 256 135 256> 604 78<355 373 355 392.5> 604 136<344.5 468> 653 78<231.5 250>
VStem: 39 133<211.5 322 211.5 351.5> 135 67<597 597> 401 67<740 740> 431 133<211.5 322>
AnchorPoint: "Anchor-3" 302 534 basechar 0
AnchorPoint: "Anchor-1" 302 267 basechar 0
AnchorPoint: "Anchor-0" 302 0 basechar 0
LayerCount: 2
Fore
SplineSet
359 604 m 0xca80
 330 604 309 612 285 632 c 0
 267 647 258 653 242 653 c 0xc540
 221 653 205 641 202 597 c 1xe140
 135 597 l 1
 136 681 176 731 240 731 c 0xc540
 272 731 295 722 320 702 c 0
 337 687 348 682 362 682 c 0xd280
 384 682 398 694 401 740 c 1
 468 740 l 1
 466 655 426 604 359 604 c 0xca80
302 -12 m 0
 143 -12 39 98 39 267 c 0xc640
 39 436 143 546 302 546 c 0
 460 546 564 436 564 267 c 0
 564 98 460 -12 302 -12 c 0
302 92 m 0
 384 92 431 156 431 267 c 0
 431 377 384 442 302 442 c 0
 219 442 172 377 172 267 c 0
 172 156 219 92 302 92 c 0
EndSplineSet
EndChar

StartChar: oe
Encoding: 339 339 256
Width: 984
GlyphClass: 2
Flags: MW
HStem: -12 102<657.5 724.5 657.5 756> -12 104<260.5 343 260.5 343> 231 86<566 812 566 945 566 812> 442 104<260.5 343> 445 101<657.5 726>
VStem: 39 133<211.5 322 211.5 351.5> 431 135<231 231 231 317 231 322> 812 133<231 317>
AnchorPoint: "Anchor-3" 494 534 basechar 0
AnchorPoint: "Anchor-2" 848 30 basechar 0
AnchorPoint: "Anchor-1" 302 267 basechar 0
AnchorPoint: "Anchor-0" 494 0 basechar 0
LayerCount: 2
Fore
SplineSet
302 -12 m 0x77
 143 -12 39 98 39 267 c 0
 39 436 143 546 302 546 c 0
 384 546 452 516 498 463 c 1
 543 516 610 546 692 546 c 0
 844 546 945 440 945 260 c 2
 945 231 l 1
 566 231 l 1
 570 137 619 90 696 90 c 0xb7
 753 90 791 117 807 164 c 1
 938 156 l 1
 909 52 818 -12 694 -12 c 0
 611 -12 544 18 498 71 c 1
 452 18 384 -12 302 -12 c 0x77
566 317 m 1
 812 317 l 1
 807 404 760 445 692 445 c 0x6f
 623 445 576 400 566 317 c 1
302 92 m 0
 384 92 431 156 431 267 c 0
 431 377 384 442 302 442 c 0x77
 219 442 172 377 172 267 c 0
 172 156 219 92 302 92 c 0
EndSplineSet
EndChar

